<?xml version='1.0' encoding='utf-8'?>
<svg xmlns="http://www.w3.org/2000/svg" version="1.1" id="Ebene_1" x="0px" y="0px" viewBox="0 0 1341.6 841.9" style="enable-background:new 0 0 1341.6 841.9;"> <style type="text/css"> .st0{stroke:#FFFFFF;stroke-width:6;stroke-miterlimit:10;} .st1{fill:none;} .st2{fill:#575757;} .st3{fill:#9C9C9C;} .st4{fill:#262626;} .st5{fill:#C9C9C9;} .st6{fill:#060607;} .st7{fill:#FFFFFF;} .st8{fill:none;stroke:#FFFFFF;stroke-width:6;stroke-miterlimit:10;} </style> <path class="st0" d="M866.6,361c-26.7-81.7-103.5-140.7-194.1-140.7c-100.3,0-183.7,72.3-200.9,167.6c-1.2,6.6-2.1,13.3-2.6,20 c-0.4,5.5-0.7,11-0.7,16.6c0,21.4,3.3,42,9.4,61.4c8,25.4,20.8,48.7,37.4,68.7c3.3,4,6.8,7.9,10.4,11.6c0.2,0.2,0.3,0.3,0.5,0.5 c17.1,17.7,37.5,32.2,60,42.8c26.3,12.3,55.6,19.2,86.5,19.2c76.4,0,143-42,178-104.1c1.3-2.3,2.5-4.6,3.7-6.9 c0.1-0.1,0.1-0.3,0.2-0.4c1.4-2.8,2.8-5.7,4.1-8.5c0.4-0.9,0.8-1.8,1.2-2.7c1.2-2.7,2.3-5.5,3.4-8.2c0.4-1.1,0.9-2.3,1.3-3.4 c0.1-0.2,0.1-0.3,0.2-0.5c0.1-0.1,0.1-0.3,0.2-0.4c0.2-0.5,0.4-1,0.5-1.5c0.2-0.6,0.4-1.2,0.6-1.8c0.7-1.9,1.3-3.9,1.9-5.8 c0.2-0.5,0.3-1.1,0.5-1.6c0.2-0.5,0.3-1,0.5-1.6c0.2-0.7,0.4-1.4,0.6-2.2c2.5-9.1,4.4-18.4,5.7-27.9c1.1-8.8,1.7-17.7,1.7-26.7 C876.7,402.4,873.2,381,866.6,361z"/> <g> <path class="st1" d="M486.7,390.1l22.6-9.4l1.9-3.5l14.8-5.9l7.3,0.1l35.9-23.2l15,5.5l12.7-0.1l23.1,10.4l-0.1-0.1 c0.1,0.1,0.2,0.1,0.3,0.2l0.2,0.1l10.7-10.1l15.6-6.3l28.8-28.2l8.5-0.1l13.8,4.8l47.1-47.1l19.4,20.5l21,7.4l13.5,16.7l14,8.7 l13.9,5.1l15.2,6.7l23.5,14.5l1.2,0.6c-26.7-81.7-103.5-140.7-194.1-140.7c-100.3,0-183.7,72.3-200.9,167.6L486.7,390.1z"/> </g> <path class="st2" d="M826.8,397.9c0.8,0.3,2.8,0.6,4.4,0.7c2.6,0.2,3.1,0.1,3.6-0.7c0.3-0.5,0.6-1.2,0.6-1.5c0-0.4-0.3-0.5-0.6-0.5 v0c-0.4,0-0.8,0.2-1.2,0.6c-1.1,1.2-2.8,1.4-3.8,0.3c-0.9-0.9-2.1-0.9-1.5,0c0.2,0.2-0.1,0.4-0.5,0.4s-0.9-0.2-1.1-0.5 c-0.4-0.6-1.3-0.6-1.3,0C825.4,397.2,826,397.6,826.8,397.9z"/> <path class="st2" d="M490,413.9l14.4-7.1l14.5-0.7l12.8-3.7l10.5-0.4l5.9,0.5c-0.9-1.2-1.6-2.5-1.6-3.1c0-1.7,0.3-1.6,2.7,0.9l2,2.2 l0.1-3.7c0-2.1,0.1-4.3,0.1-5.1l0.1-1.4l0,0l0,0l0,0l1.2,1.3c0.9,1,1.1,1.9,1,4.1c-0.2,3.1,0.8,3.9,1.7,1.5c0.6-1.5,3.3-2.4,3.3-1.1 c0,0.5-1.1,2.2-2.5,3.8c-1,1.1-1.6,2-2,2.8l2.1,1c0.7-1.2,1.5-2.2,1.9-2c0.3,0.2,0.4,0.9,0.2,1.6c-0.2,0.8-0.1,1,0.1,0.6 c0.5-0.7,4.1-2.4,5.1-2.4c1,0,0.6,0.8-1.1,2c-0.9,0.6-1.7,1.3-1.7,1.6c0,0.3,0.2,0.3,0.5,0.1c0.3-0.2,0.8,0.1,1.2,0.5s1,0.9,1.5,0.9 c0.4,0,0.6,0.3,0.6,0.6l11.8,4.6l9,4.5l11.3,9.6c0.1,0,0.2,0.1,0.2,0.1c4.5-2,12-4.8,14.1,1.8c-5.2-0.7-7.5-1-10.6,1.3l6.8,5.8 l21.7,0.8l12.8,3.3l19.2,12.3l10.2,11l12.7,6.8l16.3-1l7,2.5l8.1,2.2c0.1-0.2,0.1-0.4,0.2-0.6c0.1,0.3,0.3,0.5,0.4,0.8l3.2,0.9 l5.7,0.9c0.7-3.4,1.7-6.8,3.2-10.1c1.6,3.8,2.4,7.6,3,11.3l0.5,0.3l2.1,0c0.9,0.2,0.4-0.1,1,0.3c-0.3,0.4-0.6,0.6-0.9,0.9l1.2,0.7 c1.6-3.1,3.5-6.1,4.6-9.6c0.9,2.3,1.3,4.3,1.8,6.3c0.3-1.2,0.1-0.5,0.3-0.9l0.8,3.5c1.3-1.5,1.5-2.8,1.3-5.2c-0.6-1-0.4-0.7,0-1.6 c0.5,0.6,0.8,1.1,0.9,1.6c0.9-5.6,2.1-11.3,4.7-16.1c1.7,8.7,1.9,19.7,3.6,28.4c1.3-3.7,4.4-7.8,5.7-11.6c1,2.8,1.6,5.6,2.2,8.4 c0.8,0,1.8,0.1,3.2,0.2c0.3,0,0.5,0,0.8,0c0.6-2.6,1.2-5.3,1.9-7.9c-0.1-0.4-1.4-0.8-3.4-1.2c-1.9-0.3-3.4-0.8-3.4-1.1 c0-0.2-0.2-0.3-0.5-0.1c-0.3,0.2-0.9,0.1-1.4-0.2c-0.8-0.4-0.7-0.5,0.5-0.8c1.1-0.2,1.4-0.5,1.2-1.2c-0.2-0.6,0-0.9,0.9-1 c0.9-0.1,0.2-0.4-2.1-1.1c-3.6-1-4.5-1.9-1.3-1.4c2.9,0.5,10.1,0.6,10.1,0.2c0-0.2-0.2-0.4-0.5-0.4c-0.3,0-0.5-0.2-0.5-0.5 c0-0.3,1.1-0.5,2.5-0.4c0.3,0,0.6,0,1,0c0.1-0.2,0.2-0.5,0.3-0.8c0,0.2,0.1,0.5,0.1,0.7c3.4-0.2,7.7-1,7.9-1.7 c0.2-0.4-0.2-0.6-1-0.6c-0.7,0-1.3-0.2-1.3-0.5c0-0.2-0.4-0.3-0.8-0.2c-0.4,0.1-0.8,0-0.8-0.3c0-0.4-0.4-0.3-1.2,0.2 c-0.6,0.4-1.8,0.7-2.5,0.7l-1.3,0l1.2-0.9l1.2-0.9l-2.5-0.1l-2.5-0.2l1.8-0.8l1.8-0.8l-1.6,0c-1,0-2.1-0.4-2.9-1.2 c-0.7-0.6-1.5-1.2-1.8-1.2c-0.3,0-0.9-0.4-1.3-1c-1-1.4,0.3-1.6,3.3-0.7c3.3,1,3.9,1,3.6-0.2c-0.3-1.1-0.2-1.1,3.1-0.2 c2.5,0.7,2.8,0.7,6.8-0.3c1.5-0.4,2.7-0.8,3.6-1.1l-3.1-1.8c-0.1,0.1-0.3,0.2-0.4,0.3c-0.8,0.7-1.5,0.8-3.2,0.5 c-2.4-0.4-2.5-0.5-1.2-1.5c0.9-0.7,0.6-0.7-1.7,0.1c-0.8,0.3-0.9,0.2-0.7-0.4c0.3-0.6,0-0.8-0.8-0.8c-0.7,0-1-0.2-0.8-0.7 c0.2-0.4,0-0.8-0.3-0.9c-0.4-0.2-0.4-0.4,0.2-0.9c0.4-0.3,0.6-0.5,0.5-0.8l-65.5-38.9l-77.3-38.2l-8.4-6.5l-23.1-10.4l-12.7,0.1 l-15-5.5l-35.9,23.2l-7.3-0.1l-14.8,5.9l-1.9,3.5l-22.6,9.4l-15.1-5.5c-1.2,6.6-2.1,13.3-2.6,20l15,8.1L490,413.9z M685.9,440 c2.1-0.9,5.8,3.9,9.5,7.3c1.2-1.7,8.9-9.4,9.6-8c1.7,3.6-8,13.2-9.6,14.7C690.8,449.9,684.8,442.7,685.9,440z M585.6,358.7l4.8,1.8 h7l6.6,4.2l8.7,4l10,4.5l12.2,9.5l7.5,7.6l10.3,7.4l1.9,4.5l-10.2-4l-7.3-3.8l-4.7-0.7l-7.3-5.8l-5-5.5l-3.7,0.8l2.2,4.5l1.3,2.7 l2.7,1.5l-4.2,1.5l-4.8-2.5l-6-4l-5.3-4.2l-5.3-2.8l-7-5.7l-5.3-4.2l-4-3.3l-4-2.7l-3-5L585.6,358.7z"/> <path class="st2" d="M831.8,427.4c1.9,0.9,3,1.2,3,0.7c0-0.3-3.6-1.6-4.4-1.6C830.1,426.5,830.8,426.9,831.8,427.4z"/> <path class="st2" d="M841.9,342.5l-15.2-6.7l-13.9-5.1l-14-8.7l-13.5-16.7l-21-7.4L745,277.3l-47.1,47.1l-13.8-4.8l-8.5,0.1 L646.8,348l-15.6,6.3l-10.7,10.1l-0.2-0.1c41.7,22.4,88.9,43.3,87.9,39.9c-2.2-7.1,15,10.5,18.1,11.4c7.1,2.2-4.6-12.2,3-4.9 l23.8,22.7l24.4,13.7c2.6,0.4,4,0.1,5.1-1c1-0.9,1-1.2,0.4-1.4c-0.4-0.1-1.5,0-2.4,0.3c-2.3,0.8-2.7,0-0.9-1.3 c1.3-0.9,1.4-1.1,0.5-1.1c-1.8,0.1-2.9,0-2.9-0.5c0-0.3,0.4-0.5,0.9-0.5c0.7,0,0.7-0.1-0.2-0.4c-0.6-0.2-1.3-0.7-1.4-1.1 c-0.3-0.7-0.2-0.7,0.8-0.2c1.8,0.9,12.8,0.8,15.1-0.2c1.6-0.7,1.7-0.8,0.6-0.8c-1,0-1.2-0.2-1-1c0.3-0.9,0.2-0.9-0.6-0.3 c-1.2,0.9-2.7,1.4-2.7,0.9c0-0.2-0.5-0.3-1.1-0.2c-0.6,0.1-1.1,0-1.1-0.3c0-0.3-0.6-0.5-1.3-0.5c-1.8,0-1.7-0.5,0.4-1.9l1.7-1.2 l-2.8,0.4c-2.9,0.4-4,0.2-3.4-0.6c0.5-0.8-0.9-1.8-2.5-1.8c-1.8,0-2-0.8-0.3-1.1c0.7-0.1,0.4-0.2-0.7-0.2c-1.2,0-1.8-0.1-1.7-0.5 c0.1-0.3-0.1-0.6-0.4-0.6c-0.4,0-0.4-0.2,0.1-0.7c0.4-0.5,1.2-0.7,2-0.5c0.7,0.1,1.1,0.1,0.7,0c-1.2-0.5-0.7-1.2,0.7-0.9 c1.1,0.2,1.2,0.1,1-0.5c-0.2-0.6-0.1-0.7,0.4-0.4c0.4,0.2,1.3,0.4,2.1,0.5c0.7,0.1,1.9,0.2,2.7,0.4l1.3,0.3l-1.4-1.1 c-1.7-1.3-1.9-2-0.4-1.3c1.5,0.7,2.5,0.6,1.7-0.1c-1.2-1.1-0.7-1.9,0.5-0.9c0.6,0.5,1.9,1.2,2.8,1.6c3.2,1.4,11.9-0.5,11.9-2.5 c0-0.4,0.3-1,0.6-1.3c0.4-0.4,0.4-0.6,0-0.6c-0.3,0-0.7,0.3-0.9,0.7c-0.2,0.4-0.9,0.7-2,0.6c-1,0-2.3,0.1-2.9,0.3 c-1,0.3-1.2,0.2-1.2-0.6v-1l-1.8,0.9c-1.3,0.7-1.9,0.8-2.2,0.4c-0.2-0.3-0.1-0.7,0.3-1c0.6-0.4-2.5-0.3-4.5,0.1 c-0.3,0.1-1.1-0.1-1.7-0.2c-1.1-0.3-1.1-0.4-0.4-1.2c0.8-0.8,0.7-0.8-0.5-1.1c-1.5-0.3-1.8-1.2-0.4-1.2c0.6,0,0.3-0.3-0.7-0.7 c-0.9-0.4-2.3-1.2-3.1-1.8l-1.5-1.1l1.9-0.3c1.1-0.2,1.9-0.5,1.9-0.8c0-0.3,0.6-0.3,1.4-0.1c1.3,0.3,1.4,0.2,0.8-0.4 c-1-1.1,0.5-1.4,2.1-0.5c0.7,0.5,2.3,0.8,3.8,0.8c2.1,0,2.4-0.1,1.5-0.4c-1-0.4-1.1-0.8-0.7-2.6c0-0.1,0.8,0.3,1.8,0.8 c1,0.5,2.6,1,3.6,1c3.3,0,8.9-2,12.5-4.3c1.4-0.9,1.1-1.1-0.5-0.3c-0.8,0.4-1,0.3-1-0.4c0-0.8,0-0.8-0.6,0c-0.3,0.5-0.8,0.7-1,0.6 c-0.3-0.1-1.1,0.1-1.8,0.5c-1.3,0.8-1.3,0.8-1.3-0.6c0-0.7-0.2-1.1-0.4-0.8c-0.5,0.6-2.5,1.6-3.2,1.6c-0.3,0-0.6-0.5-0.6-1.1 c-0.1-1-0.1-1-0.4,0.1c-0.2,0.6-0.5,1.1-0.6,1c-0.1-0.1-0.7,0-1.3,0.3c-0.9,0.4-1.2,0.4-1.8-0.4c-0.4-0.5-0.9-0.8-1.2-0.6 c-0.2,0.1-0.3-0.3-0.1-1c0.3-1.2,0.3-1.2-1.1-0.7c-1.7,0.6-2.2,0.3-1.3-0.7c0.6-0.6,0.5-0.7-0.3-0.7c-0.9,0-0.9,0,0-0.9 c0.5-0.5,0.7-1,0.4-1.2c-0.3-0.1-0.9,0.1-1.4,0.6c-0.8,0.8-1.3,0.9-3.4,0.5c-0.1,0,0.1-0.3,0.4-0.7c0.7-0.7,0.3-1.2-1-1.2 c-0.5,0-1.5-0.4-2.2-0.9l-1.3-0.9l1.6-0.1c0.9,0,2.2,0,2.9,0c1.1,0.1,1.2,0,0.6-0.6c-1.2-1.2-0.3-1.2,1.7,0c2.2,1.3,3.5,1.6,2.5,0.4 c-0.6-0.6-0.5-0.7,0.2-0.4c1,0.3,1.2-0.3,0.2-1.1c-1.4-1.2,0.1-1,1.7,0.2c3.3,2.4,3.7,2.5,7.4,1.5c3.9-1,6.5-2.3,7.3-3.7 c0.5-0.8,0.4-0.9-0.8-0.8c-0.7,0-1.4,0.4-1.6,0.8c-0.1,0.4-0.8,0.8-1.4,0.8c-0.9,0.1-1-0.1-0.8-0.9c0.3-0.9,0.2-0.9-0.9,0.3 c-0.7,0.7-1.8,1.3-2.4,1.3c-1,0-1.2-0.2-0.9-1.4c0.4-1.8-0.8-2.3-2.1-0.8c-0.9,1-3.8,1.7-3.9,0.9c0-0.2,0.8-0.9,1.7-1.6 c1.3-1,1.5-1.3,0.8-1.3c-0.5,0-1.1,0.3-1.2,0.7c-0.2,0.4-0.5,0.6-0.7,0.5s-0.6,0-0.8,0.2c-0.2,0.3-1,0.5-1.7,0.5 c-1.3,0-1.3,0-0.4-0.7c1-0.6,1-0.7-0.5-1.2c-0.8-0.3-1.8-0.5-2.1-0.5c-0.3,0,0-0.3,0.7-0.7c1.3-0.6,1.3-0.6-0.7-0.5 c-1.3,0.1-2.3-0.1-2.8-0.5c-1.2-1-0.3-1.6,2.3-1.6c1.5,0,2.2-0.2,2-0.5c-0.7-1,1.3-1,3.5,0c2.7,1.2,3.2,1.2,2.8,0.3 c-0.2-0.4,0-0.7,0.5-0.7c0.5,0,0.7-0.3,0.5-0.7c-0.4-0.8-0.2-0.9,1.6-0.3c1.1,0.4,1.3,0.3,1-0.5c-0.3-0.9,0.6-1.3,1.2-0.4 c0.2,0.3,1.3,0.9,2.5,1.5c1.9,0.9,2.4,0.9,4.3,0.4c1.8-0.5,2-0.6,1.2-1c-0.5-0.2-0.9-0.8-0.9-1.2c0-0.6,0.5-0.7,2.4-0.6 c1.8,0.1,2.6-0.1,3.4-0.8c1.2-1,2.3-4.8,1.5-5.2c-0.4-0.2-0.7,0.8-0.5,2c0,0.3-0.4,1.2-1,2c-0.9,1.1-1.3,1.3-1.9,0.9 c-0.4-0.3-0.8-1.1-0.8-1.8c0-1-0.1-1-0.3-0.3c-0.4,1.5-1.8,2.6-3.1,2.6c-1.1,0-1.2-0.1-0.7-0.9c0.7-1.1,0.7-1.6,0-1.2 c-0.3,0.2-0.5,0.1-0.5-0.2c0-0.3-0.2-0.5-0.5-0.5c-0.3,0-0.5,0.3-0.5,0.7c0,0.8-3.1,3.2-3.7,2.8c-0.3-0.1-0.5-0.7-0.5-1.2 c0-0.5-0.2-0.9-0.5-0.9c-0.3,0-0.4-0.3-0.2-0.6c0.2-0.3-0.1-0.1-0.6,0.5c-0.5,0.6-1.2,0.9-1.4,0.7c-0.2-0.2-0.9-0.4-1.5-0.5 c-1.4-0.2-3.6-1.1-3.6-1.6c0-0.2,0.7-0.6,1.6-0.9c0.9-0.3,1.5-0.8,1.4-1.1c-0.1-0.3,0.6-0.6,1.5-0.6c1.8-0.1,4.5-1.2,3.5-1.5 c-0.4-0.1-0.7-0.5-0.7-0.9c0-0.7,2.6-0.9,3.5-0.2c0.8,0.7,2.9,1.1,2.9,0.6c0-0.2-0.6-0.6-1.4-0.7c-1.1-0.3-1.3-0.4-0.7-1 c0.5-0.6,0.4-0.7-0.4-0.7c-1.2,0-3.2-1.3-2.7-1.7c0.2-0.2,1.4-0.4,2.7-0.5c0.2,0,0.3,0,0.4,0l-0.2-0.1l-1.4-1.1 c-0.1,0-0.1-0.1-0.2-0.1l-1.5-1.2l-1.1-0.7c0,0-0.1,0-0.1,0c-0.6,0-1.1-0.3-1.1-0.7c0,0,0-0.1,0-0.1l-2.5-1.7l-7.3-3.7l-7.3-9.7 l-3.5-4.5l-4.5-4.2l-2.7-6.2l0.7-7.1l-1.7-5.8l-4.5-5l-8.7-10l-3.7-5.5l-4-5.5l-1-3.5l7.1,1.7l2.4,3.5l16.1,9.5l21.7,16.2l20.7,17.5 l0.3,0.3c0.1-0.6,0.4-1,0.9-1.5l1.1-1v0l0,0l0,0h0l0,0l0,0l0.1,1.1c0,0.6,0.1,2.5,0.1,4.1l1.5,1.9l0.5-0.5c2.2-2.1,2.5-2.2,2.5-0.7 c0,0.4-0.5,1.3-1.3,2.2l9.8-0.9l17.8,16.5l9.5,8.7L853,374l-5.5-2.5l-7-2.7l-5.3,0.1c-0.4,0.3-1.1,0.4-1.5,0.2 c-0.3-0.1-0.5,0-0.5,0.2c0,0.3-0.4,0.5-0.9,0.5c-0.7,0-0.7,0.1-0.2,0.3c0.6,0.2,0.4,0.5-0.5,1.1l-1.2,0.8l2.2,0.3 c2.3,0.3,2.8,1.1,1.4,2.1c-0.5,0.4-1,0.4-1.6,0.1c-1-0.5-2.9-0.2-2.9,0.4c0,0.2-0.5,0.4-1.1,0.4c-0.6,0-1.1-0.2-1.1-0.5 c0-0.3-0.5-0.5-1.2-0.5l-1.2,0l1.3,1c1,0.7,1.1,1,0.6,1.3c-0.8,0.4-2.2,0.1-2.8-0.7c-0.2-0.3-0.3,0.1-0.1,0.8 c0.3,1.1,0.1,1.3-0.7,1.3c-0.6,0-1.1-0.3-1.1-0.6c0-0.4-0.1-0.4-0.3,0.1c-0.2,0.5-0.5,0.3-1-0.5l-0.7-1.1l-0.7,1.3 c-0.4,0.7-0.5,1.4-0.3,1.6c0.2,0.2,2.1,0.4,4.2,0.5c3.5,0.2,4,0.1,6.3-1.2c2.3-1.3,4-1.5,4-0.5c0,0.2-0.7,0.7-1.4,1.1l-1.4,0.7 l1.8-0.3c1.8-0.3,4.9-1.7,6.2-2.9c0.4-0.3,1.2-0.6,1.7-0.6c1.1,0,1.4,0.9,0.5,1.7c-0.3,0.3,0.5,0.5,2.2,0.6c1.5,0.1,2.9,0.3,3.1,0.4 c1.7,1-2.5,2.7-5.6,2.3l-2.1-0.3l1.5,0.7c0.9,0.5,1.4,1.1,1.3,1.5c-0.3,1.1-2.5,0.8-4-0.7c-0.7-0.7-1.6-1.1-2.1-1 c-0.7,0.2-0.6,0.3,0.5,0.7c1.8,0.7,2.3,1.4,1.3,1.8c-0.5,0.2-0.7,0.6-0.6,0.9c0.1,0.3-0.1,0.7-0.5,0.9c-0.4,0.1-0.8,0.1-0.8-0.1 c0-0.4-1.7-1-3-1.2c-0.3,0-1.1-0.5-1.7-1c-0.6-0.5-1.1-0.7-1.1-0.5c0,0.5,1.2,1.4,2.5,2.1c0.6,0.3,1.2,0.8,1.2,1 c0,0.9-1.6,1-2.6,0.2c-1-0.8-1-0.8-0.7,0.2c0.4,1.4-0.7,1.2-1.7-0.2c-0.7-0.9-1-1.1-1.3-0.6c-0.4,0.5-0.5,0.5-0.9,0 c-0.3-0.3-0.9-0.6-1.4-0.5c-2.1,0.2-4.9-1.5-5-3c0-0.9-0.1-0.8-0.4,0.2c-0.3,1-0.1,1.4,1.5,2.7c1,0.8,3.3,2.2,5.1,3l3.3,1.5l2.5-1.1 c1.4-0.6,2.8-1.2,3.2-1.2c0.9-0.2,0.8,0.7-0.3,1.9c-0.8,0.9-0.8,0.9,0,0.3c0.5-0.3,1.1-0.5,1.4-0.4c0.3,0.1,1.1-0.1,1.9-0.4 c1.9-0.9,2.5-0.9,2.2,0.1c-0.2,0.7,0,0.8,1.3,0.8c0.9,0,1.7-0.2,1.9-0.3c0.6-0.6,2.3,0.3,2.3,1.2c0,0.7-0.3,0.9-1.1,0.7 c-1.1-0.2-1.1-0.2-0.2,0.6c1,0.9,0.8,1.1-1.2,0.9c-0.9-0.1-1.1,0.1-0.8,0.7c0.3,0.7,0.1,0.8-1,0.6c-1.1-0.2-1.3-0.1-1.1,0.6 c0.3,1-0.1,1.1-1.4,0.4c-1.3-0.6-2.9,1.3-1.9,2.2c0.6,0.5,0.8,0.5,1-0.1c0.2-0.4,1.1-0.7,2.1-0.7c1,0,1.7,0.1,1.6,0.4 c-0.2,0.2,0.2,0.3,0.8,0.2c1.3-0.3,1.4,0.4,0.1,1.1c-0.7,0.4-0.9,0.9-0.7,1.7c0.3,1.5,0.4,1.5,2.3,0c0.9-0.6,1.9-1.2,2.3-1.2 c0.9,0,0.9,0.2,0.2,1.4c-0.6,0.9-0.2,0.9,3.8,0.3c1.3-0.2,2-0.2,2,0.2c0,0.6-2.7,1.9-4,1.9c-0.7,0-0.8,0.1-0.2,0.7 c0.5,0.6,0.5,0.8-0.1,1c-0.4,0.1-1,0.2-1.3,0.2c-1.1-0.2-1.8,0.1-1.7,0.6c0.1,0.4-0.4,0.6-1.3,0.6c-1.1,0-1.5,0.2-1.5,0.9 c0,0.9-0.1,0.9-1.1-0.1c-0.8-0.9-1-0.9-1-0.3c0,0.4-0.2,0.7-0.5,0.5c-0.3-0.2-0.8,0.3-1,0.9c-0.3,0.7-0.9,1.3-1.3,1.5 c-0.4,0.2-0.8,0.6-0.8,0.9c0,0.4-0.4,0.7-0.9,0.7c-0.5,0-1.2,0.4-1.5,0.8c-0.6,0.8-0.7,0.8-1.9-0.1l-1.2-0.9l0.9,1 c0.6,0.6,2.3,1.3,4.5,1.8c4.6,1,5.8,1,7.7-0.1c1.8-1,2.6-0.8,2.1,0.5c-0.3,0.7-0.1,0.9,1.2,0.9c0.8,0,1.8-0.2,2-0.5 c0.4-0.3,0.9-0.3,1.5,0.2c1,0.6,1,0.7-0.7,1.5c-1.2,0.6-1.6,1.1-1.4,1.7c0.2,0.5,0,0.8-0.4,0.8c-1.5-0.2-2.1,0-1.8,0.7 c0.5,1.2-1.4,1.7-2.9,0.8c-1-0.6-1.1-0.6-0.6-0.1c0.9,1,0,2-1.4,1.6c-2-0.6-2.5,0.3-0.6,1c2.5,0.8,5,0.8,6,0c1-0.9,2.7-0.9,2.3,0 c-0.2,0.6,0.1,0.6,2.1,0.4c2.8-0.3,3.2,0.4,0.6,1.3c-1.3,0.4-1.7,0.8-1.5,1.4c0.3,1-1.4,1.5-2.7,0.8c-0.7-0.3-0.9-0.2-0.9,0.7 c0,1-0.2,1.1-1.1,0.9c-0.9-0.2-1.1-0.1-0.8,0.6c0.3,0.7,0.1,0.8-0.7,0.6c-0.6-0.1-1.1-0.1-1.1,0.2c0,0.8-1.1,0.4-2.5-0.9 c-1.7-1.6-2.7-2-3.9-1.4c-1.4,0.7-1.1,1.2,0.7,1c1.8-0.2,2.1,0.5,0.8,2.1c-0.8,1-0.8,1,0.2,1c0.6,0,1.4,0.3,1.8,0.7 c0.4,0.4,1.1,0.7,1.6,0.7s0.9,0.2,1.1,0.4c0.2,0.2,1.2,0.4,2.4,0.4c1.1,0,2.4,0.1,2.7,0.4c0.1,0.1,0.2,0.1,0.4,0.1 c0.1-0.5,0.3-1,0.5-1.5c0.2,0.5,0.5,1.1,0.7,1.6c0.3,0,0.6,0,0.9,0c1.4-0.1,1.7,0.1,1.9,1c0.1,0.8,0.5,1.1,1.5,1.1 c0.7,0,1.6,0.1,1.8,0.2c0.2,0,0.6,0.1,1.1,0.1c0.6-2.3,1.2-4.5,1.8-6.7c1.7,5.4,4.2,9.7,5.3,16.1c1.4-4.6,4.7-8.6,7.6-13.8 c2.8,6.6,2.7,11.7,3.5,16.9c1.1-8.8,1.7-17.7,1.7-26.7c0-22.2-3.6-43.6-10.1-63.6l-1.2-0.6L841.9,342.5z M682.6,380 c-0.5,1-6.7-4.5-7.7-5.6c-3.1,2.4-6,5.8-7.7,5.1c-0.9-1.9,3.9-6.9,7.7-9.7C676.2,370.8,684,377.5,682.6,380z M715.6,360.7l-4.8-3.2 l-4-1.5l-5.3-3l-5,3l-3.5-2.9l-3.7-6.1l-2.7,1.3l-2-6.8l-2.2-5.8l-2.5-5.5l6.5,0.7l11,8.5l8.8,4.5l2.4,4.3l7.8,3.7l1.7,7l2.5,3.7 L715.6,360.7z M766,413.6c4.3-1.8,10.4-5.6,12.9,0.6c-6.4-0.8-9.2-0.3-13,4.1c-1.9-3.3-5.2-4.9-11.1-4.7 C757.2,410.2,761.5,410,766,413.6z"/> <path class="st2" d="M821.1,395.7c0.3,0.2,0.5,0.1,0.5-0.2c0-0.3-0.2-0.5-0.5-0.5c-0.3,0-0.5,0.1-0.5,0.2S820.9,395.6,821.1,395.7z"/> <path class="st2" d="M818.8,393.8c-0.2,0-0.3,0.1-0.3,0.3c0,0.3,0.2,0.5,0.5,0.5c0.7,0,0.7-0.3,0-0.7 C819,393.8,818.9,393.8,818.8,393.8L818.8,393.8z"/> <path class="st2" d="M823.8,396.7c0.3,0.2,0.5,0.1,0.5-0.2c0-0.3-0.2-0.5-0.5-0.5c-0.3,0-0.5,0.1-0.5,0.2 C823.3,396.3,823.5,396.5,823.8,396.7z"/> <path class="st2" d="M742.8,483.6c0.1-0.7,0.3-1.4,0.4-2.1c-0.3,0.2-0.6,0.4-0.9,0.6C742.4,482.6,742.6,483.1,742.8,483.6z"/> <path class="st2" d="M772,482.3c0.4-1.8,0.9-3.3,1.3-4.6c-0.1,0.1-0.3,0.1-0.4,0.2c-0.8,0.5-1.5,0.6-1.7,0.4c0,0,0,0,0,0 c0.2,1.4,0.4,2.8,0.6,4C771.8,482.3,771.9,482.3,772,482.3z"/> <path class="st2" d="M762,487.3c0.7-0.2,1.2-0.4,1.7-0.6c0-0.1,0.1-0.3,0.1-0.4c-0.3,0.1-0.7,0.1-1.2,0.3c-0.4,0.1-0.9,0.2-1.3,0.3 c0.1,0.2,0.1,0.5,0.2,0.7C761.6,487.4,761.8,487.3,762,487.3z"/> <path class="st2" d="M760.8,484.8c0,0.1,0,0.1,0,0.2C761.3,484.9,761.2,484.9,760.8,484.8z"/> <path class="st2" d="M763.2,488.8c0,0-0.1,0-0.1,0c-0.4,0.1-0.8,0.2-1.1,0.2c0.2,0.7,0.4,1.3,0.7,2 C762.8,490.4,763,489.6,763.2,488.8z"/> <path class="st2" d="M853.6,438.7c0.9,0.9,0.9,0.9-0.4,0.9c-0.6,0-0.9,0.1-1.1,0.2c0.9,2.6,1.7,5.3,2.4,7.7 c0.4-3.8,1.1-7.3,1.9-10.6c-0.9,0.4-1.9,0.7-2.5,0.7C852.7,437.7,852.6,437.8,853.6,438.7z"/> <path class="st2" d="M781.6,481c0.3-1,0.6-2.1,0.8-3.1c-0.6,0.1-1.1,0.1-1.6,0.1c-0.2,0-0.4,0-0.5,0c0.2,1,0.4,2.1,0.5,3.2 C781,481.1,781.3,481.1,781.6,481z"/> <path class="st2" d="M845.7,441.1c-0.7-1.2-0.8-1.2-0.8-0.2c0,0.6-0.2,1.1-0.4,1.1c-1.6,0.2-2.5,0.3-3.1,0.1c0.1,0.5,0.3,1,0.4,1.4 c0.9,0,1.6,0.2,1.6,0.3c0,0.5-0.5,0.9-1.1,1.3c0.2,0.6,0.3,1.3,0.5,1.9c0.8,0.1,1.6,0.1,2.6,0.2c0.4-1.8,0.7-3.6,1.1-5.4 C846.1,441.7,845.9,441.4,845.7,441.1z"/> <path class="st2" d="M802.8,359l0.9,1.6c0.2,0.2,0.5,0.5,0.8,0.8c1.6,1.6,1.8,1.6,2.3,0.8c0.3-0.5,0.8-0.9,1.1-0.9 c0.6,0,2.3,2.6,2.7,4.2c0.3,1.2,5.1,4.9,5.8,4.5c0.2-0.1,0.3-1.4,0.2-2.8c0-1,0-1.8,0.1-2.3l-1.3-0.9l-5-1.5l-1-1.2 c-0.3-0.1-0.5-0.2-0.5-0.4c0,0,0-0.1,0-0.1l-1.5-1.7H802.8z"/> <path class="st2" d="M834.2,439.1c-0.3,0-0.3,0.2-0.1,0.5c0.3,0.4-0.2,0.4-1.4,0.2c-1.3-0.2-1.7-0.2-1.5,0.2c0.2,0.5,1.6,1.3,3,1.8 c0.2-0.8,0.3-1.6,0.5-2.4C834.6,439.3,834.4,439.1,834.2,439.1z"/> <path class="st2" d="M786.4,420.8c-0.3,0-0.6,0.2-0.6,0.5c0,0.6,0.4,0.6,0.8,0C786.8,421.1,786.7,420.8,786.4,420.8z"/> <path class="st2" d="M802.4,380c-0.5,0-0.7,0.2-0.5,0.5c0.4,0.6,1.3,0.6,1.3,0C803.2,380.2,802.9,380,802.4,380z"/> <path class="st2" d="M820.6,369.1c-0.7,1.6-0.3,1.9,0.9,0.7c0.3-0.3,0.7-0.6,1.1-0.8l-1.1-0.8C821,368.5,820.7,368.8,820.6,369.1z"/> <path class="st2" d="M815,391.9c0.6-0.5,0.4-4.4-0.2-4.4c-0.3,0-0.5,1.1-0.5,2.3C814.3,392.3,814.4,392.5,815,391.9z"/> <path class="st2" d="M773.1,449c-0.2,0-0.4,0-0.6,0.1c-0.4,0.1-0.3,0.3,0.3,0.3c0.6,0,0.9-0.1,0.7-0.2 C773.5,449.1,773.3,449,773.1,449z"/> <path class="st2" d="M772.9,460.7c-0.3,0-0.9,0.2-1.3,0.5c-0.4,0.3-0.6,0.5-0.3,0.5c0.3,0,0.9-0.2,1.3-0.5 C773,461,773.2,460.8,772.9,460.7C773,460.7,772.9,460.7,772.9,460.7z"/> <path class="st2" d="M786.9,446.9c0-0.2-1-0.4-1.9-0.4c-0.6,0-1.2,0.1-1.5,0.2c-0.7,0.3-0.4,0.4,1.2,0.4 C785.9,447.1,786.9,447,786.9,446.9z"/> <path class="st2" d="M810.5,371.9l0.4,0.4c1.3,0.9,2.9,1.7,3.4,1.7c0.6,0,1,0.2,1,0.4s0.3,0.4,0.6,0.4c0.3,0,0.5-0.5,0.4-1.1 c-0.1-0.9-0.4-1-2.2-0.9c-1.5,0.1-2,0-2-0.6c0-0.4-0.4-0.7-0.8-0.7c-0.4,0-0.8-0.3-0.8-0.7c0-0.3-0.2-0.5-0.6-0.5v0 c-0.1,0-0.3,0-0.4,0.1c-0.1,0-0.1,0-0.1,0L810.5,371.9z"/> <path class="st2" d="M814.9,377.7c-0.7,0.3-1.8,0.4-2.5,0.2c-0.7-0.2-1.3-0.1-1.3,0.2c0,0.3,0.2,0.5,0.5,0.5s0.8,0.1,1.2,0.2 c0.4,0.1,1.3-0.2,2-0.7l1.3-1L814.9,377.7z"/> <path class="st2" d="M810.4,378.3c-0.1,0-0.3,0.1-0.5,0.3c-0.6,0.4-0.8,0.4-0.8,0c0-0.3-0.3-0.4-0.6-0.2c-0.4,0.2-0.3,0.5,0.4,1 c1.4,0.9,1.8,0.8,1.8-0.4C810.6,378.5,810.6,378.3,810.4,378.3z"/> <path class="st2" d="M814.7,395.7c0-0.6,0-0.9-0.1-1c0,0-0.1,0-0.1,0.1c-0.1,0.3-0.2,1,0,1.4C814.6,396.8,814.7,396.5,814.7,395.7z"/> <path class="st3" d="M556.8,456.5c0.1-0.6,0.1-1.3,0-1.7c0-0.1-0.1-0.1-0.1-0.1c-0.1,0-0.1,0.5-0.1,1.2 C556.6,456.7,556.7,457,556.8,456.5z"/> <path class="st3" d="M588,517.9c0.3,0,0.6,0,0.8,0c0.1-0.2,0.2-0.3,0.2-0.5c-0.4-0.1-0.8-0.1-1.3-0.1c-1,0-2,0.2-2,0.5 C585.7,517.8,586.7,517.9,588,517.9z"/> <path class="st3" d="M570,437.3c0.2-0.3-0.1-0.6-0.5-0.6c-0.5,0-0.8,0.3-0.8,0.6C568.6,438,569.5,438,570,437.3z"/> <path class="st3" d="M557,448.7c0-1.6-0.2-2.8-0.6-2.8v0c-0.6,0-0.8,4.7-0.2,5.3C556.9,451.8,557,451.5,557,448.7z"/> <path class="st3" d="M561.7,435c-0.3-0.2-0.4-0.4-0.6-0.4c-0.2,0-0.3,0.2-0.3,0.9c0,1.4,0.5,1.5,1.9,0.4c0.7-0.5,0.8-0.9,0.4-1.2 c-0.3-0.2-0.6-0.1-0.6,0.3C562.5,435.6,562.3,435.6,561.7,435z"/> <path class="st3" d="M559,434.2c-0.7,0.2-1.9,0.1-2.6-0.3l-1.3-0.7l0,0l1.3,1.2c0.7,0.7,1.7,1.1,2.1,0.9c0.4-0.2,1-0.3,1.3-0.3 c0.3,0,0.5-0.3,0.5-0.6C560.3,434.1,559.7,434,559,434.2z"/> <path class="st3" d="M528.2,517.8c0.2-0.6,0.4-1.2,0.6-1.8c-1.1-0.3-2.2-1.2-2.2-2c0-0.2,1.1-0.4,2.6-0.4c0.1,0,0.3,0,0.4,0 c0.2-0.8,0.5-1.7,0.6-2.6c0.3,0.8,0.6,1.7,0.9,2.5c0.5-0.1,0.8-0.3,0.9-0.5c0.1-0.4,0.9-0.7,1.7-0.7c1.7,0,5.2-1.8,5.5-2.8 c0.2-0.5-0.2-0.6-1.6-0.3c-1.3,0.3-1.7,0.2-1.4-0.2c0.2-0.3,0.2-0.6-0.1-0.6s-0.7,0.6-0.9,1.4c-0.4,1.8-1.4,1.9-1.4,0.1 c0-1.3,0-1.3-1.1,0.1l-1.1,1.4l-0.5-1.4l-0.5-1.3l-0.7,1.7c-0.7,1.7-1.2,1.9-4.6,1.3c-0.2,0-0.4-0.6-0.4-1.3c0-1.2-0.1-1.2-0.8,0.3 c-0.8,1.6-2.2,1.6-1.7,0.1c0.2-0.7-0.1-0.9-1.7-0.9c1.2,2.9,1.8,5.6,2.3,8.3C525.2,518,526.9,517.9,528.2,517.8z"/> <path class="st3" d="M553.4,407.6c-0.2,2.4-0.2,2.7,0.5,1.8c0.4-0.5,0.9-0.8,1.1-0.6c0.2,0.2,0.4,0,0.4-0.5c0-0.6,0.4-1.6,1-2.6 l-2.1-1C553.7,405.5,553.5,406.4,553.4,407.6z"/> <path class="st3" d="M593.9,525c-0.2-0.2-0.4-0.4-0.6-0.5c0.5,1.3,0.9,2.5,1.3,3.9c0.6,0.2,1,0.3,1.5,0.4c0.1-1.1,0.3-2.1,0.5-3 C595.3,525.8,594.6,525.6,593.9,525z"/> <path class="st3" d="M586.8,486.7c0-0.3-0.3-0.6-0.6-0.6c-0.3,0-0.4,0.3-0.2,0.6C586.4,487.4,586.8,487.4,586.8,486.7z"/> <path class="st3" d="M491,513c1.9-8.7,2.6-15.8,5.5-26.1c4.3,11.7,4.7,21,7,31.5c1.9-7.3,1.7-12,5.8-21.9c1.3,2.2,2,4.7,2.6,7.3 c0.1,0,0.2,0,0.3,0c0.5,0.1,1.2,0,1.5,0c0.3-0.1,1.2-0.2,1.9-0.2c1,0,1.4-0.4,1.6-1.3c0.1-1.1,0.5-1.3,1.9-1.2 c1,0.1,2.1-0.1,2.5-0.3c0.4-0.3,1.7-0.4,2.9-0.4c1.2,0,2.3-0.2,2.5-0.5c0.2-0.3,0.7-0.5,1.2-0.5c0.5,0,1.2-0.4,1.7-0.9 c0.5-0.5,1.3-0.9,1.9-0.9c1,0,1-0.1,0.2-1.3c-1.4-2-1.1-2.9,0.8-2.6c1.8,0.3,2.2-0.4,0.7-1.2c-1.3-0.7-2.3-0.3-4.1,1.7 c-1.5,1.6-2.6,2.1-2.6,1.1c0-0.3-0.5-0.4-1.1-0.2c-0.9,0.2-1,0.1-0.7-0.7c0.3-0.8,0.2-0.9-0.8-0.7c-1,0.3-1.2,0.1-1.2-1.1 c0-1.1-0.2-1.3-0.9-0.9c-1.3,0.8-3.1,0.1-2.8-1c0.2-0.7-0.3-1.2-1.6-1.7c-2.7-1-2.4-2,0.6-1.5c2,0.3,2.4,0.2,2.2-0.5 c-0.4-1.1,1.3-1.1,2.4,0c1,1,3.6,1,6.2,0.1c2-0.8,1.5-1.9-0.6-1.2c-1.4,0.5-2.3-0.8-1.4-2c0.5-0.6,0.4-0.6-0.7,0.1 c-1.5,1.1-3.5,0.4-3-1c0.3-0.8-0.3-1.1-1.9-0.9c-0.5,0.1-0.6-0.3-0.4-0.9c0.2-0.7-0.2-1.3-1.5-2.1c-1.7-1-1.7-1.1-0.7-1.8 c0.7-0.5,1.3-0.6,1.6-0.2c0.3,0.3,1.3,0.6,2.1,0.6c1.3,0,1.5-0.2,1.2-1.1c-0.5-1.6,0.4-1.8,2.2-0.6c2,1.3,3.2,1.4,8,0.2 c2.3-0.6,4.2-1.4,4.8-2.1l1-1.2l-1.3,1.1c-1.2,1.1-1.3,1.1-2,0.1c-0.4-0.5-1.1-1-1.6-1c-0.5,0-0.9-0.4-0.9-0.8 c0-0.4-0.4-0.9-0.8-1.1c-0.5-0.2-1.1-1-1.4-1.8c-0.3-0.8-0.8-1.3-1.1-1.1c-0.3,0.2-0.6-0.1-0.6-0.6c0-0.8-0.2-0.7-1.1,0.4 c-1,1.3-1.1,1.3-1.1,0.2c0-0.9-0.4-1.2-1.5-1.1c-0.9,0-1.5-0.2-1.4-0.7c0.1-0.7-0.6-1-1.7-0.8c-0.3,0.1-0.9,0-1.3-0.2 c-0.6-0.3-0.7-0.5-0.1-1.2c0.6-0.7,0.5-0.8-0.2-0.8c-1.3,0-4.2-1.6-4.2-2.4c0-0.4,0.7-0.5,2.1-0.2c4.2,0.8,4.5,0.8,4-0.3 c-0.7-1.4-0.7-1.6,0.3-1.6c0.4,0,1.5,0.6,2.4,1.4c2,1.8,2.1,1.7,2.4-0.1c0.2-1,0-1.6-0.8-2.1c-1.4-0.9-1.3-1.7,0.1-1.4 c0.6,0.2,1,0.1,0.8-0.2c-0.2-0.3,0.6-0.5,1.6-0.4c1.1,0,2.1,0.4,2.2,0.9c0.2,0.6,0.4,0.7,1.1,0.1c1.1-1.1-0.6-3.4-1.9-2.7 c-1.4,0.8-1.7,0.6-1.4-0.5c0.2-0.9,0-1-1.1-0.8s-1.3,0.1-1-0.7c0.3-0.8,0.1-1-0.9-0.9c-2.1,0.2-2.3,0-1.3-1.1 c0.9-1.1,0.9-1.1-0.2-0.8c-0.9,0.2-1.2,0-1.2-0.8c0-1.1,1.8-2.1,2.4-1.4c0.2,0.2,1,0.3,1.9,0.4c1.3,0,1.6-0.1,1.3-0.9 c-0.4-1.2,0.3-1.3,2.3-0.2c0.8,0.5,1.8,0.7,2,0.5c0.3-0.2,0.9,0,1.4,0.4c0.8,0.7,0.9,0.6,0-0.4c-1.1-1.4-1.3-2.5-0.3-2.3 c0.4,0.1,1.9,0.7,3.3,1.5l2.7,1.4l3.4-1.8c1.9-1,4.3-2.7,5.4-3.7c1.6-1.5,1.9-2.1,1.6-3.2c-0.3-1.2-0.4-1.3-0.4-0.2 c-0.1,1.9-3,4-5.2,3.7c-0.6-0.1-1.3,0.2-1.5,0.6c-0.4,0.6-0.5,0.6-0.9,0c-0.4-0.6-0.7-0.4-1.4,0.7c-1.1,1.8-2.2,1.9-1.8,0.3 c0.3-1.1,0.3-1.1-0.7-0.2c-1,1-2.7,0.8-2.7-0.3c0-0.3,0.5-0.9,1.2-1.2c1.4-0.8,2.6-1.9,2.6-2.5c0-0.2-0.5,0.1-1.2,0.7 c-0.6,0.6-1.4,1.1-1.8,1.2c-1.3,0.1-3.1,0.9-3.1,1.4c0,0.3-0.4,0.3-0.8,0.2c-0.4-0.2-0.7-0.6-0.5-1c0.1-0.4-0.1-0.9-0.6-1.1 c-1.1-0.4-0.6-1.4,1.3-2.2c1.2-0.5,1.3-0.7,0.5-0.9c-0.5-0.1-1.5,0.4-2.2,1.2c-1.5,1.7-3.9,2.2-4.2,0.8c-0.1-0.6,0.4-1.3,1.4-1.9 l1.6-0.9l-2.2,0.3c-3.2,0.5-7.7-1.6-5.9-2.8c0.2-0.2,1.7-0.4,3.3-0.5c1.8-0.1,2.6-0.4,2.3-0.7c-0.9-0.9-0.6-2,0.5-2 c0.6,0,1.4,0.3,1.8,0.7c1.4,1.4,4.6,3.1,6.5,3.5l1.9,0.4l-1.5-0.9c-0.8-0.5-1.5-1.1-1.5-1.4c0-1.2,1.8-1,4.2,0.6 c2.4,1.6,3,1.7,6.6,1.5c2.2-0.1,4.2-0.4,4.4-0.6c0.2-0.2,0.1-1.1-0.3-2l-0.7-1.6l-0.7,1.4c-0.5,1-0.8,1.1-1,0.6 c-0.2-0.5-0.3-0.6-0.3-0.1c0,0.4-0.5,0.7-1.2,0.7c-0.9,0-1.1-0.3-0.8-1.6c0.2-0.9,0.1-1.3-0.1-1c-0.7,0.9-2.1,1.3-3,0.8 c-0.6-0.4-0.5-0.7,0.6-1.6l1.4-1.2l-1.2,0c-0.7,0-1.2,0.2-1.2,0.5c0,0.3-0.5,0.6-1.1,0.6c-0.6,0-1.1-0.2-1.1-0.5c0-0.8-2-1.1-3-0.5 c-0.6,0.4-1.2,0.3-1.7-0.1c-1.4-1.2-0.9-2.1,1.5-2.5l2.3-0.4l-1.3-1c-1-0.8-1.1-1.1-0.5-1.3c0.6-0.2,0.5-0.3-0.2-0.4 c-0.5,0-1-0.3-1-0.6s-0.2-0.5-0.5-0.3c-0.8,0.5-2.2-0.3-1.9-1.1c0.2-0.4,0.9-0.9,1.8-1l1.5-0.2l-1.6-0.9c-1.6-0.9-2.3-3.1-1.2-3.5 c0.3-0.1,2.1,0.8,3.9,2c3.7,2.5,4.1,2.6,4.5,1.3c0.2-0.6,0.7-0.8,1.5-0.6c0.9,0.2,0.7-0.1-0.6-1.1c-1-0.8-1.8-1.9-1.8-2.5 c0-1.3,0.4-1.3,2.2-0.2c1.9,1.1,2,1.1,1.9-0.7c-0.1-2.1-0.1-2.2-0.9-1.4c-1,1-2.5,0.8-2.8-0.4c-0.2-0.7,0.1-1.2,0.8-1.4 c1.4-0.4,1.3-0.9-0.8-3.4c-1.8-2.1-2.1-3.7-0.6-3.7c0.4,0,1,0.3,1.4,0.7c1.1,1.1,2.7,1.6,2.4,0.8c-0.1-0.4,0-1,0.3-1.5 c0.9-1.4,2.3,0.4,2.3,2.9c0,1.2,0.2,2.2,0.6,2.2c0.3,0,0.6,0.4,0.6,0.8c0,0.4,0.2,1,0.6,1.2c0.4,0.2,0.5-0.7,0.5-2.8 c-0.1-2.8-0.4-3.5-2.2-5.6c-0.2-0.2-0.3-0.4-0.5-0.6l-5.9-0.5l-10.5,0.4l-12.8,3.7l-14.5,0.7l-14.4,7.1l-6-1.2l-15-8.1 c-0.4,5.5-0.7,11-0.7,16.6c0,21.4,3.3,42,9.4,61.4c1.2-5.4,2.6-10.9,4.8-17.3C486.9,484,488.2,497.1,491,513z"/> <path class="st3" d="M545.4,457.2c0-0.7-0.9-0.7-1.4,0c-0.2,0.3-0.7,0.6-1.2,0.6s-0.7-0.2-0.5-0.5c0.7-1.1-0.6-1.1-1.6,0 c-1,1.2-2.9,1-4-0.4c-0.4-0.5-0.8-0.7-1.2-0.8l0,0c-0.4,0-0.7,0.2-0.7,0.6c0,0.3,0.3,1.1,0.6,1.8c0.5,1,1,1.1,3.7,0.9 c1.7-0.2,3.8-0.6,4.7-0.9C544.7,458,545.4,457.5,545.4,457.2z"/> <path class="st3" d="M540.1,493c-0.8,0-4.6,1.6-4.6,2c0,0.6,1.2,0.3,3.2-0.9C539.8,493.5,540.4,493,540.1,493z"/> <path class="st3" d="M555.3,430.5c0.3,0,0.6-0.2,0.6-0.5s0.5-0.5,1-0.5c0.6,0,2.2-1,3.6-2.1c2.1-1.7,2.3-2,1.4-2.3 c-0.2,0-0.3-0.1-0.5-0.1v0c-0.4,0-0.6,0.2-0.6,0.6c0,0.4-0.4,0.8-0.8,0.8c-0.5,0-0.8,0.4-0.8,0.9c0,0.7-0.5,0.9-2.1,0.7 c-1.8-0.2-2.1,0-2.3,1.1C554.8,429.9,555,430.5,555.3,430.5z"/> <path class="st3" d="M547.1,456.9c0.3-0.2,0.6-0.5,0.6-0.6c0-0.1-0.2-0.2-0.6-0.2c-0.3,0-0.6,0.3-0.6,0.6 C546.5,457,546.8,457.1,547.1,456.9z"/> <path class="st3" d="M518.5,510.3c-1.1,0.3-1.3,0.1-1.1-0.5c0.2-0.7,0-0.9-1.1-0.9c-1.4,0-1.4,0-0.4-1.1c1-1.1,0.9-1.1-0.3-1.1 c-0.9,0-2.5-0.7-3.5-1.4c0.8,4.2,1.1,8.7,2.1,12.8C515.1,515.4,517.1,512.8,518.5,510.3z"/> <path class="st3" d="M546.4,420.5L546.4,420.5c-0.2,0-0.3,0-0.3,0.1c-0.4,0.3,1.1,2.5,1.7,2.5c0.4,0,1.1,0.5,1.7,1.2 c1.2,1.5,1.6,1.1,0.9-0.8C550,422.4,547.4,420.6,546.4,420.5z"/> <path class="st3" d="M547.7,412.2L547.7,412.2c-0.1,0-0.1,0-0.1,0.1c0,0.4,0.4,1.2,0.8,1.7c0.4,0.5,0.9,1.4,1,2 c0.3,1.3,1,3.1,1.3,3.1c0.1,0,0.2-0.9,0.2-1.9c0-1.3-0.5-2.5-1.7-3.8C548.6,412.7,548,412.2,547.7,412.2z"/> <path class="st3" d="M552,454.3c0.3,0,0.6-0.3,0.6-0.6c0-0.2-0.1-0.4-0.3-0.3v0c-0.1,0-0.1,0-0.2,0.1 C551.3,453.9,551.3,454.3,552,454.3z"/> <path class="st3" d="M549.8,455.8c0.3-0.2,0.6-0.5,0.6-0.6s-0.2-0.2-0.6-0.2c-0.3,0-0.6,0.3-0.6,0.6S549.5,456,549.8,455.8z"/> <path class="st3" d="M613.4,497.3c3.1,5,3.5,11.9,5.3,17.8c1.6-6.5,3.2-13,4.8-19.5c3.6,5.2,5,11.6,7.5,17.4 c2.5-8.4,5-16.6,7.6-24.9c3.3,7.1,6.6,14.2,9.9,21.2c1.4-6.1,1.3-11,4.2-18.4c0.9,2.4,2.4,3.7,3.2,6c1.2,3.5,1.9,8.3,3.1,11.7 c1.2-8.9-1-14.7,3.8-26.5c3.2,6.8,4.6,9.3,5.4,17c1.2-4,1.9-9,3.6-12.2c3,5.3,2.6,10.9,3.9,16.4c2.4-11.4,3.2-15.2,4.8-22.8 c4.9,6.6,5,17.1,7.6,24c1.3-5,2.1-13.2,5.3-19.7c3.1,3.2,2.4,10.9,4.2,15.4c2.2-8.3,2.6-15,6.9-24c3.7,4.9,4.1,10.9,6.4,16.7 c0.6-7.9,2.8-12.3,4.3-18.3l-8.1-2.2l-7-2.5l-16.3,1l-12.7-6.8l-10.2-11l-19.2-12.3l-12.8-3.3l-21.7-0.8l-6.8-5.8 c-0.9,0.7-1.9,1.6-3.1,2.7c-3.8-3.8-5.4-4.9-11.7-4.6c2.5-3.9,5.8-4.1,11-1.3l-11.3-9.6l-9-4.5l-11.8-4.6c0,0,0,0.1,0,0.1 c-0.2,0.7-2.7,0.8-5.5,0.2c-1.6-0.3-2.7,0.5-1.1,0.9c0.5,0.1,1.1,0.2,1.3,0.2c0.5-0.1,3.2,2.6,3.2,3.1c0,0.7-2.2,1-2.6,0.4 c-0.2-0.4-0.7-0.1-1.3,0.7c-1.1,1.5-2.4,1-1.9-0.6c0.3-0.9,0.1-1-1.2-0.6c-1.3,0.4-1.6,0.8-1.7,2.5c-0.1,1.2,0,2.1,0.3,2.1 c0.3,0,0.4,1.4,0.4,3.1c-0.1,1.7,0,3.2,0.3,3.4c0.8,0.5,5.8-4,6.1-5.4c0.4-1.9,2.1-5.1,2.8-5.1c0.3,0,0.8,0.5,1.2,1 c0.6,1,0.8,0.9,2.4-1c1.4-1.6,2-1.9,2.5-1.3c0.5,0.5,0.4,1.1-0.7,2.6l-1.4,1.9h1.9c2.4,0,2.8,0.9,1,2c-0.8,0.4-1.3,0.9-1.1,1.2 c0.1,0.2-0.1,0.6-0.6,0.7c-1.2,0.5-1,1.5,0.2,1.5c1.6,0,2.8,0.6,2.8,1.5c0,0.4-0.5,0.8-1.1,0.8c-0.6,0-1.1,0.3-1.1,0.6 s-0.2,0.4-0.5,0.3c-0.3-0.2-0.7,0.2-0.9,0.9c-0.3,1.1-0.4,1.1-1.7,0.3c-1.2-0.8-1.4-0.8-1.9,0.2c-0.8,1.6-0.8,1.6,1.9,1.9 c1.4,0.2,2.7,0.4,2.9,0.6c0.5,0.5-1.6,2-2.8,2c-0.8,0-0.9,0.2-0.4,0.8c0.6,0.7,0.4,0.9-0.8,1.2c-0.8,0.2-1.4,0.6-1.4,0.9 c0,0.6,2.2,0.1,3-0.7c0.9-0.8,3.6-0.6,3.6,0.3c0,0.4-0.3,0.9-0.7,1c-1,0.4,1.8,1.7,3.7,1.8c0.9,0,1.6,0.3,1.6,0.7 c-0.1,0.4,0.6,1,1.5,1.3c0.9,0.4,1.6,0.9,1.6,1.1c0,0.6-2.2,1.7-3.7,1.9c-0.7,0.1-1.4,0.4-1.6,0.6c-0.2,0.2-0.9-0.2-1.4-0.9 c-0.6-0.7-0.9-1-0.7-0.6c0.2,0.4,0.1,0.7-0.2,0.7s-0.6,0.5-0.6,1.1c0,0.6-0.2,1.2-0.5,1.4c-0.7,0.4-3.9-2.4-3.9-3.4 c0-0.4-0.2-0.8-0.6-0.8c-0.3,0-0.6,0.3-0.6,0.6s-0.2,0.4-0.6,0.2c-0.7-0.5-0.7,0.1,0,1.5c0.5,0.9,0.4,1.1-0.7,1.1 c-1.4,0-2.9-1.4-3.3-3.1c-0.2-0.9-0.3-0.8-0.3,0.4c0,0.8-0.4,1.8-0.8,2.1c-0.6,0.5-1,0.3-2-1c-0.7-0.9-1.1-2-1.1-2.4 c0.2-1.6-0.1-2.8-0.5-2.5c-0.8,0.5,0.4,5,1.6,6.2c0.8,0.8,1.7,1.1,3.6,1c1.9-0.1,2.5,0,2.5,0.7c0,0.5-0.4,1.1-0.9,1.4 c-0.8,0.4-0.5,0.7,1.3,1.2c2,0.6,2.5,0.6,4.5-0.5c1.2-0.7,2.4-1.5,2.6-1.8c0.6-1,1.5-0.6,1.2,0.5c-0.2,1-0.1,1,1.1,0.6 c1.8-0.7,2-0.7,1.6,0.3c-0.2,0.5,0,0.9,0.6,0.9c0.5,0,0.8,0.3,0.6,0.9c-0.4,1.1,0.1,1.1,2.9-0.3c2.3-1.1,4.3-1.1,3.6,0 c-0.2,0.4,0.6,0.6,2.1,0.6c2.7,0,3.6,0.7,2.4,2c-0.5,0.5-1.6,0.7-2.9,0.6c-2.1-0.2-2.1-0.2-0.8,0.6c0.8,0.4,1.1,0.8,0.7,0.8 c-0.4,0-1.4,0.3-2.2,0.6c-1.5,0.6-1.5,0.6-0.5,1.4c1,0.8,1,0.8-0.4,0.8c-0.8,0-1.6-0.3-1.8-0.6c-0.2-0.3-0.5-0.4-0.8-0.3 c-0.3,0.2-0.6-0.1-0.8-0.6c-0.2-0.5-0.8-0.8-1.3-0.8c-0.7,0-0.6,0.4,0.8,1.6c1,0.9,1.8,1.7,1.8,2c0,0.9-3.1,0.1-4-1.1 c-1.3-1.7-2.6-1.1-2.2,1c0.3,1.4,0.2,1.6-0.9,1.6c-0.7,0-1.8-0.7-2.5-1.5c-1.1-1.4-1.3-1.4-1-0.3c0.2,1,0.1,1.2-0.8,1.1 c-0.6,0-1.3-0.5-1.4-1c-0.1-0.5-0.9-0.9-1.6-1c-1.2-0.1-1.3,0.1-0.8,1c0.8,1.6,3.5,3.2,7.6,4.4c3.9,1.2,4.3,1.1,7.7-1.8 c1.7-1.5,3.2-1.7,1.8-0.3c-0.9,1-0.8,1.7,0.3,1.3c0.8-0.3,0.8-0.2,0.2,0.5c-1.1,1.4,0.3,1.1,2.6-0.5c2.1-1.5,3-1.5,1.8,0 c-0.6,0.8-0.5,0.9,0.6,0.8c0.7-0.1,2.1-0.1,3,0l1.7,0.1l-1.3,1.1c-0.7,0.6-1.7,1.1-2.3,1.1c-1.3,0-1.8,0.6-1.1,1.5 c0.3,0.4,0.5,0.8,0.4,0.8c-2.1,0.4-2.7,0.4-3.5-0.6c-0.5-0.6-1.2-1-1.5-0.8s-0.1,0.8,0.4,1.4c0.9,1,0.9,1.1,0,1.1 c-0.8,0-0.9,0.1-0.3,0.9c1,1.2,0.4,1.6-1.4,0.9c-1.5-0.6-1.5-0.5-1.2,0.9c0.2,0.8,0.2,1.3-0.1,1.2c-0.3-0.2-0.8,0.2-1.2,0.8 c-0.6,0.9-1,1-1.9,0.4c-0.6-0.3-1.3-0.5-1.4-0.4c-0.1,0.1-0.4-0.4-0.6-1.2c-0.4-1.3-0.4-1.4-0.4-0.1c0,0.7-0.3,1.3-0.7,1.3 c-0.8,0-2.9-1.2-3.4-1.9c-0.2-0.3-0.4,0.1-0.4,1c0,1.6,0,1.6-1.4,0.7c-0.8-0.5-1.6-0.8-1.9-0.6c-0.3,0.2-0.8-0.1-1.1-0.7 c-0.5-1-0.6-1-0.6,0c0,0.8-0.2,0.9-1.1,0.4c-1.7-0.9-2-0.7-0.5,0.4c3.8,2.9,9.7,5.2,13.1,5.2c1,0,2.7-0.5,3.7-1.2 c1-0.7,1.9-1.1,1.9-1c0.5,2.2,0.4,2.6-0.7,3.1c-0.9,0.4-0.6,0.5,1.5,0.5c1.6,0,3.3-0.4,4-1c1.6-1.2,3.2-0.8,2.2,0.5 c-0.6,0.8-0.5,0.8,0.8,0.5c0.9-0.2,1.5-0.1,1.5,0.2c0,0.3,0.9,0.7,2,0.9l2,0.4l-1.6,1.4c-0.9,0.8-2.4,1.7-3.3,2.2 c-1,0.5-1.3,0.8-0.7,0.8c1.5,0,1.1,1.1-0.4,1.5c-1.3,0.3-1.3,0.4-0.5,1.3c0.8,0.9,0.8,1-0.4,1.4c-0.7,0.2-1.5,0.4-1.8,0.3 c-2.2-0.5-5.4-0.5-4.8-0.1c0.4,0.3,0.6,0.8,0.4,1.2c-0.3,0.5-0.9,0.3-2.3-0.5l-1.9-1.1v1.2c0,1-0.2,1.1-1.2,0.8 c-0.7-0.2-2.1-0.4-3.1-0.4c-1.1,0-1.9-0.2-2.1-0.8c-0.2-0.5-0.6-0.9-0.9-0.9c-0.4,0-0.4,0.2,0.1,0.7c0.4,0.4,0.7,1.1,0.7,1.6 c0,2.5,9.1,4.7,12.5,3.1c0.9-0.5,2.2-1.3,2.9-2c1.3-1.2,1.8-0.2,0.5,1.1c-0.9,0.9,0.3,1,1.8,0.1c1.6-0.9,1.3,0-0.4,1.6l-1.5,1.3 l1.4-0.4c0.8-0.2,2-0.4,2.8-0.5c0.8-0.1,1.7-0.3,2.2-0.6c0.5-0.3,0.7-0.2,0.4,0.5c-0.3,0.8-0.1,0.9,1,0.6c1.4-0.4,2,0.5,0.7,1.1 c-0.4,0.2-0.1,0.2,0.7,0c0.9-0.2,1.7,0,2.1,0.6c0.5,0.6,0.5,0.9,0.1,0.9c-0.3,0-0.5,0.3-0.5,0.7c0.1,0.4-0.5,0.7-1.8,0.6 c-1.1,0-1.4,0.1-0.7,0.2c1.8,0.4,1.5,1.3-0.4,1.3c-1.7,0-3.2,1.3-2.6,2.2c0.6,1-0.5,1.2-3.6,0.7l-2.9-0.5l1.8,1.5 c2.1,1.8,2.2,2.4,0.4,2.4c-0.8,0-1.4,0.3-1.4,0.6c0,0.4-0.5,0.5-1.1,0.3c-0.6-0.2-1.1-0.1-1.1,0.2c0,0.6-1.7,0-2.9-1 c-0.8-0.7-0.9-0.7-0.6,0.4c0.2,1,0,1.2-1,1.2c-1.1,0-1.1,0.2,0.6,1c2.4,1.2,13.9,1.3,15.8,0.2c1.1-0.6,1.2-0.6,0.9,0.2 c-0.2,0.5-0.9,1.1-1.5,1.4c-0.9,0.4-1,0.5-0.2,0.5c0.5,0,1,0.3,1,0.6c0,0.6-1.1,0.8-3,0.6c-0.9-0.1-0.8,0.1,0.6,1.3 c2,1.6,1.5,2.5-0.9,1.6c-0.9-0.4-2-0.5-2.5-0.3c-0.5,0.2-0.6,0.4-0.1,1.1c0.1-0.2,0.1-0.4,0.2-0.5c0.2,0.4,0.3,0.9,0.5,1.3 c1.5,1.5,3.8,1.6,8.8,0.1c0.2-0.6,0.4-1.3,0.5-2.1c0.6,0.4,1.1,0.9,1.5,1.4c0.2-0.1,0.4-0.1,0.7-0.2c2.9-1,3.3-0.5,1.3,1.4 c-0.4,0.4-0.6,0.6-0.8,0.8c0.2,0.5,0.5,1,0.7,1.6c0.2,0.2,0.2,0.3,0.2,0.5c0.7,1.9,1.4,3.9,2.3,5.5 C608.1,516.3,608.6,508.7,613.4,497.3z"/> <path class="st3" d="M732.2,485.4l0.4-3.1l0.3,1.1c0.5-1.2,1-2.3,1.6-3.3l-1.2-0.7c-0.7,0.5-1.4,0.8-2.2,1.1 C731.5,482.1,731.8,483.7,732.2,485.4z"/> <path class="st3" d="M731.3,478.1l-0.5-0.3c0,0.1,0,0.2,0.1,0.3L731.3,478.1z"/> <path class="st3" d="M723.1,484c-0.8-0.4-1.7-0.7-2.5-0.7l1.1-0.8c0.2-0.2,0.3-0.2,0.3-0.2c0,0-0.1-0.1-0.2-0.2v-2.5 c0.7-1.2,0.3-0.4,0.4-1.2l1-0.2c-0.2,2-0.1,3.1,0.3,3.9c0.3-1.9,0.7-3.8,1.1-5.7l-5.7-0.9l-3.2-0.9c2.2,4.3,4.9,8.1,6.2,14.8 C722.4,487.9,722.7,486,723.1,484z"/> <polygon class="st3" points="580.8,366.7 584.8,370 590.1,374.2 597.1,379.9 602.3,382.7 607.6,387 613.6,390.9 618.3,393.5 622.6,392 619.8,390.4 618.5,387.7 616.3,383.2 620,382.4 625.1,388 632.4,393.8 637,394.5 644.3,398.3 654.5,402.2 652.6,397.7 642.3,390.3 634.8,382.7 622.6,373.2 612.6,368.7 603.8,364.7 597.3,360.5 590.3,360.5 585.6,358.7 573.8,359 576.8,363.9 "/> <polygon class="st3" points="716.3,352 708.5,348.2 706.1,343.9 697.3,339.5 686.3,331 679.8,330.2 682.3,335.7 684.6,341.5 686.6,348.2 689.3,347 693,353.1 696.6,356 701.5,352.9 706.8,356 710.8,357.5 715.6,360.7 720.6,362.7 718,359 "/> <path class="st3" d="M819.8,351.7l1.4-1.3l-1.5-1.9c0,0,0,0.1,0,0.1L819.8,351.7z"/> <path class="st3" d="M815.6,363.9l1.3,0.9c0.1-0.2,0.1-0.3,0.2-0.3c0.3,0,0.4-0.8,0.3-1.7c-0.1-1.4-0.4-1.8-1.6-2.1 c-1.3-0.3-1.4-0.2-1.2,0.5c0.5,1.3-0.8,1.7-1.8,0.5c-0.5-0.6-1-0.9-1.3-0.6c-0.2,0.4-1.3,0.3-2,0.1l1,1.2L815.6,363.9z"/> <path class="st3" d="M802.7,368.3c1.2,0,1.4-0.9,0.2-1.2c-0.4-0.1-0.7-0.4-0.5-0.6c0.1-0.2-0.3-0.6-1.1-1c-1.8-0.8-1.3-1.6,0.9-1.6 h1.9l-1.3-1.6c-1-1.2-1.2-1.7-0.7-2.1c0.4-0.3,0.8-0.3,1.5,0.3l-0.9-1.6h4.8l1.5,1.7c0.3-0.6,2.6-2.5,3-2.5c0.2,0,0.8-0.1,1.3-0.2 c1.5-0.3,0.5-1-1.1-0.7c-2.6,0.5-5,0.4-5.3-0.2c-0.1-0.3,0.1-0.6,0.5-0.6c0.4,0,1.1-0.3,1.4-0.7c0.4-0.4,0.9-0.6,1.1-0.4 c0.3,0.1,0.5,0.1,0.5-0.1c0-0.2-0.7-0.8-1.6-1.3c-1.6-0.9-2-1.6-1-1.6c1,0,4.4,1.4,4.9,2c0.3,0.3,0.3,0.2,0.1-0.5 c-0.2-0.6-0.1-1.1,0.2-1.3c0.6-0.3,2.7,2.7,2.7,3.8c0,0.4,0.2,0.6,0.3,0.5c0.2-0.2,0.7,0.1,1.1,0.5c0.6,0.7,0.7,0.5,0.4-1.5 c-0.2-1.9-0.7-2.8-2.6-4.8c-1.3-1.4-2.4-2.8-2.4-3.2c0-1.1,2.6-0.4,3.2,0.9c0.9,2,1.8,1.3,1.6-1.2c-0.1-0.8-0.1-1.4,0-1.9l-0.3-0.3 l-20.7-17.5l-21.7-16.2l-16.1-9.5l-2.4-3.5l-7.1-1.7l1,3.5l4,5.5l3.7,5.5l8.7,10l4.5,5l1.7,5.8l-0.7,7.1l2.7,6.2l4.5,4.2l3.5,4.5 l7.3,9.7l7.3,3.7l2.5,1.7C800.2,368.8,801.3,368.3,802.7,368.3z"/> <path class="st3" d="M820.2,356.8c-0.1,1.8,0.1,2.5,0.4,2.3c0.3-0.2,0.5-0.6,0.5-1c0-0.4,0.2-0.7,0.5-0.7c0.3,0,0.5-0.8,0.5-1.8 c0-2.1,1.3-3.5,2.2-2.4c0.3,0.4,0.4,0.9,0.2,1.2c-0.3,0.7,1.2,0.2,2.3-0.7c0.4-0.3,1-0.6,1.4-0.6c1.4,0,1.2,1.3-0.5,3.1 c-2.1,2.1-2.2,2.5-0.8,2.8c0.7,0.2,0.9,0.5,0.7,1.1c-0.3,1-1.7,1.2-2.7,0.3c-0.7-0.6-0.7-0.6-0.9,1.2c-0.1,1.5,0,1.5,1.8,0.6 c1.8-0.9,2.1-0.9,2.1,0.2c0,0.5-0.8,1.4-1.7,2.1c-1.3,0.9-1.4,1.1-0.6,0.9c0.7-0.2,1.2,0,1.4,0.5c0.5,1.1,0.8,1,4.3-1.1 c1.7-1,3.4-1.7,3.7-1.6c1.1,0.4,0.4,2.2-1.1,2.9l-1.5,0.7l1.4,0.1c0.8,0.1,1.5,0.4,1.7,0.8c0.1,0.3,0,0.5-0.3,0.7l5.3-0.1l7,2.7 l5.5,2.5l7.1,1.7l-9.5-8.7l-17.8-16.5l-9.8,0.9c-0.2,0.3-0.5,0.6-0.8,0.8C820.5,354,820.3,354.5,820.2,356.8z"/> <path class="st3" d="M806.9,372c-0.5-0.8-0.6-0.9-1.8-0.2c-0.6,0.4-1,0.5-1.2,0.4l1.4,1.1l0.2,0.1 C807.7,373.3,807.6,373.3,806.9,372z"/> <path class="st3" d="M809.4,370.6c-0.7,0.2-0.4,0.5,1.5,1.8c0,0,0,0,0,0l-0.4-0.4L809.4,370.6z"/> <path class="st3" d="M802.7,370.9c-0.3,0.1-0.5,0.1-0.5-0.2c0-0.3-0.4-0.5-1-0.5l1.1,0.7l1.5,1.2c-0.1-0.1-0.2-0.3-0.2-0.6 C803.3,371.1,802.9,370.8,802.7,370.9z"/> <path class="st3" d="M820.3,365.5c0.3,0,1-1.5,1.2-2.6c0.1-0.5,0.5-1.3,1-1.7c0.4-0.4,0.8-1.1,0.8-1.4c0-0.1,0-0.1-0.1-0.1l0,0 c-0.2,0-0.8,0.4-1.5,1.1c-1.1,1.1-1.6,2.1-1.6,3.1C820.1,364.8,820.2,365.5,820.3,365.5z"/> <path class="st3" d="M823.1,368.8c0.6,0,2.1-1.8,1.7-2.1c-0.1-0.1-0.2-0.1-0.3-0.1v0c-0.7,0-2.1,0.8-3,1.5l1.1,0.8 C822.8,368.9,822.9,368.8,823.1,368.8z"/> <path class="st3" d="M781.6,453.1c-0.4,0-0.9-0.2-1.2-0.5c-0.2-0.3-0.5-0.3-1,0l3.1,1.8C784.7,453.6,784.6,452.9,781.6,453.1z"/> <path class="st3" d="M705.6,408.7l65.5,38.9c-0.1-0.2-0.4-0.5-0.9-1c-1.9-1.6-1.5-2,1.2-1.2c2.6,0.7,4.5,1.2,6.1,1.4l-24.4-13.7 l-23.8-22.7c-7.6-7.3,4.1,7.1-3,4.9c-3.2-0.9-20.4-18.5-18.1-11.4c1,3.4-46.3-17.5-87.9-39.9c-0.1-0.1-0.2-0.1-0.3-0.2l0.1,0.1 l8.4,6.5L705.6,408.7z"/> <path class="st4" d="M585.7,429c6.3-0.2,7.9,0.9,11.7,4.6c1.1-1.2,2.1-2.1,3.1-2.7c3.1-2.2,5.4-2,10.6-1.3 c-2.1-6.6-9.6-3.8-14.1-1.8c-0.1,0-0.2-0.1-0.2-0.1C591.5,424.9,588.2,425.1,585.7,429z"/> <path class="st4" d="M765.9,418.3c3.7-4.4,6.6-4.9,13-4.1c-2.5-6.2-8.6-2.3-12.9-0.6c-4.4-3.6-8.8-3.4-11.2,0 C760.7,413.4,764,415,765.9,418.3z"/> <path class="st4" d="M674.9,369.8c-3.8,2.7-8.6,7.8-7.7,9.7c1.7,0.7,4.6-2.7,7.7-5.1c1,1.1,7.2,6.5,7.7,5.6 C684,377.5,676.2,370.8,674.9,369.8z"/> <path class="st5" d="M599.1,580.5c0.8-1.2,1.5-2.3,2.2-3.5c-1.2-0.2-2.4-0.4-3.6-0.4l-5.4,0.5l-1,0.3c2,1,4.1,1.8,5.8,2.4 C597.8,580.1,598.5,580.3,599.1,580.5z"/> <path class="st5" d="M592.4,577.2l3.2-0.4C594.5,576.8,593.5,576.9,592.4,577.2z"/> <path class="st5" d="M849,431.5c-0.2,0.5-0.3,1-0.5,1.5c0.3,0.1,0.7,0.1,1.1,0.1C849.4,432.6,849.2,432,849,431.5z"/> <path class="st5" d="M752.5,486.4c-1.7-8.7-1.9-19.7-3.6-28.4c-2.6,4.7-3.8,10.5-4.7,16.1c0.2,0.6,0.3,1.3,0.5,2.6l1.5-1.4 c1.3-1.2,0.5-1.3,1.7-1.9l0,1.8c-0.2,0.2-1.5,2.3-2.1,3.1c-0.8,1.1-1.7,2.3-2.5,3.2c-0.1,0-0.1,0.1-0.1,0.1 c-0.1,0.7-0.2,1.4-0.4,2.1c-0.2-0.5-0.3-1-0.5-1.5c-0.9,0.8-1.8,2-3.1,2.9c-1.3,0.9-3.8,2-4.8,2.8c-1.8,2.8,0.3,5.4,1.6,7.9l0.1-0.1 v0v0v0v0v0c0.1,0.2,0.2,0.4,0.3,0.7c0.2,0.3,0.3,0.6,0.4,0.9c0.8,0.4,4.4,2.6,6.7,3.3c2.1,0.7,2.6,0.4,4.5,0.7 c2.6,0.3,1.6,1.2,3.5,1.4c0.9,1.3,1.8,1.7,1.7,3.8l0.1,1.1c-0.7,1.1-0.9,3.3-1.2,5l-0.1,3.4c-0.7,1-0.5,2.2-0.5,3.7 c0,1.6-0.3,2.8,0.2,3.8l13.6-3.4c0.1-0.2,0.3-0.4,0.6-0.7c0.9-0.8,0.8-0.9-0.5-1.2l-1.4-0.3l1.5-1.1c2-1.5,0.9-1.5-2,0 c-1.3,0.6-2.6,1.2-3,1.2c-1.1,0-0.8-0.7,0.5-1.3c1.1-0.5,1-0.5-0.9-0.5c-1.2,0-2.6-0.3-3.2-0.7c-1-0.7-1-0.7,0.5-0.7 c2.3,0,10.3-1.3,12-1.9c2-0.7,2.4-1.9,0.4-1.2c-1.8,0.6-2.7,0.1-1.4-0.7c0.8-0.5,0.5-0.6-1.5-0.4c-2.6,0.2-3.1-0.4-1.2-1.3 c1-0.5,0.9-0.5-1.4-0.4c-3,0.1-3.9-0.8-1.3-1.3l1.7-0.4l-1.7-0.2c-2-0.2-2.2-0.7-0.5-1.5c1-0.4,0.6-0.5-2.2-0.3 c-3.2,0.2-3.3,0.2-2.4-0.5c0.6-0.4,1.4-0.7,1.9-0.7c0.5,0,1.1-0.2,1.3-0.5c0.2-0.3-0.1-0.5-0.9-0.4c-2.2,0.2-3.6,0-3.6-0.4 c0-0.2,1.7-0.6,3.7-0.7c2-0.2,3.6-0.5,3.4-0.7c-0.1-0.2-1.7-0.7-3.4-1c-3.2-0.6-5.3-1.6-4.6-2.2c0.3-0.3,3.3,0.1,7.2,1.1 c1.2,0.3,1.2,0.2-0.5-1.1c-2.7-2.1-1.2-2.3,2.7-0.4c3.9,1.9,6.2,2.1,10.5,0.7c4.9-1.5,13-5.1,13.6-6.1c0.7-1.2,0.3-1.2-1,0.1 c-0.6,0.6-1.1,0.9-1.1,0.6s-0.4-0.1-0.8,0.2c-0.7,0.5-0.8,0.4-0.8-0.3c0-0.7-0.3-0.6-1.6,0.5l-1.6,1.4l0.3-1.5 c0.3-1.5,0.3-1.5-1.1-1c-0.8,0.3-1.8,0.8-2.2,1.1c-2,1.4-2.3,1.4-1.9-0.3c0.3-1.2,0.2-1.5-0.3-1c-0.9,0.8-3.1,0.7-3.1-0.1 c0-0.9-0.9-0.9-1.4-0.1c-0.2,0.3-1.1,1-1.9,1.5c-1.2,0.7-1.4,0.7-1.4,0.1c0-0.4,0.5-1.1,1.1-1.5c0.6-0.5,1.1-1.1,1.1-1.3 c0-0.3-0.1-0.3-0.3-0.2c-0.2,0.2-0.7,0-1.2-0.4c-0.6-0.5-1.4-0.7-2.8-0.5c-1.4,0.2-2.1,0-2.3-0.4c-0.2-0.5-0.7-0.5-1.9-0.2 c-0.2,0.8-0.4,1.5-0.6,2.3c-0.3-0.7-0.5-1.3-0.7-2c-3.4,0.7-3.9-0.4-0.5-1.7c-0.1-0.2-0.1-0.5-0.2-0.7c-3.3,0.5-6.7-0.2-5-1.2 c0.4-0.3,1.9-0.5,3.2-0.5c0.7,0,1.1,0,1.4-0.1c0-0.1,0-0.1,0-0.2c-0.1,0-0.3-0.1-0.5-0.1c-0.8-0.2-1.6-0.6-1.8-1 c-0.1-0.4,0.2-0.5,1.9-0.5c-0.6-2.8-1.2-5.7-2.2-8.4C756.9,478.6,753.8,482.7,752.5,486.4z"/> <path class="st5" d="M858.6,492.4c-0.9-0.4-1.6-0.5-1.6-0.3c0,0.2,0.3,0.5,0.7,0.7c0.3,0.1,0.4,0.3,0.4,0.4c0.4-0.2,0.8-0.4,1.2-0.5 C859,492.6,858.8,492.5,858.6,492.4z"/> <path class="st5" d="M840,445.6c-0.9-0.1-1.6,0-1.6,0.3c-0.1,0.5,1.2,0.9,4.3,1.1c-0.2-0.6-0.3-1.3-0.5-1.9 C841.5,445.5,840.7,445.7,840,445.6z"/> <path class="st5" d="M856,493.2c-1.2-0.4-1.5-0.4-1.3,0.1c0.2,0.5,0,0.6-0.7,0.3c-0.8-0.3-0.9-0.2-0.3,0.4c0.2,0.2,0.6,0.3,1.3,0.4 c0.8-0.3,1.5-0.7,2.3-1C856.9,493.5,856.4,493.4,856,493.2z"/> <path class="st5" d="M769.2,466.4c0.1,0,0.3,0,0.4,0c0-0.2-0.1-0.5-0.1-0.7C769.4,465.9,769.3,466.1,769.2,466.4z"/> <path class="st5" d="M763.8,486.2c0,0.1-0.1,0.3-0.1,0.4C764.8,486.2,764.8,486,763.8,486.2z"/> <path class="st5" d="M768.3,482.8c-1-1.4-0.3-1.6,2.3-0.8c0.3,0.1,0.7,0.2,1.1,0.3c-0.2-1.3-0.5-2.6-0.6-4c-0.3-0.3-1.1-0.7-1.9-1 c-1.5-0.6-1.5-0.6-0.6-1.3c1.2-0.8,0.9-0.8-1-0.2c-1,0.3-1.4,0.3-1.4-0.1c0,0,0,0,0,0c-0.7,2.7-1.3,5.3-1.9,7.9 C768.9,483.7,769,483.7,768.3,482.8z"/> <path class="st5" d="M867,482.1c0,0.8-0.3,1.2-1,1.2c-0.6,0-1.4,0.3-1.8,0.7c-0.7,0.6-1,0.6-1.9,0.1c-0.6-0.3-1.1-0.8-1.1-1 c0-0.2-0.4,0-0.9,0.5c-1,0.9-1.3,2-0.5,2c0.3,0,0.3,0.2,0.1,0.5c-0.3,0.4,0.1,0.4,1.3,0.2c1.1-0.2,1.6-0.1,1.6,0.2 c0,0.3,1,0.5,2.4,0.5c0.3,0,0.5,0,0.7,0c0.7-1.9,1.3-3.9,1.9-5.8c0,0,0,0,0,0C867.2,481,867,481.3,867,482.1z"/> <path class="st5" d="M844.3,484.7c0.9,0.2,1.1,0.1,0.7-0.2c-0.2-0.2-0.6-0.3-0.9-0.3c-0.1,0-0.2,0-0.3,0 C843.4,484.4,843.6,484.6,844.3,484.7z"/> <path class="st5" d="M840.1,440.9l-0.7-1.4l-0.5,1.1l-0.5,1.1l-1-1.2c-1-1.2-1-1.2-1-0.1c0,1.4-1,1.3-1.4-0.1 c-0.1-0.3-0.2-0.6-0.4-0.8c-0.2,0.8-0.3,1.6-0.5,2.4c0.8,0.3,1.7,0.5,2.3,0.5c0.8,0,1.5,0.3,1.6,0.6c0.2,0.4,1.2,0.6,2.7,0.5 c0.3,0,0.6,0,0.9,0c-0.1-0.5-0.3-1-0.4-1.4C840.7,442,840.4,441.6,840.1,440.9z"/> <path class="st5" d="M789.6,478.2c1.2-1,1.2-1.6-0.1-1.3c-0.6,0.2-1.1,0.1-1.1-0.2c0-0.5-0.8-0.4-3.4,0.7c-0.6,0.2-1.6,0.4-2.6,0.5 c-0.3,1-0.5,2-0.8,3.1C785.2,480,788.9,478.7,789.6,478.2z"/> <path class="st5" d="M775.3,482.4c1.1-0.1,3.2-0.6,5.4-1.2c-0.1-1.2-0.3-2.2-0.5-3.2c-1.3,0-2.4,0.1-2.6,0.1 c-1.2,0.2-1.4-0.1-0.4-1.1c0.7-0.7,0.5-0.6-0.6,0.2c-1.8,1.5-2.3,1.6-2.3,0.6c0-0.5-0.1-0.6-0.9-0.2c-0.5,1.4-0.9,2.9-1.3,4.6 C773.1,482.5,774.3,482.5,775.3,482.4z"/> <path class="st5" d="M865.1,479.7c-0.1,0-0.2-0.1-0.3-0.1c-0.2,0-0.3,0.1-0.2,0.3c0.2,0.3,0.5,0.5,0.8,0.5 C866.2,480.4,866.1,480.1,865.1,479.7z"/> <path class="st5" d="M860.8,491.9c-1-0.2-1.2-0.2-0.7,0.2c0,0,0.1,0.1,0.1,0.1C860.5,492.1,860.6,492,860.8,491.9 C860.8,491.9,860.8,491.9,860.8,491.9z"/> <path class="st5" d="M861.7,491c-0.4-0.1-0.5,0-0.1,0.1c0.3,0.1,0.5,0.2,0.6,0.3c0.1-0.1,0.3-0.1,0.4-0.2 C862.3,491.1,862,491,861.7,491z"/> <path class="st5" d="M866.2,478.1l1.5,1.1c0.2,0.1,0.4,0.3,0.5,0.4c0.2-0.5,0.3-1,0.5-1.6c-0.3,0-0.6,0.1-0.8,0.1H866.2z"/> <path class="st5" d="M863.9,444.8c-1.1-6.4-3.6-10.7-5.3-16.1c-0.6,2.2-1.2,4.5-1.8,6.7c0.1,0,0.3,0,0.4,0c0.5,0,0.9,0.1,0.9,0.3 c0,0.3-0.8,0.8-1.7,1.3c-0.8,3.3-1.4,6.7-1.9,10.6c-0.8-2.5-1.6-5.1-2.4-7.7c-0.1,0.1-0.1,0.3,0,0.5c0.3,0.6,0,0.7-1.2,0.4 c-0.8-0.2-1.6-0.3-1.8-0.3c-1.6,0-2,0.2-1.8,0.8c0.4,1-0.3,1.2-1,0.6c-0.4,1.8-0.7,3.6-1.1,5.4c1.1,0.1,2.2,0.1,3.6,0.2 c8.5,0.3,11.9,0.6,11.9,1.1c0,0.2,0.6,0.3,1.3,0.1c0.7-0.1,1.3,0,1.3,0.3c0,0.7-1.7,1.5-3.1,1.5c-0.6,0-1.1,0.2-1.1,0.5 c0,0.3,0.3,0.5,0.6,0.5c0.3,0,1.1,0.4,1.7,1l1.2,1l-1.7-0.2c-1.1-0.1-1.7,0-1.7,0.4c0,0.3-0.4,0.5-1.1,0.3c-0.6-0.1-1.1,0-1.1,0.3 c0,0.8-1.3,0.6-2.1-0.2c-0.4-0.4-0.9-0.7-1.2-0.7c-0.3,0-0.2,0.4,0.3,0.9c0.5,0.5,0.9,1,0.9,1.2c0,0.5-2,0.4-2.4-0.1 c-0.5-0.8-1.2-0.5-1.6,0.5c-0.4,1.2-1,1.2-2.9,0l-1.5-1l0.3,1.4c0.4,1.8-0.6,1.9-2.7,0.4c-1.4-1-1.4-1-0.9-0.1 c0.7,1.1,0.3,1.6-0.8,1.2c-0.4-0.1-1.1,0-1.5,0.3c-0.5,0.4-0.8,0.4-0.8,0.1c0-0.3-0.4-0.5-0.8-0.5c-0.4,0-0.8,0.3-0.8,0.7 c0,0.5-0.5,0.6-1.4,0.5c-5.5-0.6,1.6,2.3,8,3.2c4.2,0.6,4.6,0.6,6-0.2c0.8-0.5,1.8-0.9,2.1-0.9c1.1,0,0.7,0.9-0.5,1.4 c-0.9,0.3-0.6,0.4,1.2,0.1c1.3-0.2,3-0.3,3.7-0.3c0.7,0,2.5-0.2,3.9-0.6c1.4-0.4,2.7-0.6,2.8-0.5c0.5,0.5-2.8,2.4-4.7,2.7l-2.2,0.3 l2,0.1c1.4,0,2,0.3,2,0.8c0,0.4-0.4,0.7-0.9,0.8c-0.5,0-1.2,0.1-1.4,0.2c-0.3,0.1-0.9,0.1-1.3,0.2c-0.6,0-0.5,0.2,0.3,0.7 c1.3,0.8,0.7,1.5-0.8,0.8c-0.9-0.4-1.1-0.4-1.1,0.2c0,0.6-0.4,0.7-1.7,0.6c-0.9-0.1-2.2-0.4-2.8-0.6c-1-0.3-1-0.3,0,0.4 c1,0.7,0.8,0.9-0.9,0.8c-0.5,0-0.9,0.2-0.9,0.7c0,1-0.4,0.9-1.7-0.3l-1.1-1.1l0.9,1.3c0.5,0.7,0.8,1.5,0.8,1.8 c0,0.7-2.6,0.2-3.8-0.8c-1-0.8-1-0.8-0.6,0.3c0.6,1.6,1.2,1.9,6.1,3.2c4,1.1,4.3,1.1,6.5,0.4c2.4-0.8,5.7-1,5.7-0.4 c0,0.2-0.3,0.6-0.6,1c-0.4,0.4,0.3,0.3,2.2-0.2c1.5-0.4,3.2-0.6,3.6-0.5c0.7,0.2,0.6,0.5-0.4,1.4l-1.2,1.1l1.8-0.5 c0.6-0.1,1.2-0.3,1.7-0.3c2.5-9.1,4.4-18.4,5.7-27.9c-0.8-5.2-0.7-10.3-3.5-16.9C868.5,436.2,865.3,440.2,863.9,444.8z"/> <path class="st5" d="M857.5,484.8l-1.2-1.1v0l-1.2,1.1l-1.2,1.1l-0.9-1.2c-0.8-1.1-0.9-1.1-1.4-0.4c-0.4,0.6-0.6,0.7-0.9,0.2 c-0.3-0.4-0.5-0.3-0.8,0.4c-0.4,1-1.4,1.4-1.4,0.5c0-0.3-0.7-0.5-1.4-0.5h-1.4l1.6,0.7c1,0.5,2.4,0.7,3.8,0.5c1.2-0.1,2.1,0,1.9,0.2 c-0.4,0.6,0.4,0.5,2-0.3c0.8-0.4,1.5-0.5,1.6-0.2c0.1,0.2,0.6,0.3,1.1,0.1C858.6,485.9,858.6,485.8,857.5,484.8z"/> <path class="st5" d="M863.4,488.7l-2.5-0.3l2,0.9c0.8,0.4,1.3,0.7,1.6,1.1c0.1,0,0.2-0.1,0.3-0.1c0.2-0.5,0.4-1,0.5-1.5 C864.8,488.8,864.2,488.8,863.4,488.7z"/> <path class="st5" d="M733.9,525.9c0.4-1.9,0.2-6.1-0.1-8.2c-0.6-3.5-1.6-4.4-2.3-7.1L731,509c-0.9-2.1,0-3.5-1.7-4.5 c-0.4-1.5-0.8-2.3-1.1-3.9c-0.4-2.2,0-2.6-2.2-3.1c-1.8-0.6-2.2,0-3.6-1c-0.3-2.1,0.1-2.4,2-2.9c0.2-0.4-0.2-0.1,0.7-0.9 c0.5-0.5,0.3-0.3,0.9-0.5c0.3-1,0.4-1.6,0.4-1.9c0.1-0.8-0.4-0.5-0.5-2.5l2.2,0.9c-1-1.8-2.9-3.7-4.9-4.7c-0.4,1.9-0.7,3.8-1.2,5.6 c-1.3-6.8-4-10.6-6.2-14.8c-0.1-0.3-0.3-0.5-0.4-0.8c-0.1,0.2-0.1,0.4-0.2,0.6c-1.5,6-3.8,10.4-4.3,18.3c-2.3-5.8-2.7-11.8-6.4-16.7 c-4.3,9.1-4.8,15.8-6.9,24c-1.7-4.5-1.1-12.2-4.2-15.4c-3.2,6.6-4,14.8-5.3,19.7c-2.6-7-2.7-17.5-7.6-24c-1.6,7.6-2.4,11.4-4.8,22.8 c-1.3-5.5-0.9-11.1-3.9-16.4c-1.7,3.2-2.4,8.1-3.6,12.2c-0.8-7.7-2.2-10.2-5.4-17c-4.8,11.8-2.6,17.6-3.8,26.5 c-1.2-3.5-1.9-8.2-3.1-11.7c-0.9-2.4-2.4-3.6-3.2-6c-2.9,7.4-2.8,12.3-4.2,18.4c-3.3-7.1-6.6-14.2-9.9-21.2 c-2.5,8.3-5,16.6-7.6,24.9c-2.5-5.8-3.9-12.2-7.5-17.4c-1.6,6.5-3.2,13-4.8,19.5c-1.7-5.9-2.2-12.7-5.3-17.8 c-4.8,11.4-5.3,19-8,28.5c-0.9-1.7-1.5-3.7-2.3-5.5c0,0.1-0.1,0.2-0.3,0.3c-0.4,0.2-0.5,0.7-0.3,1.1c0.2,0.5-0.1,0.8-0.8,0.8 c-0.8,0-1.1,0.2-0.8,0.9c0.3,0.8,0.1,0.9-0.7,0.5c-2.4-1-2.7-1-1.7-0.2c1.4,1.2,1.2,1.4-1.3,1.8c-0.3,0-0.5,0.1-0.7,0.1 c-0.2,0.9-0.3,1.9-0.5,3c2.3,0.6,2.9,0.5,5-0.2c3.5-1.2,3.6-1.2,3.2,0.2c-0.4,1.4,0.4,1.4,3.8,0.2c3.2-1.1,4.5-0.8,3.4,0.9 c-0.4,0.6-1,1.2-1.3,1.2s-1.2,0.6-1.9,1.4c-0.8,0.9-1.9,1.4-3,1.4l-1.7,0l1.9,1l1.9,1l-2.7,0.2l-2.6,0.2l1.3,1.1l1.3,1.1l-1.4,0 c-0.8,0-1.9-0.4-2.6-0.9c-0.8-0.6-1.2-0.7-1.2-0.2c0,0.4-0.4,0.5-0.8,0.3c-0.5-0.2-0.8-0.1-0.8,0.2c0,0.3-0.6,0.5-1.4,0.5 c-0.9,0-1.3,0.3-1.1,0.8c0.4,0.9,6.1,2.2,9.8,2.1c1.4,0,2.6,0.2,2.6,0.5c0,0.3-0.2,0.6-0.6,0.6s-0.6,0.2-0.6,0.5 c0,0.6,7.6,0.4,10.6-0.2c3.3-0.7,2.4,0.5-1.4,1.7c-2.4,0.8-3.1,1.2-2.2,1.3c0.9,0.1,1.2,0.4,0.9,1.2c-0.2,0.8,0.1,1.1,1.2,1.4 c1.3,0.3,1.4,0.5,0.6,1c-0.5,0.3-1.2,0.4-1.5,0.2c-0.3-0.2-0.5-0.1-0.5,0.1c0,0.3-1.6,0.9-3.6,1.3c-2.2,0.5-3.6,1.1-3.6,1.5 c0,0.6-0.4,0.6-1.4,0.2c-2-0.8-2.3-0.7-1,0.2c1,0.8,1,0.8-0.6,1.5c-0.9,0.4-1.8,1-2,1.3c-0.2,0.3-1,0.1-1.8-0.4 c-1.2-0.8-1.4-0.8-1.4-0.1c0,1.2-0.5,1.1-2.4-0.7c-1.1-1-1.3-1.1-0.6-0.3c1,1.2,0.8,1.6-0.5,1.3c-0.3-0.1-1.8-0.1-3.3-0.1 c-1.5,0-3.5-0.4-4.4-0.8c-2.8-1.2-3.6-1.4-3.6-0.8c0,0.3-0.5,0.4-1.1,0.2c-1.4-0.4-1.4,0.4-0.1,1.5c1.2,1.1,11.8,4.8,15,5.2 c1.5,0.2,3.4,0,4.9-0.5c2.7-1,3.4-0.7,2.4,1c-0.7,1.1-0.6,1.1,4.9,0.7c4.7-0.3,5.6-0.3,5.3,0.4c-0.1,0.3-0.7,0.7-1.3,1 c5.9,0.1,11.9,0.5,17.5,1c6.3,0.5,5.8,2.2,9.9,4.2c4,0.8,7.7,1.4,10.4,1.7c1.2,0,2.3-0.1,3.5-0.1c0.4-0.1,0.8-0.3,1-0.6 c5.2-6.2,12.5-8.9,17.4-13.1c-0.4-0.4-1.2-0.9-1.4-1.1c-6.6-7.5-9-10.2-6.7-19.9c-0.2-0.4-0.1-0.6,0.1-0.7c0.1-0.6,0.3-1.2,0.5-1.9 l2.6-0.1c-0.4-5.3-2.9-7.1-1.4-14.3c0.9-4.9,4.1-5.8,9.5-6.9l8-1.1l10.7,0.7c3.7,4.9,5.3,3.5,8.3,8c3,4.5,1.7,4.1,6.8,8.3l1.3,1 c0.1,0,6.3,0.9,11.9,2.2L734,528C734.2,527.2,734.1,526.8,733.9,525.9z"/> <path class="st5" d="M599.6,514.8c-0.2,0.7-0.3,1.4-0.5,2.1c0.6-0.2,1.3-0.4,2-0.6C600.7,515.6,600.2,515.2,599.6,514.8z"/> <path class="st5" d="M737,525l-0.1-6.8c-0.4,0.6,0-0.4-0.6,1.1c-0.1,0.1-0.2,0.5-0.2,0.7l-0.5,5.4c0,0.5,0.1,1.4,0.1,2.3l1.3-0.3 l-0.1-2C737,525.1,737,525.1,737,525z"/> <path class="st5" d="M728.5,481.5c-0.5,2.9-0.3,4.7,1.5,6.4c0.6-1.1,0.3-1.1-0.2-2.8c2.2,1,0.6,0.8,2.2,1.5l0.2-1.2 c-0.4-1.6-0.7-3.3-1-5C730.4,480.7,729.5,481,728.5,481.5z"/> <path class="st5" d="M600.7,520.4c-0.2-0.1-0.4-0.1-0.6-0.1c-0.2,0-0.4,0-0.4,0.1c-0.2,0.2,0.1,0.3,0.7,0.3 C601,520.7,601.1,520.6,600.7,520.4z"/> <path class="st5" d="M733.8,486c3.7-0.9,6.5-4.1,6.8-6.4c0.1-0.6,0.1-1.4,0.2-2c0.1-0.8,0-0.1,0.1-0.8c0,0,0-0.1,0-0.1 c-0.4-2-0.9-4-1.8-6.3c-1.1,3.5-2.9,6.5-4.6,9.6c-0.6,1.1-1.1,2.2-1.6,3.3L733.8,486z"/> <path class="st5" d="M525.8,546.3c0.4-1.4,0.4-1.4-0.7-0.4c-1.3,1.2-4,1.8-4,1c0-0.3,0.4-1.3,0.9-2.1l0.9-1.5l-1.1,1.3 c-1.3,1.5-1.8,1.6-1.8,0.4c0-0.5-0.4-0.9-1-0.8c-1.8,0.2-2,0-0.9-0.9c1.1-0.9,1.1-0.9,0-0.5c-0.6,0.2-1.9,0.5-2.9,0.7 c-1.4,0.2-1.8,0.1-1.8-0.7c0-0.8-0.2-0.8-1.2-0.3c-1.5,0.8-2.2,0.1-0.8-0.9c0.8-0.6,0.9-0.8,0.3-0.9c-0.4,0-1-0.1-1.3-0.2 c-0.3-0.1-1-0.2-1.5-0.2c-0.5,0-1-0.5-1-0.9c0-0.6,0.6-0.9,2.1-0.9l2.1-0.1l-2.3-0.4c-2-0.3-5.5-2.7-4.9-3.3 c0.1-0.1,1.4,0.2,2.9,0.6c1.5,0.4,3.3,0.8,4.1,0.7c0.8,0,2.5,0.1,3.9,0.3c1.8,0.3,2.2,0.2,1.2-0.2c-1.3-0.6-1.7-1.7-0.6-1.7 c0.4,0,1.4,0.5,2.2,1c1.4,1,1.9,1,6.2,0.3c6.7-1.1,14.1-4.5,8.4-3.9c-1,0.1-1.5-0.1-1.5-0.6c0-0.4-0.4-0.8-0.8-0.8s-0.8,0.3-0.8,0.6 c0,0.4-0.3,0.4-0.8-0.1c-0.5-0.4-1.2-0.6-1.6-0.4c-1.1,0.5-1.5-0.2-0.8-1.5c0.6-1.1,0.5-1.1-0.9,0.1c-2.2,1.8-3.2,1.6-2.8-0.5 l0.3-1.7l-1.6,1.2c-2,1.5-2.6,1.5-3.1,0c-0.4-1.2-1.1-1.5-1.7-0.6c-0.4,0.6-2.5,0.8-2.5,0.2c0-0.2,0.4-0.8,0.9-1.4 c0.5-0.6,0.6-1,0.3-1s-0.9,0.4-1.2,0.9c-0.8,1-2.2,1.1-2.2,0.2c0-0.4-0.5-0.5-1.1-0.3c-0.7,0.2-1.1,0-1.1-0.4c0-0.5-0.6-0.6-1.8-0.4 l-1.8,0.2l1.2-1.2c0.7-0.7,1.5-1.2,1.8-1.2c0.3,0,0.6-0.3,0.6-0.6c0-0.3-0.5-0.6-1.2-0.6c-1.5,0-3.3-1-3.3-1.8 c0-0.3,0.6-0.5,1.4-0.3c0.8,0.1,1.4,0.1,1.4-0.2c0-0.6,3.6-1,12.4-1.4c0.8,0,1.5-0.1,2.2-0.1c-0.5-2.7-1.1-5.4-2.3-8.3 c-0.1,0-0.1,0-0.2,0c-0.2,0-1,0.2-1.9,0.4c-0.1,0-0.1,0-0.2,0c-1.4,2.6-3.5,5.1-4.3,7.7c-1-4.1-1.3-8.6-2.1-12.8 c-0.6-0.4-0.9-0.8-0.9-1c0-0.2,0.3-0.4,0.7-0.4c-0.6-2.6-1.3-5-2.6-7.3c-4,9.9-3.8,14.6-5.8,21.9c-2.3-10.4-2.7-19.7-7-31.5 c-3,10.2-3.7,17.4-5.5,26.1c-2.8-15.9-4-28.9-8.5-47.7c-2.2,6.4-3.6,11.9-4.8,17.3c8,25.4,20.8,48.7,37.4,68.7c0.9,0,2-0.3,4.4-1 C524.5,548.7,525.2,548.2,525.8,546.3z"/> <path class="st5" d="M589.3,517.4c-0.1,0-0.2-0.1-0.3-0.1c-0.1,0.2-0.2,0.3-0.2,0.5C589.8,517.8,589.9,517.7,589.3,517.4z"/> <polygon class="st5" points="736,495.7 736,495.7 735.9,495.8 "/> <path class="st5" d="M589.6,516c0.1,0.2,0.3,0.4,0.5,0.6c0.1,0.1,0.1,0.1,0.2,0.2c-0.2-0.4-0.3-0.9-0.5-1.3 C589.8,515.6,589.7,515.8,589.6,516z"/> <path class="st5" d="M770.3,518.8c0.2-0.3-0.1-0.3-0.6,0.1c-0.1,0.1-0.2,0.2-0.4,0.2l0.9-0.2C770.3,518.8,770.3,518.8,770.3,518.8z"/> <path class="st5" d="M526.2,562.9c-0.1,0-0.2,0-0.3,0c-0.1,0-0.2,0-0.3,0c0.2,0.2,0.3,0.3,0.5,0.5 C526.4,563.2,526.5,563,526.2,562.9z"/> <path class="st5" d="M529.6,513.6c0.6,0,1.1-0.1,1.5-0.1c-0.3-0.8-0.6-1.7-0.9-2.5C530.1,511.9,529.8,512.8,529.6,513.6z"/> <path class="st5" d="M602.7,519.5c0.1,0.1,0.2,0.2,0.3,0.3c-0.2-0.5-0.4-1.1-0.7-1.6C601.9,518.8,602.1,519,602.7,519.5z"/> <path class="st5" d="M592.4,524.6c-0.2,0.4-0.8,0.6-1.2,0.6c-4.4-0.3-2.9,1.3,2.8,3c0.2,0.1,0.5,0.1,0.7,0.2 c-0.4-1.3-0.9-2.6-1.3-3.9C592.8,524.2,592.6,524.3,592.4,524.6z"/> <path class="st5" d="M531.8,516.5c0-0.3-0.8-0.4-1.7-0.3c-0.4,0-0.8,0-1.3-0.1c-0.2,0.6-0.4,1.2-0.6,1.8 C530.8,517.4,531.9,517,531.8,516.5z"/> <path class="st5" d="M726.3,484.5c0.7-3.7-0.1-7.1,0.8-9.5l0.3,0.6c0.6,2.2-0.1,1.7,0.6,3.3c1.1-0.7,1.3-2,1.8-3.3 c0.7,1,0.4,0.9,0.2,2.4l0.8,0c0-0.1,0-0.2-0.1-0.3c-0.6-3.8-1.4-7.5-3-11.3c-1.5,3.3-2.5,6.7-3.2,10.1c-0.4,1.9-0.8,3.8-1.1,5.7 C723.9,483.2,724.9,483.7,726.3,484.5z"/> <path class="st5" d="M776.2,517.4l0.4-0.1C776.6,517.2,776.5,517.2,776.2,517.4z"/> <path class="st5" d="M600.6,535c0.5,0.3,1.1,0.5,1.4,0.5c0.3,0,0.2-0.2-0.3-0.5s-1.1-0.5-1.4-0.5c0,0-0.1,0-0.1,0 C600,534.5,600.2,534.7,600.6,535z"/> <path class="st5" d="M743.1,514.8l-1.8-0.2c-1.8,0.2-1.3-0.5-1.8,1.7c-0.1,0.3-0.2,1.8-0.2,2.3c-0.1,1.7,0.1,3.4-0.2,5.1 c-0.6,1.1-0.4,2-0.2,3.2l5.2-1.3C746.8,520.5,744.3,519.3,743.1,514.8z"/> <path class="st5" d="M750.2,523.2c0-2-0.4-7.7-2.5-8.2c-0.8,1.8,1.8,2.2-0.3,6.2c-0.7,1.3-1.2,2.6-1.7,3.9l5-1.3 C750.6,523.6,750.5,523.7,750.2,523.2z"/> <path class="st4" d="M695.5,453.9c1.6-1.5,11.4-11.1,9.6-14.7c-0.7-1.3-8.4,6.4-9.6,8c-3.8-3.4-7.4-8.3-9.5-7.3 C684.8,442.7,690.8,449.9,695.5,453.9z"/> <path class="st6" d="M751.7,519.7c0-1.6-0.2-2.8,0.5-3.7l0.1-3.4c0.3-1.7,0.4-3.9,1.2-5l-0.1-1.1c0.1-2.1-0.8-2.6-1.7-3.8 c-2-0.2-1-1.1-3.5-1.4c-2-0.3-2.5-0.1-4.5-0.7c-2.3-0.7-5.9-2.9-6.7-3.3c-0.1-0.3-0.2-0.6-0.4-0.9c-0.1-0.2-0.2-0.4-0.3-0.7v0v0v0v0 v0l-0.1,0.1c0,0,0,0,0,0l-0.2,0.1l0.2-0.1c-1.4-2.5-3.4-5.1-1.6-7.9c1.1-0.8,3.5-1.9,4.8-2.8c1.3-0.9,2.1-2,3.1-2.9 c0.3-0.2,0.6-0.5,0.9-0.6c0.1,0,0.1-0.1,0.1-0.1c0.8-0.9,1.7-2.1,2.5-3.2c0.6-0.7,1.9-2.8,2.1-3.1l0-1.8c-1.2,0.6-0.4,0.6-1.7,1.9 l-1.5,1.4c-0.2-1.3-0.3-1.9-0.5-2.6c-0.2-0.5-0.4-0.9-0.9-1.6c-0.5,0.8-0.6,0.6,0,1.6c0.2,2.4,0,3.7-1.3,5.2l-0.8-3.5 c-0.3,0.4-0.1-0.3-0.3,0.9c0,0,0,0.1,0,0.1c-0.2,0.7,0,0-0.1,0.8c-0.1,0.6-0.1,1.4-0.2,2c-0.3,2.2-3.1,5.4-6.8,6.4l-0.8-2.6 l-0.3-1.1l-0.4,3.1l-0.2,1.2c-1.6-0.7,0-0.5-2.2-1.5c0.4,1.7,0.8,1.7,0.2,2.8c-1.9-1.6-2-3.4-1.5-6.4c1-0.5,1.9-0.8,2.8-1.1 c0.8-0.3,1.5-0.6,2.2-1.1c0.3-0.2,0.6-0.5,0.9-0.9c-0.5-0.4-0.1-0.2-1-0.3l-2.1,0l-0.5,0l-0.8,0c0.1-1.6,0.5-1.4-0.2-2.4 c-0.6,1.3-0.7,2.5-1.8,3.3c-0.7-1.6,0.1-1.1-0.6-3.3l-0.3-0.6c-0.8,2.4,0,5.8-0.8,9.5c-1.4-0.8-2.4-1.3-2.9-2.2 c-0.4-0.8-0.5-2-0.3-3.9l-1,0.2c-0.1,0.9,0.3,0-0.4,1.2v2.5c0.1,0.1,0.2,0.1,0.2,0.2c-0.1,0-0.2,0-0.3,0.2l-1.1,0.8 c0.8,0,1.7,0.3,2.5,0.7c2,1,3.9,2.9,4.9,4.7l-2.2-0.9c0.1,2,0.6,1.7,0.5,2.5c0,0.3-0.2,0.9-0.4,1.9c-0.6,0.2-0.4,0-0.9,0.5 c-0.9,0.7-0.5,0.4-0.7,0.9c-1.9,0.6-2.3,0.9-2,2.9c1.4,1,1.8,0.5,3.6,1c2.2,0.4,1.8,0.9,2.2,3.1c0.3,1.5,0.7,2.4,1.1,3.9 c1.7,1,0.8,2.5,1.7,4.5l0.5,1.7c0.7,2.7,1.7,3.6,2.3,7.1c0.3,2.1,0.5,6.3,0.1,8.2c0.3,0.9,0.3,1.2,0.1,2.1l1.8-0.5 c0-0.8-0.1-1.7-0.1-2.3l0.5-5.4c0-0.2,0.1-0.6,0.2-0.7c0.5-1.5,0.2-0.5,0.6-1.1l0.1,6.8c0,0.1,0,0.2,0.1,0.3l0.1,2l1.7-0.4 c-0.3-1.2-0.4-2.1,0.2-3.2c0.3-1.7,0.2-3.4,0.2-5.1c0-0.5,0.1-1.9,0.2-2.3c0.5-2.1,0-1.4,1.8-1.7l1.8,0.2c1.3,4.5,3.7,5.7,0.9,10.7 l1.7-0.4c0.5-1.3,1.1-2.6,1.7-3.9c2.1-4-0.5-4.4,0.3-6.2c2.1,0.5,2.5,6.2,2.5,8.2c0.4,0.5,0.5,0.4,0.5,0.6l1.2-0.3 C751.5,522.5,751.7,521.3,751.7,519.7z"/> <g> <path class="st6" d="M849.7,521.5c0.3,1.4-2.6,1-4.2-0.6l-1.2-1.3l0.3,1.5c0.5,2-0.9,2.1-2.9,0.1c-0.8-0.8-1.5-1.4-1.6-1.4 c-0.1,0-0.2,0.5-0.3,1.2c-0.1,1.8-1,2.3-2.1,1.2c-0.9-0.9-1-0.9-1.6-0.2c-0.6,0.7-0.7,0.7-1-0.2c-0.2-0.6-0.6-0.9-1-0.8 c-0.5,0.2-0.8-0.2-1.1-1c-0.2-0.9-0.5-1.1-0.8-0.7c-0.2,0.3-0.9,0.7-1.5,0.7c-0.9,0.1-1.4-0.3-2.3-1.9c-1.2-2.1-2.4-2.9-1.7-1.2 c0.4,1.1,0.1,1.2-1.6,0.2c-0.7-0.4-1.3-1.2-1.4-1.8c0-0.8-0.1-0.8-0.3-0.2c-0.4,1.4-1.2,0.4-1.2-1.4c0-1.4-0.1-1.6-0.5-0.9 c-0.3,0.5-1,0.8-1.6,0.8c-1,0-1.1,0.2-0.7,3.6c0.2,2.4,0.8,4.4,1.6,5.9c0.5,0.9,0.9,1.7,1.1,2.1h-13.1c-0.6-0.4-0.3-1.1,0.3-2.4 c0.9-2,1.3-6.1,0.6-6.3c-0.3-0.1-0.9,0.5-1.4,1.2c-1,1.4-2.1,2-1.6,0.7c0.6-1.4-0.4-0.7-1.1,0.9c-0.6,1.2-1,1.6-2,1.5 c-0.7,0-1.6,0.1-2,0.4c-0.5,0.4-0.8,0.3-1-0.1c-0.1-0.4-0.6-0.3-1.2,0.4c-1.4,1.2-2,1.1-1.7-0.1c0.2-0.6,0.1-0.9-0.2-0.6 c-0.6,0.7-2.3,1.2-2.3,0.7c0-0.5-2.9-0.3-4.4,0.2c-0.8,0.3-0.9,0.2-0.7-0.4c0.2-0.4,0-0.8-0.3-1c-0.5-0.2-0.5-0.4,0-0.8 c1.2-1.1,0.7-1.3-1.3-0.4c-2.2,1-2.8,0.8-1.7-0.4c0.6-0.7,0.6-0.7,0-0.3c-0.4,0.3-1,0.4-1.4,0.3c-0.4-0.1-0.7-0.1-0.7,0.2 c0,0.2-0.3,0.8-0.7,1.3c-0.6,0.8-0.9,0.8-1.6,0.2c-0.8-0.6-1-0.5-1.7,0.5l-0.9,1.1l-0.5-1.1c-0.4-1-0.5-1.1-1.2-0.3 c-0.8,1-1.2,1-2.2,0.1c-0.6-0.6-0.7-0.9-0.2-1.4c0.4-0.4,0.5-0.7,0.3-0.7c-0.2,0-0.1-0.5,0.3-1.1c0.1-0.3,0.2-0.4,0.2-0.5l-0.4,0.1 c-0.2,0.2-0.6,0.4-1,0.8c-3.3,2.6-3.5,2.7-4.4,1.9c-0.4-0.4-0.6-0.9-0.5-1.2l-0.9,0.2c-2.2,1.5-4.3,1.9-3.9,1l-13.6,3.4l-1.2,0.3 l-5,1.3l-1.7,0.4l-5.2,1.3l-1.7,0.4l-1.3,0.3L734,528l-10.1,2.5c-5.6-1.3-11.7-2.2-11.9-2.2l-1.3-1c-5.1-4.2-3.8-3.8-6.8-8.3 c-3-4.5-4.5-3.1-8.3-8l-10.7-0.7l-8,1.1c-5.4,1.1-8.6,2-9.5,6.9c-1.4,7.1,1,9,1.4,14.3l-2.6,0.1c-0.2,0.6-0.4,1.3-0.5,1.9 c-0.2,0.1-0.4,0.3-0.1,0.7c-2.3,9.7,0.1,12.4,6.7,19.9c0.3,0.2,1,0.7,1.4,1.1c-4.9,4.2-12.2,6.9-17.4,13.1c-0.2,0.3-0.6,0.4-1,0.6 c-1.2,0.1-2.4,0.1-3.5,0.1c-2.7-0.2-6.4-0.9-10.4-1.7c-4-1.9-3.6-3.7-9.9-4.2c-5.6-0.5-11.6-0.9-17.5-1c-0.2,0.1-0.3,0.1-0.5,0.2 c-1.4,0.3-1.2,0.4,0.9,0.4c1.4,0,2.9,0.3,3.3,0.6c2.1,1.4-2.8,2.2-6.6,1.1c-3-0.9-2.6-0.3,0.6,0.9c4.7,1.8,3.8,3.4-1.1,2 c-1.4-0.4-1.9-0.3-2.1,0.2c-0.2,0.5-0.9,0.7-2.4,0.5c-1.4-0.2-2.3,0-2.9,0.6c-0.5,0.5-1,0.7-1.2,0.5c-0.2-0.2-0.3-0.1-0.3,0.2 c0,0.3,0.5,1.1,1.1,1.6c0.6,0.6,1.1,1.4,1.1,1.8c0,0.7-0.3,0.7-1.5-0.2c-0.8-0.6-1.7-1.3-2-1.8c-0.6-1-1.5-1-1.5,0.1 c0,1-2.3,1.1-3.2,0.2c-0.5-0.5-0.6-0.3-0.3,1.2c0.4,2,0.1,2-2,0.3c-0.5-0.4-1.5-1-2.3-1.3c-1.5-0.6-1.5-0.6-1.2,1.2l0.3,1.8 l-1.7-1.7c-1.4-1.4-1.7-1.5-1.7-0.6c0,0.8-0.1,0.9-0.8,0.3c-0.5-0.4-0.8-0.5-0.8-0.2s-0.5-0.1-1.1-0.8c-1.4-1.5-1.8-1.6-1.1-0.1 c0.4,0.8,4.3,3,8.4,5l1-0.3c1.1-0.2,2.2-0.4,3.2-0.4l-3.2,0.4l5.4-0.5c1.2,0,2.4,0.1,3.6,0.4c-0.7,1.1-1.5,2.3-2.2,3.5 c3.3,0.9,5.5,0.4,9-1.5c4.1-2.3,5.7-2.1,2.9,0.5c-1.7,1.5-1.8,1.6-0.5,1.3c4.1-1.1,7.2-1.6,7.5-1.3c0.7,0.7-1.5,1.9-4.8,2.6 c-1.8,0.4-3.4,1-3.5,1.2c-0.2,0.3,1.5,0.6,3.6,0.9c2.1,0.2,3.9,0.6,3.9,0.9c0,0.5-1.5,0.7-3.8,0.5c-0.8-0.1-1.2,0.1-0.9,0.5 c0.2,0.3,0.8,0.6,1.3,0.6c0.5,0,1.4,0.4,2,0.9c1,0.8,0.8,0.9-2.5,0.6c-2.9-0.3-3.4-0.2-2.3,0.4c1.7,0.9,1.5,1.5-0.6,1.8l-1.8,0.2 l1.8,0.5c2.7,0.7,1.8,1.8-1.3,1.6c-2.3-0.1-2.5,0-1.4,0.5c2,1,1.4,1.7-1.3,1.5c-2.1-0.2-2.4-0.1-1.6,0.5c1.4,1,0.4,1.6-1.4,0.9 c-2.1-0.8-1.7,0.6,0.4,1.5c1.7,0.7,10.2,2.3,12.5,2.3c1.6,0,1.6,0.1,0.6,0.9c-0.6,0.5-2.1,0.8-3.3,0.9c-2,0-2.1,0.1-1,0.7 c1.3,0.7,1.7,1.6,0.6,1.6c-0.4,0-1.8-0.6-3.1-1.4c-3-1.8-4.2-1.8-2.1,0l1.6,1.3l-1.5,0.4c-1.4,0.4-1.5,0.5-0.6,1.5 c2,2.3-1,1.8-3.9-0.6c-0.6-0.5-0.9-0.6-0.7-0.2c0.2,0.4,0,1.1-0.5,1.6c-1,1-1.2,0.9-4.6-2.3c-1.6-1.5-1.8-1.5-1.2-0.4 c0.4,0.7,0.5,1.3,0.3,1.3c-0.2,0-0.1,0.4,0.3,0.8c0.5,0.7,0.5,1-0.2,1.7c-1.1,1.1-1.5,1.1-2.3-0.1c-0.7-0.9-0.7-0.9-1.2,0.4 L593,609l-0.9-1.3c-0.8-1.1-1-1.2-1.8-0.6c-0.8,0.7-1,0.6-1.7-0.3c-0.4-0.6-0.8-1.3-0.8-1.6c0-0.3-0.4-0.4-0.8-0.2 c-0.4,0.2-1.1,0-1.5-0.4c-0.6-0.5-0.6-0.5,0,0.3c0.6,0.8,0.7,1.2,0.4,1.2c26.3,12.3,55.6,19.2,86.5,19.2c76.4,0,143-42,178-104.1 C849.6,520.6,849.5,520.6,849.7,521.5z"/> </g> <path class="st6" d="M853.3,514.1c0.2,0.1,0.5,0.2,0.9,0.3c0.1-0.1,0.1-0.3,0.2-0.4c-0.2,0-0.3,0-0.5-0.1 C853,513.8,852.8,513.8,853.3,514.1z"/> <path class="st6" d="M864.6,490.7c0.1-0.1,0.1-0.3,0.2-0.4c-0.1,0-0.2,0.1-0.3,0.1C864.5,490.5,864.6,490.6,864.6,490.7z"/> <path class="st6" d="M863.4,491.4c-0.2-0.1-0.5-0.2-0.8-0.2c-0.1,0.1-0.3,0.1-0.4,0.2c0.4,0.4-0.2,0.8-1.3,0.6 c-0.2,0.1-0.4,0.2-0.6,0.2c1,0.7,0.2,0.9-1,0.5c-0.4,0.2-0.8,0.4-1.2,0.5c0,0.1,0,0.1-0.1,0.2c-0.1,0.1-0.3,0.1-0.6,0.1 c-0.8,0.3-1.5,0.7-2.3,1c1.2,0.2,3.3,0.2,7,0.1c0.4,0,0.7,0,1.1,0c0.4-1.1,0.9-2.3,1.3-3.4C864.2,491.5,863.8,491.6,863.4,491.4z"/> <path class="st6" d="M858.6,501.9c0-0.2-0.2-0.3-0.5-0.1c-0.3,0.2-0.3,0.7,0,1.5c0.3,0.7,0.5,1.4,0.5,1.7c0,0.6-2.5-1-5-3.2 c-1.9-1.7-2.1-1.4-0.4,0.4c0.4,0.4,0.6,1.2,0.4,1.6c-0.3,0.7-0.5,0.7-1.7-0.3l-1.4-1.1l0.2,1.2c0.2,1.1,0.5,1.2,4.4,1.8 c1.4,0.2,2.6,0.3,3.4,0.3c0.4-0.9,0.8-1.8,1.2-2.7C859.1,502.5,858.6,502.1,858.6,501.9z"/> <path class="st6" d="M849.6,503.6c-0.1,0-0.1-0.1-0.2-0.1c-0.2,0-0.3,0.1-0.3,0.3c0,0.3,0.2,0.5,0.5,0.5 C850.3,504.3,850.3,504,849.6,503.6z"/> <polygon class="st7" points="819.6,343.3 819.6,343.3 819.6,343.3 "/> <polygon class="st7" points="819.6,343.3 819.6,343.3 819.6,343.3 "/> <path class="st7" d="M865.8,476.6l1.2-1.1c1-1,1.1-1.2,0.4-1.4c-0.4-0.2-2.1,0.1-3.6,0.5c-1.9,0.5-2.6,0.6-2.2,0.2 c0.4-0.3,0.6-0.7,0.6-1c0-0.6-3.3-0.4-5.7,0.4c-2.2,0.7-2.4,0.7-6.5-0.4c-4.9-1.3-5.5-1.6-6.1-3.2c-0.4-1.1-0.4-1.2,0.6-0.3 c1.2,1,3.8,1.5,3.8,0.8c0-0.3-0.4-1.1-0.8-1.8l-0.9-1.3l1.1,1.1c1.3,1.2,1.7,1.3,1.7,0.3c0-0.4,0.4-0.7,0.9-0.7 c1.7,0.2,1.9,0,0.9-0.8c-1-0.7-1-0.7,0-0.4c0.6,0.2,1.8,0.4,2.8,0.6c1.3,0.2,1.7,0,1.7-0.6c0-0.6,0.2-0.7,1.1-0.2 c1.5,0.7,2.1,0.1,0.8-0.8c-0.8-0.5-0.8-0.7-0.3-0.7c0.4,0,1-0.1,1.3-0.2c0.3-0.1,0.9-0.1,1.4-0.2c0.5,0,0.9-0.4,0.9-0.8 c0-0.5-0.6-0.7-2-0.8l-2-0.1l2.2-0.3c1.9-0.3,5.3-2.2,4.7-2.7c-0.1-0.1-1.3,0.2-2.8,0.5c-1.4,0.4-3.2,0.6-3.9,0.6 c-0.7,0-2.4,0.1-3.7,0.3c-1.7,0.2-2.1,0.2-1.2-0.1c1.3-0.5,1.6-1.4,0.5-1.4c-0.4,0-1.3,0.4-2.1,0.9c-1.4,0.8-1.8,0.8-6,0.2 c-6.4-0.9-13.5-3.7-8-3.2c1,0.1,1.4-0.1,1.4-0.5c0-0.4,0.4-0.7,0.8-0.7c0.4,0,0.8,0.2,0.8,0.5c0,0.4,0.2,0.3,0.8-0.1 c0.4-0.3,1.1-0.5,1.5-0.3c1.1,0.4,1.4-0.1,0.8-1.2c-0.6-0.9-0.5-0.9,0.9,0.1c2.1,1.5,3.1,1.4,2.7-0.4l-0.3-1.4l1.5,1 c1.9,1.2,2.5,1.2,2.9,0c0.4-1,1.1-1.2,1.6-0.5c0.4,0.5,2.4,0.6,2.4,0.1c0-0.2-0.4-0.7-0.9-1.2c-0.5-0.5-0.6-0.9-0.3-0.9 c0.3,0,0.8,0.3,1.2,0.7c0.8,0.8,2.1,0.9,2.1,0.2c0-0.3,0.5-0.4,1.1-0.3c0.6,0.1,1.1,0,1.1-0.3c0-0.4,0.6-0.5,1.7-0.4l1.7,0.2l-1.2-1 c-0.6-0.5-1.4-1-1.7-1c-0.3,0-0.6-0.2-0.6-0.5c0-0.3,0.5-0.5,1.1-0.5c1.4,0,3.1-0.8,3.1-1.5c0-0.3-0.6-0.4-1.3-0.3 c-0.7,0.1-1.3,0.1-1.3-0.1c0-0.5-3.4-0.8-11.9-1.1c-1.3,0-2.5-0.1-3.6-0.2c-1-0.1-1.8-0.1-2.6-0.2c-3.1-0.3-4.4-0.6-4.3-1.1 c0-0.2,0.8-0.4,1.6-0.3c0.7,0.1,1.5-0.1,2.1-0.5c0.7-0.3,1.1-0.8,1.1-1.3c0-0.2-0.6-0.3-1.6-0.3c-0.3,0-0.6,0-0.9,0 c-1.5,0-2.5-0.2-2.7-0.5c-0.1-0.3-0.9-0.6-1.6-0.6c-0.6,0-1.5-0.2-2.3-0.5c-1.4-0.5-2.8-1.3-3-1.8c-0.2-0.4,0.2-0.5,1.5-0.2 c1.2,0.2,1.6,0.2,1.4-0.2c-0.2-0.3-0.1-0.5,0.1-0.5c0.1,0,0.3,0.1,0.5,0.4c0.1,0.2,0.3,0.5,0.4,0.8c0.4,1.5,1.4,1.5,1.4,0.1 c0-1.1,0-1.1,1,0.1l1,1.2l0.5-1.1l0.5-1.1l0.7,1.4c0.3,0.7,0.6,1.1,1.3,1.2c0.6,0.1,1.5,0.1,3.1-0.1c0.2,0,0.4-0.5,0.4-1.1 c0-1,0.1-1,0.8,0.2c0.2,0.3,0.4,0.5,0.6,0.7c0.7,0.5,1.4,0.3,1-0.6c-0.2-0.6,0.1-0.7,1.8-0.8c0.1,0,0.9,0.1,1.8,0.3 c1.2,0.3,1.5,0.2,1.2-0.4c-0.1-0.2-0.1-0.4,0-0.5c0.1-0.2,0.5-0.2,1.1-0.2c1.4,0,1.4,0,0.4-0.9c-0.9-0.9-0.9-0.9,0.2-0.9 c0.6,0,1.7-0.3,2.5-0.7c0.9-0.4,1.7-0.9,1.7-1.3c0-0.2-0.4-0.4-0.9-0.3c-0.1,0-0.3,0-0.4,0c-0.4,0-0.8,0-1.1-0.1 c-0.3-0.1-1.1-0.1-1.8-0.2c-0.9,0-1.4-0.3-1.5-1.1c-0.1-0.9-0.5-1.1-1.9-1c-0.3,0-0.6,0-0.9,0c-0.4,0-0.8-0.1-1.1-0.1 c-0.2,0-0.3-0.1-0.4-0.1c-0.4-0.2-1.6-0.4-2.7-0.4c-1.1,0-2.2-0.2-2.4-0.4c-0.2-0.2-0.7-0.4-1.1-0.4s-1.1-0.3-1.6-0.7 c-0.4-0.4-1.3-0.7-1.8-0.7c-1,0-1-0.1-0.2-1c1.3-1.7,1-2.4-0.8-2.1c-1.7,0.2-2.1-0.3-0.7-1c1.2-0.6,2.2-0.2,3.9,1.4 c1.4,1.3,2.5,1.7,2.5,0.9c0-0.2,0.5-0.3,1.1-0.2c0.8,0.2,1,0.1,0.7-0.6c-0.3-0.7-0.2-0.8,0.8-0.6c0.9,0.2,1.1,0.1,1.1-0.9 c0-0.9,0.2-1.1,0.9-0.7c1.3,0.6,3,0.1,2.7-0.8c-0.2-0.6,0.3-1,1.5-1.4c2.6-0.8,2.3-1.6-0.6-1.3c-1.9,0.2-2.3,0.2-2.1-0.4 c0.4-0.9-1.2-0.9-2.3,0c-0.9,0.8-3.4,0.9-6,0c-2-0.6-1.4-1.5,0.6-1c1.4,0.4,2.2-0.6,1.4-1.6c-0.5-0.5-0.3-0.5,0.6,0.1 c1.5,0.9,3.4,0.3,2.9-0.8c-0.3-0.7,0.3-0.9,1.8-0.7c0.5,0.1,0.6-0.2,0.4-0.8c-0.2-0.6,0.2-1.1,1.4-1.7c1.6-0.8,1.7-0.9,0.7-1.5 c-0.7-0.4-1.2-0.5-1.5-0.2c-0.3,0.3-1.2,0.5-2,0.5c-1.2,0-1.5-0.2-1.2-0.9c0.5-1.3-0.4-1.5-2.1-0.5c-1.9,1.1-3,1.1-7.7,0.1 c-2.2-0.5-4-1.2-4.5-1.8l-0.9-1l1.2,0.9c1.2,0.9,1.3,0.9,1.9,0.1c0.4-0.4,1.1-0.8,1.5-0.8c0.5,0,0.9-0.3,0.9-0.7 c0-0.4,0.4-0.8,0.8-0.9c0.4-0.2,1-0.8,1.3-1.5c0.3-0.7,0.7-1.1,1-0.9c0.3,0.2,0.5-0.1,0.5-0.5c0-0.6,0.2-0.6,1,0.3 c1,1.1,1,1.1,1.1,0.1c0-0.7,0.4-1,1.5-0.9c0.9,0,1.4-0.2,1.3-0.6c-0.1-0.5,0.6-0.8,1.7-0.6c0.3,0,0.8,0,1.3-0.2 c0.6-0.2,0.6-0.4,0.1-1c-0.5-0.6-0.5-0.7,0.2-0.7c1.2,0,4-1.3,4-1.9c0-0.3-0.7-0.4-2-0.2c-4,0.7-4.3,0.7-3.8-0.3 c0.7-1.1,0.6-1.4-0.2-1.4c-0.4,0-1.5,0.5-2.3,1.2c-1.9,1.5-2,1.4-2.3,0c-0.2-0.8,0-1.4,0.7-1.7c1.3-0.7,1.3-1.4-0.1-1.1 c-0.6,0.1-0.9,0.1-0.8-0.2c0.2-0.2-0.6-0.4-1.6-0.4c-1,0-2,0.3-2.1,0.7c-0.2,0.5-0.4,0.6-1,0.1c-1.1-0.9,0.6-2.8,1.9-2.2 c1.3,0.6,1.6,0.5,1.4-0.4c-0.2-0.7,0-0.8,1.1-0.6c1.1,0.2,1.3,0.1,1-0.6c-0.3-0.6-0.1-0.8,0.8-0.7c2,0.1,2.2,0,1.2-0.9 c-0.9-0.9-0.9-0.9,0.2-0.6c0.8,0.2,1.1,0,1.1-0.7c0-0.9-1.7-1.7-2.3-1.2c-0.2,0.1-1,0.3-1.9,0.3c-1.3,0-1.5-0.1-1.3-0.8 c0.4-1-0.2-1-2.2-0.1c-0.8,0.4-1.7,0.6-1.9,0.4c-0.3-0.1-0.9,0-1.4,0.4c-0.8,0.6-0.8,0.5,0-0.3c1.1-1.1,1.2-2,0.3-1.9 c-0.4,0.1-1.8,0.6-3.2,1.2l-2.5,1.1l-3.3-1.5c-1.8-0.8-4.1-2.2-5.1-3c-1.6-1.2-1.8-1.7-1.5-2.7c0.3-1,0.4-1,0.4-0.2 c0.1,1.6,2.9,3.3,5,3c0.5-0.1,1.2,0.2,1.4,0.5c0.4,0.5,0.5,0.5,0.9,0c0.3-0.5,0.7-0.3,1.3,0.6c1.1,1.5,2.1,1.6,1.7,0.2 c-0.3-0.9-0.2-0.9,0.7-0.2c1,0.8,2.6,0.7,2.6-0.2c0-0.3-0.5-0.7-1.2-1c-1.4-0.7-2.5-1.6-2.5-2.1c0-0.2,0.5,0.1,1.1,0.5 c0.6,0.5,1.4,0.9,1.7,1c1.3,0.1,3,0.8,3,1.2c0,0.2,0.3,0.3,0.8,0.1c0.4-0.1,0.7-0.5,0.5-0.9c-0.1-0.3,0.1-0.7,0.6-0.9 c1.1-0.4,0.5-1.1-1.3-1.8c-1.1-0.4-1.2-0.6-0.5-0.7c0.5-0.1,1.4,0.3,2.1,1c1.5,1.4,3.7,1.8,4,0.7c0.1-0.5-0.4-1.1-1.3-1.5l-1.5-0.7 l2.1,0.3c3.1,0.4,7.4-1.3,5.6-2.3c-0.2-0.1-1.7-0.3-3.1-0.4c-1.7-0.1-2.5-0.3-2.2-0.6c0.8-0.7,0.6-1.7-0.5-1.7 c-0.6,0-1.3,0.3-1.7,0.6c-1.3,1.2-4.4,2.6-6.2,2.9l-1.8,0.3l1.4-0.7c0.8-0.4,1.4-0.9,1.4-1.1c0-1-1.7-0.8-4,0.5 c-2.3,1.3-2.8,1.4-6.3,1.2c-2.1-0.1-4-0.3-4.2-0.5c-0.2-0.2-0.1-0.9,0.3-1.6l0.7-1.3l0.7,1.1c0.5,0.8,0.8,0.9,1,0.5 c0.2-0.4,0.3-0.5,0.3-0.1c0,0.3,0.5,0.6,1.1,0.6c0.9,0,1-0.2,0.7-1.3c-0.2-0.7-0.1-1.1,0.1-0.8c0.7,0.8,2,1.1,2.8,0.7 c0.6-0.3,0.4-0.6-0.6-1.3l-1.3-1l1.2,0c0.7,0,1.2,0.2,1.2,0.5c0,0.3,0.5,0.5,1.1,0.5c0.6,0,1.1-0.2,1.1-0.4c0-0.6,1.9-0.9,2.9-0.4 c0.6,0.3,1.1,0.3,1.6-0.1c1.4-1,0.8-1.8-1.4-2.1l-2.2-0.3l1.2-0.8c0.9-0.6,1-0.9,0.5-1.1c-0.5-0.2-0.5-0.3,0.2-0.3 c0.5,0,0.9-0.3,0.9-0.5c0-0.3,0.2-0.4,0.5-0.2c0.5,0.3,1.1,0.1,1.5-0.2c0.3-0.2,0.4-0.5,0.3-0.7c-0.2-0.4-0.9-0.7-1.7-0.8l-1.4-0.1 l1.5-0.7c1.5-0.8,2.2-2.5,1.1-2.9c-0.3-0.1-2,0.6-3.7,1.6c-3.5,2-3.9,2.1-4.3,1.1c-0.2-0.5-0.7-0.7-1.4-0.5c-0.8,0.2-0.7,0,0.6-0.9 c0.9-0.7,1.7-1.6,1.7-2.1c0-1.1-0.3-1.1-2.1-0.2c-1.8,0.9-1.9,0.9-1.8-0.6c0.1-1.8,0.1-1.8,0.9-1.2c1,0.9,2.4,0.7,2.7-0.3 c0.2-0.6-0.1-1-0.7-1.1c-1.4-0.3-1.3-0.7,0.8-2.8c1.7-1.8,2-3.1,0.5-3.1c-0.4,0-1,0.3-1.4,0.6c-1,0.9-2.5,1.3-2.3,0.7 c0.1-0.3,0-0.9-0.2-1.2c-0.8-1.2-2.2,0.3-2.2,2.4c0,1-0.2,1.8-0.5,1.8c-0.3,0-0.5,0.3-0.5,0.7c0,0.4-0.2,0.8-0.5,1 c-0.4,0.2-0.5-0.6-0.4-2.3c0.1-2.3,0.4-2.9,2.1-4.6c0.3-0.3,0.5-0.6,0.8-0.8c0.7-0.9,1.3-1.8,1.3-2.2c0-1.4-0.3-1.3-2.5,0.7 l-0.5,0.5l-1.4,1.3l-0.1-3.1c0,0,0-0.1,0-0.1c0-1.7-0.1-3.5-0.1-4.1l-0.1-1.1l-1.1,1c-0.5,0.5-0.7,0.9-0.9,1.5 c-0.1,0.5-0.1,1.1,0,1.9c0.2,2.5-0.8,3.2-1.6,1.2c-0.5-1.3-3.2-2-3.2-0.9c0,0.4,1.1,1.8,2.4,3.2c1.9,2,2.4,2.9,2.6,4.8 c0.2,2,0.2,2.2-0.4,1.5c-0.4-0.4-0.9-0.7-1.1-0.5c-0.2,0.2-0.3,0-0.3-0.5c0-1.1-2.1-4.1-2.7-3.8c-0.3,0.2-0.4,0.7-0.2,1.3 c0.2,0.6,0.1,0.8-0.1,0.5c-0.5-0.6-3.9-2-4.9-2c-1,0-0.6,0.7,1,1.6c0.9,0.5,1.6,1.1,1.6,1.3c0,0.2-0.2,0.3-0.5,0.1 c-0.3-0.1-0.8,0.1-1.1,0.4c-0.4,0.4-1,0.7-1.4,0.7c-0.4,0-0.7,0.3-0.5,0.6c0.2,0.6,2.6,0.7,5.3,0.2c1.6-0.3,2.5,0.4,1.1,0.7 c-0.5,0.1-1.1,0.2-1.3,0.2c-0.4-0.1-2.7,1.8-3,2.5c0,0,0,0.1,0,0.1c0,0.2,0.2,0.3,0.5,0.4c0.6,0.2,1.7,0.3,2-0.1 c0.2-0.3,0.7-0.1,1.3,0.6c1,1.2,2.3,0.9,1.8-0.5c-0.3-0.7-0.1-0.8,1.2-0.5c1.2,0.3,1.5,0.6,1.6,2.1c0.1,1,0,1.7-0.3,1.7 c-0.1,0-0.1,0.1-0.2,0.3c-0.1,0.4-0.2,1.3-0.1,2.3c0.1,1.4,0,2.7-0.2,2.8c-0.7,0.4-5.6-3.3-5.8-4.5c-0.4-1.6-2-4.2-2.7-4.2 c-0.3,0-0.8,0.4-1.1,0.9c-0.6,0.8-0.7,0.7-2.3-0.8c-0.3-0.3-0.6-0.6-0.8-0.8c-0.8-0.6-1.1-0.7-1.5-0.3c-0.5,0.4-0.4,0.9,0.7,2.1 l1.3,1.6h-1.9c-2.3,0-2.7,0.8-0.9,1.6c0.7,0.3,1.2,0.8,1.1,1c-0.1,0.2,0.1,0.5,0.5,0.6c1.1,0.4,1,1.2-0.2,1.2 c-1.5,0-2.5,0.4-2.7,1.1c0,0,0,0.1,0,0.1c0,0.4,0.5,0.7,1.1,0.7c0,0,0.1,0,0.1,0c0.5,0,1,0.2,1,0.5c0,0.3,0.2,0.4,0.5,0.2 c0.3-0.1,0.6,0.2,0.8,0.7c0.1,0.3,0.2,0.4,0.2,0.6c0.1,0.1,0.1,0.1,0.2,0.1c0.2,0.1,0.5-0.1,1.2-0.4c1.2-0.7,1.3-0.7,1.8,0.2 c0.7,1.2,0.8,1.3-1.4,1.5c-0.1,0-0.3,0-0.4,0c-1.3,0.1-2.6,0.4-2.7,0.5c-0.5,0.4,1.5,1.7,2.7,1.7c0.8,0,0.9,0.1,0.4,0.7 c-0.5,0.6-0.4,0.7,0.7,1c0.8,0.2,1.4,0.5,1.4,0.7c0,0.5-2.1,0.1-2.9-0.6c-0.8-0.7-3.5-0.5-3.5,0.2c0,0.4,0.3,0.8,0.7,0.9 c1,0.3-1.7,1.4-3.5,1.5c-0.9,0-1.6,0.3-1.5,0.6c0.1,0.3-0.6,0.8-1.4,1.1c-0.9,0.3-1.6,0.7-1.6,0.9c0,0.5,2.1,1.4,3.6,1.6 c0.6,0.1,1.3,0.3,1.5,0.5c0.2,0.2,0.8-0.1,1.4-0.7c0.5-0.6,0.8-0.8,0.6-0.5c-0.2,0.3-0.1,0.6,0.2,0.6c0.3,0,0.5,0.4,0.5,0.9 c0,0.5,0.2,1,0.5,1.2c0.6,0.4,3.7-2,3.7-2.8c0-0.4,0.2-0.7,0.5-0.7c0.3,0,0.5,0.2,0.5,0.5c0,0.3,0.2,0.4,0.5,0.2 c0.7-0.4,0.7,0.1,0,1.2c-0.5,0.8-0.4,0.9,0.7,0.9c1.4,0,2.7-1.1,3.1-2.6c0.2-0.7,0.3-0.7,0.3,0.3c0,0.7,0.4,1.5,0.8,1.8 c0.6,0.4,1,0.3,1.9-0.9c0.6-0.8,1.1-1.7,1-2c-0.2-1.3,0.1-2.3,0.5-2c0.7,0.4-0.4,4.1-1.5,5.2c-0.8,0.7-1.6,0.9-3.4,0.8 c-1.8-0.1-2.4,0-2.4,0.6c0,0.4,0.4,0.9,0.9,1.2c0.7,0.4,0.5,0.5-1.2,1c-1.9,0.5-2.4,0.5-4.3-0.4c-1.2-0.5-2.3-1.2-2.5-1.5 c-0.6-0.8-1.5-0.5-1.2,0.4c0.2,0.8,0.1,0.9-1,0.5c-1.7-0.6-1.9-0.6-1.6,0.3c0.2,0.4,0,0.7-0.5,0.7c-0.5,0-0.7,0.3-0.5,0.7 c0.4,0.9-0.1,0.9-2.8-0.3c-2.2-0.9-4.1-0.9-3.5,0c0.2,0.3-0.6,0.5-2,0.5c-2.6,0-3.4,0.6-2.3,1.6c0.5,0.4,1.5,0.6,2.8,0.5 c2-0.2,2-0.2,0.7,0.5c-0.7,0.4-1,0.7-0.7,0.7c0.3,0,1.3,0.2,2.1,0.5c1.4,0.5,1.4,0.5,0.5,1.2c-1,0.6-1,0.7,0.4,0.7 c0.8,0,1.5-0.2,1.7-0.5c0.2-0.3,0.5-0.4,0.8-0.2s0.6-0.1,0.7-0.5c0.2-0.4,0.7-0.7,1.2-0.7c0.7,0,0.5,0.3-0.8,1.3 c-0.9,0.7-1.7,1.4-1.7,1.6c0,0.8,3,0.1,3.9-0.9c1.3-1.4,2.5-0.9,2.1,0.8c-0.3,1.2-0.1,1.4,0.9,1.4c0.7,0,1.7-0.6,2.4-1.3 c1.1-1.1,1.2-1.2,0.9-0.3c-0.2,0.8-0.1,1,0.8,0.9c0.6,0,1.2-0.4,1.4-0.8c0.1-0.4,0.8-0.8,1.6-0.8c1.1-0.1,1.3,0.1,0.8,0.8 c-0.8,1.3-3.4,2.6-7.3,3.7c-3.7,1-4.1,0.9-7.4-1.5c-1.7-1.2-3.1-1.4-1.7-0.2c0.9,0.8,0.8,1.4-0.2,1.1c-0.7-0.2-0.8-0.2-0.2,0.4 c1.1,1.1-0.3,0.9-2.5-0.4c-2-1.2-2.8-1.2-1.7,0c0.6,0.6,0.5,0.7-0.6,0.6c-0.7-0.1-2-0.1-2.9,0l-1.6,0.1l1.3,0.9 c0.7,0.5,1.7,0.9,2.2,0.9c1.3,0,1.7,0.5,1,1.2c-0.3,0.3-0.5,0.6-0.4,0.7c2,0.4,2.6,0.3,3.4-0.5c0.5-0.5,1.1-0.8,1.4-0.6 c0.3,0.1,0.1,0.7-0.4,1.2c-0.9,0.8-0.9,0.9,0,0.9c0.8,0,0.8,0.1,0.3,0.7c-0.9,1-0.4,1.3,1.3,0.7c1.4-0.5,1.4-0.4,1.1,0.7 c-0.2,0.7-0.2,1.1,0.1,1c0.2-0.1,0.8,0.1,1.2,0.6c0.6,0.7,0.9,0.8,1.8,0.4c0.6-0.3,1.2-0.4,1.3-0.3c0.1,0.1,0.4-0.3,0.6-1 c0.3-1.1,0.4-1.1,0.4-0.1c0,0.6,0.3,1.1,0.6,1.1c0.8,0,2.8-1,3.2-1.6c0.2-0.3,0.4,0.1,0.4,0.8c0,1.3,0,1.3,1.3,0.6 c0.7-0.4,1.5-0.7,1.8-0.5c0.3,0.1,0.7-0.1,1-0.6c0.5-0.8,0.5-0.8,0.6,0c0,0.7,0.2,0.7,1,0.4c1.6-0.8,1.9-0.6,0.5,0.3 c-3.6,2.4-9.3,4.3-12.5,4.3c-1,0-2.6-0.4-3.6-1c-1-0.5-1.8-0.9-1.8-0.8c-0.5,1.8-0.3,2.2,0.7,2.6c0.9,0.4,0.6,0.5-1.5,0.4 c-1.5,0-3.1-0.4-3.8-0.8c-1.6-1-3.1-0.6-2.1,0.5c0.6,0.6,0.5,0.7-0.8,0.4c-0.8-0.2-1.4-0.1-1.4,0.1c0,0.3-0.9,0.6-1.9,0.8l-1.9,0.3 l1.5,1.1c0.9,0.6,2.3,1.4,3.1,1.8c1,0.4,1.2,0.6,0.7,0.7c-1.4,0-1.1,0.9,0.4,1.2c1.2,0.3,1.3,0.4,0.5,1.1c-0.8,0.8-0.8,0.9,0.4,1.2 c0.7,0.2,1.4,0.3,1.7,0.2c2.1-0.4,5.2-0.4,4.5-0.1c-0.4,0.2-0.6,0.7-0.3,1c0.3,0.4,0.9,0.3,2.2-0.4l1.8-0.9v1c0,0.8,0.2,0.9,1.2,0.6 c0.7-0.2,2-0.3,2.9-0.3c1.1,0,1.9-0.2,2-0.6c0.2-0.4,0.6-0.7,0.9-0.7c0.4,0,0.4,0.2,0,0.6c-0.3,0.3-0.6,0.9-0.6,1.3 c0,2-8.7,3.9-11.9,2.5c-0.9-0.4-2.1-1.1-2.8-1.6c-1.2-1-1.7-0.2-0.5,0.9c0.8,0.7-0.3,0.8-1.7,0.1c-1.5-0.7-1.2,0,0.4,1.3l1.4,1.1 l-1.3-0.3c-0.7-0.2-1.9-0.4-2.7-0.4c-0.7-0.1-1.7-0.3-2.1-0.5c-0.5-0.3-0.6-0.2-0.4,0.4c0.3,0.6,0.1,0.7-1,0.5 c-1.3-0.3-1.9,0.5-0.7,0.9c0.4,0.1,0.1,0.1-0.7,0c-0.9-0.2-1.6,0-2,0.5c-0.5,0.5-0.5,0.7-0.1,0.7c0.3,0,0.5,0.3,0.4,0.6 c-0.1,0.4,0.5,0.5,1.7,0.5c1,0,1.3,0,0.7,0.2c-1.7,0.3-1.5,1.1,0.3,1.1c1.6,0,3,1,2.5,1.8c-0.6,0.8,0.5,1,3.4,0.6l2.8-0.4l-1.7,1.2 c-2,1.5-2.1,1.9-0.4,1.9c0.7,0,1.3,0.2,1.3,0.5c0,0.3,0.5,0.4,1.1,0.3c0.6-0.1,1.1-0.1,1.1,0.2c0,0.5,1.6,0,2.7-0.9 c0.8-0.6,0.9-0.6,0.6,0.3c-0.2,0.8,0,1,1,1c1.1,0,1,0.1-0.6,0.8c-2.3,1-13.3,1.1-15.1,0.2c-1-0.5-1.1-0.5-0.8,0.2 c0.2,0.4,0.8,0.9,1.4,1.1c0.9,0.3,0.9,0.4,0.2,0.4c-0.5,0-0.9,0.2-0.9,0.5c0,0.5,1.1,0.7,2.9,0.5c0.9-0.1,0.8,0.1-0.5,1.1 c-1.9,1.4-1.4,2.1,0.9,1.3c0.9-0.3,1.9-0.4,2.4-0.3c0.6,0.2,0.6,0.5-0.4,1.4c-1.1,1-2.5,1.3-5.1,1c-1.5-0.2-3.5-0.7-6.1-1.4 c-2.8-0.8-3.1-0.5-1.2,1.2c0.5,0.5,0.8,0.7,0.9,1c0.1,0.3-0.1,0.4-0.5,0.8c-0.6,0.4-0.7,0.7-0.2,0.9c0.3,0.1,0.5,0.5,0.3,0.9 c-0.2,0.5,0.1,0.7,0.8,0.7c0.8,0,1,0.2,0.8,0.8c-0.3,0.6-0.1,0.7,0.7,0.4c2.3-0.8,2.6-0.8,1.7-0.1c-1.3,1-1.2,1.1,1.2,1.5 c1.7,0.3,2.4,0.1,3.2-0.5c0.2-0.1,0.3-0.2,0.4-0.3c0.5-0.3,0.8-0.3,1,0c0.2,0.3,0.7,0.5,1.2,0.5c3-0.2,3.1,0.5,0.9,1.3 c-0.9,0.3-2,0.7-3.6,1.1c-4,1-4.3,1-6.8,0.3c-3.3-1-3.4-1-3.1,0.2c0.3,1.2-0.3,1.2-3.6,0.2c-3-0.9-4.3-0.6-3.3,0.7 c0.4,0.5,0.9,1,1.3,1c0.3,0,1.1,0.5,1.8,1.2c0.8,0.7,1.8,1.2,2.9,1.2l1.6,0l-1.8,0.8l-1.8,0.8l2.5,0.2l2.5,0.1l-1.2,0.9l-1.2,0.9 l1.3,0c0.7,0,1.9-0.3,2.5-0.7c0.8-0.5,1.2-0.6,1.2-0.2c0,0.3,0.4,0.4,0.8,0.3c0.4-0.1,0.8-0.1,0.8,0.2c0,0.3,0.6,0.5,1.3,0.5 c0.9,0,1.2,0.2,1,0.6c-0.3,0.7-4.6,1.6-7.9,1.7c-0.1,0-0.3,0-0.4,0c-0.3,0-0.7,0-1,0c-1.4,0-2.5,0.2-2.5,0.4c0,0.3,0.2,0.5,0.5,0.5 c0.3,0,0.5,0.2,0.5,0.4c0,0.5-7.2,0.3-10.1-0.2c-3.2-0.6-2.3,0.4,1.3,1.4c2.3,0.7,2.9,1,2.1,1.1c-0.9,0.1-1.1,0.4-0.9,1 c0.2,0.6-0.1,0.9-1.2,1.2c-1.3,0.3-1.3,0.4-0.5,0.8c0.5,0.3,1.2,0.3,1.4,0.2c0.3-0.2,0.5-0.1,0.5,0.1c0,0.2,1.5,0.7,3.4,1.1 c2,0.4,3.3,0.8,3.4,1.2c0,0,0,0,0,0c0,0.5,0.3,0.5,1.4,0.1c1.9-0.6,2.2-0.6,1,0.2c-1,0.6-1,0.7,0.6,1.3c0.8,0.3,1.6,0.8,1.9,1 c0,0,0,0,0,0c0.2,0.3,0.9,0.1,1.7-0.4c0.2-0.1,0.3-0.2,0.4-0.2c0.8-0.4,0.9-0.4,0.9,0.2c0,1,0.5,0.9,2.3-0.6 c1.1-0.9,1.3-0.9,0.6-0.2c-0.9,1-0.8,1.3,0.4,1.1c0.2,0,1.4-0.1,2.6-0.1c0.2,0,0.4,0,0.5,0c0.5,0,1.1,0,1.6-0.1c1-0.1,2-0.3,2.6-0.5 c2.6-1,3.4-1.2,3.4-0.7c0,0.3,0.5,0.4,1.1,0.2c1.3-0.4,1.4,0.3,0.1,1.3c-0.7,0.5-4.4,1.8-8,2.8c-0.3,0.1-0.6,0.2-0.9,0.2 c-2.2,0.6-4.3,1.1-5.4,1.2c-1,0.1-2.2,0-3.4-0.2c-0.1,0-0.2,0-0.2,0c-0.4-0.1-0.7-0.2-1.1-0.3c-2.6-0.8-3.3-0.6-2.3,0.8 c0.6,0.9,0.6,0.9-3.9,0.6c-0.3,0-0.5,0-0.8,0c-1.4-0.1-2.4-0.1-3.2-0.2c-1.7,0-2.1,0.1-1.9,0.5c0.1,0.4,0.9,0.8,1.8,1 c0.2,0,0.4,0.1,0.5,0.1c0.4,0.1,0.4,0.2,0,0.2c-0.3,0-0.7,0-1.4,0.1c-1.3,0-2.7,0.3-3.2,0.5c-1.8,1,1.7,1.7,5,1.2 c0.5-0.1,0.9-0.2,1.3-0.3c0.5-0.1,0.9-0.2,1.2-0.3c1-0.2,1,0-0.1,0.4c-0.4,0.2-1,0.4-1.7,0.6c-0.2,0.1-0.4,0.1-0.6,0.2 c-3.5,1.2-3,2.3,0.5,1.7c0.3-0.1,0.7-0.1,1.1-0.2c0,0,0.1,0,0.1,0c1.2-0.3,1.7-0.2,1.9,0.2c0.2,0.4,0.9,0.6,2.3,0.4 c1.4-0.2,2.2,0,2.8,0.5c0.5,0.4,1,0.6,1.2,0.4c0.2-0.2,0.3-0.1,0.3,0.2c0,0.3-0.5,0.9-1.1,1.3c-0.6,0.5-1.1,1.1-1.1,1.5 c0,0.6,0.3,0.5,1.4-0.1c0.8-0.5,1.6-1.1,1.9-1.5c0.6-0.8,1.4-0.8,1.4,0.1c0,0.9,2.2,0.9,3.1,0.1c0.5-0.5,0.6-0.2,0.3,1 c-0.4,1.6-0.1,1.7,1.9,0.3c0.4-0.3,1.4-0.8,2.2-1.1c1.4-0.5,1.4-0.5,1.1,1l-0.3,1.5l1.6-1.4c1.4-1.1,1.6-1.2,1.6-0.5 c0,0.7,0.1,0.7,0.8,0.3c0.4-0.3,0.8-0.4,0.8-0.2s0.5-0.1,1.1-0.6c1.3-1.3,1.8-1.3,1-0.1c-0.6,1-8.6,4.6-13.6,6.1 c-4.4,1.3-6.6,1.2-10.5-0.7c-3.9-1.9-5.5-1.7-2.7,0.4c1.7,1.3,1.7,1.4,0.5,1.1c-3.9-0.9-6.9-1.4-7.2-1.1c-0.6,0.6,1.4,1.5,4.6,2.2 c1.7,0.3,3.2,0.8,3.4,1c0.1,0.2-1.4,0.5-3.4,0.7c-2,0.2-3.7,0.5-3.7,0.7c0,0.4,1.4,0.6,3.6,0.4c0.8-0.1,1.1,0.1,0.9,0.4 c-0.2,0.3-0.8,0.5-1.3,0.5c-0.5,0-1.4,0.3-1.9,0.7c-0.9,0.7-0.8,0.7,2.4,0.5c2.8-0.2,3.2-0.1,2.2,0.3c-1.7,0.8-1.5,1.2,0.5,1.5 l1.7,0.2l-1.7,0.4c-2.6,0.6-1.7,1.5,1.3,1.3c2.2-0.1,2.4,0,1.4,0.4c-1.9,0.9-1.4,1.4,1.2,1.3c2-0.1,2.3-0.1,1.5,0.4 c-1.3,0.9-0.4,1.3,1.4,0.7c2-0.7,1.6,0.5-0.4,1.2c-1.7,0.6-9.7,1.9-12,1.9c-1.5,0-1.5,0-0.5,0.7c0.6,0.4,2,0.7,3.2,0.7 c1.9,0,2,0.1,0.9,0.5c-1.3,0.6-1.6,1.3-0.5,1.3c0.4,0,1.7-0.5,3-1.2c2.9-1.5,4-1.5,2,0l-1.5,1.1l1.4,0.3c1.4,0.3,1.4,0.4,0.5,1.2 c-0.3,0.3-0.5,0.5-0.6,0.7c-0.4,0.9,1.7,0.5,3.9-1c0.1-0.1,0.2-0.2,0.4-0.2c0.6-0.4,0.8-0.5,0.6-0.1c0,0,0,0.1,0,0.1 c-0.1,0.3,0.1,0.8,0.5,1.2c0.9,0.8,1.2,0.7,4.4-1.9c0.5-0.4,0.8-0.6,1-0.8c0.3-0.2,0.4-0.2,0.4-0.1c0,0.1-0.1,0.3-0.2,0.5 c-0.3,0.6-0.5,1.1-0.3,1.1c0.2,0,0.1,0.3-0.3,0.7c-0.5,0.6-0.5,0.8,0.2,1.4c1,0.9,1.4,0.9,2.2-0.1c0.6-0.8,0.7-0.7,1.2,0.3l0.5,1.1 l0.9-1.1c0.7-0.9,1-1,1.7-0.5c0.8,0.6,1,0.5,1.6-0.2c0.4-0.5,0.7-1.1,0.7-1.3c0-0.2,0.3-0.3,0.7-0.2c0.4,0.1,1,0,1.4-0.3 c0.6-0.4,0.5-0.4,0,0.3c-1.1,1.2-0.4,1.4,1.7,0.4c2-0.9,2.5-0.7,1.3,0.4c-0.5,0.5-0.5,0.7,0,0.8c0.3,0.1,0.5,0.5,0.3,1 c-0.3,0.6-0.1,0.7,0.7,0.4c1.5-0.6,4.4-0.7,4.4-0.2c0,0.5,1.7,0,2.3-0.7c0.3-0.3,0.3-0.1,0.2,0.6c-0.3,1.3,0.4,1.4,1.7,0.1 c0.7-0.6,1.1-0.7,1.2-0.4c0.2,0.4,0.4,0.4,1,0.1c0.4-0.3,1.3-0.5,2-0.4c1,0.1,1.4-0.3,2-1.5c0.7-1.5,1.7-2.3,1.1-0.9 c-0.5,1.3,0.6,0.7,1.6-0.7c0.5-0.8,1.2-1.3,1.4-1.2c0.7,0.2,0.4,4.3-0.6,6.3c-0.6,1.3-0.9,2-0.3,2.4H822c-0.2-0.4-0.6-1.2-1.1-2.1 c-0.9-1.5-1.4-3.5-1.6-5.9c-0.3-3.5-0.3-3.6,0.7-3.6c0.6,0,1.3-0.4,1.6-0.8c0.4-0.7,0.5-0.5,0.5,0.9c0,1.9,0.8,2.8,1.2,1.4 c0.2-0.7,0.3-0.6,0.3,0.2c0,0.6,0.6,1.3,1.4,1.8c1.7,1,2,1,1.6-0.2c-0.6-1.8,0.6-0.9,1.7,1.2c0.9,1.6,1.4,2.1,2.3,1.9 c0.6-0.1,1.3-0.4,1.5-0.7c0.3-0.4,0.5-0.2,0.8,0.7c0.2,0.8,0.6,1.2,1.1,1c0.4-0.1,0.8,0.2,1,0.8c0.3,0.9,0.4,1,1,0.2 c0.6-0.7,0.8-0.7,1.6,0.2c1.1,1.1,2,0.6,2.1-1.2c0-0.7,0.2-1.2,0.3-1.2c0.1,0,0.8,0.6,1.6,1.4c2.1,2,3.4,1.9,2.9-0.1l-0.3-1.5 l1.2,1.3c1.6,1.6,4.5,2,4.2,0.6c-0.2-0.9-0.1-0.9,0.8-0.1c1.3-2.3,2.5-4.6,3.7-6.9c-0.4-0.1-0.8-0.2-0.9-0.3 c-0.5-0.3-0.3-0.3,0.7-0.1c0.2,0,0.3,0.1,0.5,0.1c1.4-2.8,2.8-5.7,4.1-8.5c-0.9,0-2-0.1-3.4-0.3c-3.9-0.6-4.2-0.7-4.4-1.8l-0.2-1.2 l1.4,1.1c1.2,1,1.4,1,1.7,0.3c0.2-0.4,0-1.2-0.4-1.6c-1.7-1.8-1.5-2.1,0.4-0.4c2.5,2.2,5,3.8,5,3.2c0-0.3-0.2-1-0.5-1.7 c-0.3-0.8-0.3-1.3,0-1.5c0.3-0.2,0.5-0.1,0.5,0.1c0,0.2,0.5,0.6,1.2,1c1.2-2.7,2.3-5.5,3.4-8.2c-0.4,0-0.7,0-1.1,0 c-3.7,0-5.8,0-7-0.1c-0.7-0.1-1.1-0.2-1.3-0.4c-0.6-0.5-0.5-0.6,0.3-0.4c0.7,0.2,0.9,0.1,0.7-0.3c-0.2-0.5,0-0.6,1.3-0.1 c0.5,0.2,1,0.2,1.3,0.2c0.3,0,0.5,0,0.6-0.1c0.1-0.1,0.1-0.1,0.1-0.2c0-0.2-0.1-0.3-0.4-0.4c-0.4-0.1-0.7-0.4-0.7-0.7 c0-0.2,0.7-0.1,1.6,0.3c0.2,0.1,0.4,0.2,0.6,0.2c1.3,0.4,2.1,0.2,1-0.5c0,0-0.1-0.1-0.1-0.1c-0.6-0.3-0.4-0.4,0.7-0.2c0,0,0,0,0,0 c1.1,0.2,1.8-0.2,1.3-0.6c-0.1-0.1-0.3-0.2-0.6-0.3c-0.4-0.1-0.3-0.2,0.1-0.1c0.2,0,0.6,0.1,0.9,0.2c0.3,0.1,0.6,0.2,0.8,0.2 c0.4,0.2,0.8,0.1,1-0.2c0.1-0.2,0.1-0.3,0.2-0.5c0-0.1,0-0.2-0.1-0.3c-0.2-0.3-0.7-0.7-1.6-1.1l-2-0.9l2.5,0.3 c0.7,0.1,1.3,0.1,1.8,0.1c0.2-0.6,0.4-1.2,0.6-1.8c-0.2,0-0.5,0-0.7,0c-1.3,0-2.4-0.2-2.4-0.5c0-0.3-0.6-0.4-1.6-0.2 c-1.1,0.2-1.5,0.2-1.3-0.2c0.2-0.3,0.2-0.5-0.1-0.5c-0.8,0-0.5-1.1,0.5-2c0.5-0.5,0.9-0.7,0.9-0.5c0,0.2,0.5,0.6,1.1,1 c0.9,0.5,1.2,0.5,1.9-0.1c0.4-0.4,1.3-0.7,1.8-0.7c0.7,0,1-0.3,1-1.2c0-0.8,0.2-1.1,0.7-0.9c0,0,0,0,0,0c0.2-0.5,0.3-1.1,0.5-1.6 c-0.1-0.1-0.3-0.3-0.5-0.4l-1.5-1.1h1.7c0.3,0,0.5,0,0.8-0.1c0.2-0.7,0.4-1.4,0.6-2.2c-0.6,0.1-1.2,0.2-1.7,0.3L865.8,476.6z M801.9,380.5c-0.2-0.3,0.1-0.5,0.5-0.5c0.5,0,0.8,0.2,0.8,0.5C803.2,381.1,802.3,381.1,801.9,380.5z M786.6,421.3 c-0.4,0.6-0.8,0.6-0.8,0c0-0.3,0.3-0.5,0.6-0.5C786.7,420.8,786.8,421.1,786.6,421.3z M772.9,449.4c-0.6,0-0.7-0.1-0.3-0.3 c0.2-0.1,0.4-0.1,0.6-0.1c0.2,0,0.3,0,0.4,0.1C773.7,449.3,773.4,449.4,772.9,449.4z M772.6,461.2c-0.4,0.3-1,0.5-1.3,0.5 c-0.3,0-0.2-0.2,0.3-0.5c0.4-0.3,1-0.5,1.3-0.5c0,0,0.1,0,0.1,0C773.2,460.8,773,461,772.6,461.2z M843.7,484.2c0.1,0,0.2,0,0.3,0 c0.3,0,0.7,0.1,0.9,0.3c0.4,0.3,0.2,0.4-0.7,0.2C843.6,484.6,843.4,484.4,843.7,484.2z M834.8,428.1c0,0.5-1.1,0.2-3-0.7 c-1.1-0.5-1.7-0.9-1.4-0.9C831.2,426.5,834.8,427.8,834.8,428.1z M826.7,396.9c0.2,0.3,0.7,0.5,1.1,0.5s0.7-0.2,0.5-0.4 c-0.6-0.9,0.6-0.9,1.5,0c1,1,2.8,0.9,3.8-0.3c0.3-0.4,0.8-0.6,1.2-0.6v0c0.4,0,0.6,0.1,0.6,0.5c0,0.3-0.2,0.9-0.6,1.5 c-0.5,0.8-0.9,0.9-3.6,0.7c-1.6-0.1-3.7-0.5-4.4-0.7c-0.8-0.3-1.4-0.7-1.4-1C825.4,396.3,826.3,396.3,826.7,396.9z M823.8,396 c0.3,0,0.5,0.2,0.5,0.5c0,0.3-0.2,0.4-0.5,0.2c-0.3-0.2-0.5-0.4-0.5-0.5C823.3,396.1,823.5,396,823.8,396z M821.1,395 c0.3,0,0.5,0.2,0.5,0.5c0,0.3-0.2,0.4-0.5,0.2c-0.3-0.2-0.5-0.4-0.5-0.5S820.9,395,821.1,395z M819,393.9c0.7,0.4,0.7,0.7,0,0.7 c-0.3,0-0.5-0.2-0.5-0.5c0-0.2,0.1-0.3,0.3-0.3v0C818.9,393.8,819,393.8,819,393.9z M821.7,360.8c0.7-0.6,1.2-1.1,1.5-1.1l0,0 c0.1,0,0.1,0,0.1,0.1c0,0.3-0.3,1-0.8,1.4c-0.4,0.4-0.9,1.2-1,1.7c-0.2,1.1-0.9,2.6-1.2,2.6c-0.1,0-0.2-0.7-0.2-1.6 C820.1,362.9,820.6,361.9,821.7,360.8z M824.4,366.6L824.4,366.6c0.1,0,0.3,0,0.3,0.1c0.4,0.3-1.1,2.1-1.7,2.1 c-0.1,0-0.3,0.1-0.5,0.2c-0.3,0.2-0.7,0.5-1.1,0.8c-1.2,1.2-1.6,0.9-0.9-0.7c0.1-0.3,0.4-0.6,0.8-0.9 C822.3,367.4,823.7,366.7,824.4,366.6z M810,370.4L810,370.4c0.4,0,0.6,0.2,0.6,0.5c0,0.4,0.4,0.7,0.8,0.7c0.4,0,0.8,0.3,0.8,0.7 c0,0.6,0.5,0.7,2,0.6c1.7-0.1,2,0,2.2,0.9c0.1,0.6-0.1,1.1-0.4,1.1c-0.3,0-0.6-0.2-0.6-0.4s-0.4-0.4-1-0.4c-0.5,0-2.1-0.8-3.4-1.7 c0,0,0,0,0,0c-1.9-1.3-2.2-1.6-1.5-1.8c0,0,0.1,0,0.1,0C809.7,370.5,809.9,370.4,810,370.4z M808.8,379.4c-0.7-0.4-0.8-0.7-0.4-1 c0.3-0.2,0.6-0.1,0.6,0.2c0,0.4,0.2,0.4,0.8,0c0.2-0.2,0.4-0.3,0.5-0.3c0.2,0,0.2,0.2,0.2,0.7C810.6,380.2,810.1,380.3,808.8,379.4z M814.9,378.1c-0.7,0.5-1.6,0.9-2,0.7c-0.4-0.1-1-0.2-1.2-0.2s-0.5-0.2-0.5-0.5c0-0.3,0.5-0.4,1.3-0.2c0.7,0.2,1.8,0,2.5-0.2 l1.2-0.5L814.9,378.1z M814.5,394.9c0-0.1,0.1-0.1,0.1-0.1c0.1,0,0.1,0.4,0.1,1c0,0.8-0.1,1-0.3,0.6 C814.3,395.9,814.3,395.2,814.5,394.9z M814.8,387.5c0.6,0,0.7,3.9,0.2,4.4c-0.6,0.6-0.7,0.4-0.7-2 C814.3,388.6,814.5,387.5,814.8,387.5z M783.4,446.7c0.4-0.1,0.9-0.2,1.5-0.2c1,0,1.9,0.2,1.9,0.4c0,0.1-1,0.2-2.2,0.1 C783,447,782.7,446.9,783.4,446.7z M849.6,504.3c-0.3,0-0.5-0.2-0.5-0.5c0-0.2,0.1-0.3,0.3-0.3c0.1,0,0.1,0,0.2,0.1 C850.3,504,850.3,504.3,849.6,504.3z M857.7,486.2c-0.5,0.2-1,0.1-1.1-0.1c-0.1-0.3-0.8-0.2-1.6,0.2c-1.6,0.8-2.4,0.9-2,0.3 c0.2-0.2-0.7-0.3-1.9-0.2c-1.4,0.1-2.8,0-3.8-0.5l-1.6-0.7h1.4c0.8,0,1.4,0.2,1.4,0.5c0,0.9,1,0.5,1.4-0.5c0.3-0.7,0.5-0.8,0.8-0.4 c0.3,0.4,0.5,0.4,0.9-0.2c0.5-0.8,0.6-0.7,1.4,0.4l0.9,1.2l1.2-1.1l1.2-1.1v0l1.2,1.1C858.6,485.8,858.6,485.9,857.7,486.2z M865.5,480.4c-0.3,0-0.6-0.2-0.8-0.5c-0.1-0.2-0.1-0.3,0.2-0.3c0.1,0,0.2,0,0.3,0.1C866.1,480.1,866.2,480.4,865.5,480.4z"/> <polygon class="st7" points="551.5,392.2 551.5,392.2 551.5,392.2 "/> <path class="st7" d="M585.6,604.9c-0.6-0.8-0.6-0.9,0-0.3c0.4,0.4,1.1,0.5,1.5,0.4c0.4-0.2,0.8-0.1,0.8,0.2c0,0.3,0.3,1,0.8,1.6 c0.7,0.9,0.9,1,1.7,0.3c0.8-0.7,1-0.6,1.8,0.6l0.9,1.3l0.5-1.4c0.5-1.3,0.5-1.3,1.2-0.4c0.9,1.2,1.3,1.2,2.3,0.1 c0.7-0.7,0.7-1,0.2-1.7c-0.4-0.5-0.5-0.8-0.3-0.8c0.2,0,0.1-0.6-0.3-1.3c-0.5-1.1-0.3-1,1.2,0.4c3.4,3.2,3.7,3.3,4.6,2.3 c0.5-0.5,0.7-1.2,0.5-1.6c-0.2-0.4,0.1-0.3,0.7,0.2c2.9,2.4,5.9,2.9,3.9,0.6c-0.9-1-0.9-1.1,0.6-1.5l1.5-0.4l-1.6-1.3 c-2.1-1.8-1-1.8,2.1,0c1.3,0.8,2.7,1.4,3.1,1.4c1.1,0,0.8-0.9-0.6-1.6c-1.1-0.6-1-0.6,1-0.7c1.2,0,2.7-0.4,3.3-0.9 c1-0.8,1-0.8-0.6-0.9c-2.4,0-10.8-1.6-12.5-2.3c-2.1-0.9-2.5-2.3-0.4-1.5c1.9,0.7,2.8,0.1,1.4-0.9c-0.8-0.6-0.5-0.7,1.6-0.5 c2.7,0.2,3.3-0.5,1.3-1.5c-1.1-0.6-0.9-0.6,1.4-0.5c3.2,0.2,4-0.9,1.3-1.6l-1.8-0.5l1.8-0.2c2.1-0.3,2.3-0.8,0.6-1.8 c-1-0.5-0.6-0.6,2.3-0.4c3.3,0.3,3.5,0.2,2.5-0.6c-0.6-0.5-1.5-0.9-2-0.9c-0.5,0-1.1-0.3-1.3-0.6c-0.2-0.4,0.1-0.6,0.9-0.5 c2.3,0.2,3.8,0,3.8-0.5c0-0.3-1.7-0.7-3.9-0.9c-2.1-0.2-3.8-0.6-3.6-0.9c0.2-0.3,1.7-0.8,3.5-1.2c3.4-0.8,5.5-1.9,4.8-2.6 c-0.3-0.4-3.4,0.2-7.5,1.3c-1.3,0.3-1.2,0.2,0.5-1.3c2.8-2.5,1.2-2.8-2.9-0.5c-3.5,2-5.7,2.4-9,1.5c-0.6-0.2-1.3-0.4-2-0.6 c-1.7-0.6-3.7-1.5-5.8-2.4c-4.1-1.9-8-4.2-8.4-5c-0.8-1.5-0.3-1.4,1.1,0.1c0.6,0.7,1.1,1,1.1,0.8s0.4-0.1,0.8,0.2 c0.7,0.6,0.8,0.5,0.8-0.3c0-0.9,0.3-0.8,1.7,0.6l1.7,1.7l-0.3-1.8c-0.3-1.8-0.3-1.8,1.2-1.2c0.8,0.4,1.9,1,2.3,1.3 c2.1,1.7,2.4,1.7,2-0.3c-0.3-1.5-0.2-1.8,0.3-1.2c1,1,3.2,0.9,3.2-0.2c0-1.1,0.9-1.1,1.5-0.1c0.2,0.4,1.1,1.2,2,1.8 c1.3,0.8,1.5,0.9,1.5,0.2c0-0.5-0.5-1.3-1.1-1.8c-0.6-0.6-1.1-1.3-1.1-1.6c0-0.3,0.1-0.4,0.3-0.2c0.2,0.2,0.7,0,1.2-0.5 c0.6-0.6,1.5-0.8,2.9-0.6c1.4,0.2,2.2,0,2.4-0.5c0.2-0.6,0.7-0.6,2.1-0.2c4.9,1.4,5.8-0.2,1.1-2c-3.2-1.2-3.6-1.8-0.6-0.9 c3.8,1.1,8.7,0.3,6.6-1.1c-0.5-0.3-1.9-0.6-3.3-0.6c-2.1-0.1-2.2-0.1-0.9-0.4c0.2,0,0.4-0.1,0.5-0.2c0.7-0.2,1.2-0.6,1.3-1 c0.2-0.7-0.7-0.7-5.3-0.4c-5.5,0.4-5.6,0.4-4.9-0.7c1-1.7,0.3-2-2.4-1c-1.5,0.5-3.4,0.7-4.9,0.5c-3.2-0.4-13.7-4-15-5.2 c-1.3-1.2-1.2-2,0.1-1.5c0.6,0.2,1.1,0.1,1.1-0.2c0-0.6,0.8-0.4,3.6,0.8c0.9,0.4,2.9,0.8,4.4,0.8c1.5,0,3,0.1,3.3,0.1 c1.3,0.3,1.4-0.1,0.5-1.3c-0.7-0.8-0.5-0.8,0.6,0.3c1.9,1.8,2.4,1.9,2.4,0.7c0-0.7,0.2-0.7,1.4,0.1c0.8,0.6,1.6,0.7,1.8,0.4 c0.2-0.3,1.1-0.9,2-1.3c1.6-0.7,1.6-0.8,0.6-1.5c-1.2-0.9-0.9-1,1-0.2c1.1,0.4,1.4,0.4,1.4-0.2c0-0.4,1.4-1,3.6-1.5 c2-0.4,3.6-1,3.6-1.3c0-0.3,0.2-0.3,0.5-0.1c0.3,0.2,1,0.1,1.5-0.2c0.8-0.5,0.8-0.6-0.6-1c-1.2-0.3-1.4-0.6-1.2-1.4 c0.2-0.8,0-1.1-0.9-1.2c-0.9-0.1-0.3-0.5,2.2-1.3c3.8-1.2,4.7-2.4,1.4-1.7c-3,0.6-10.6,0.8-10.6,0.2c0-0.3,0.2-0.5,0.6-0.5 s0.6-0.3,0.6-0.6c0-0.3-1.2-0.5-2.6-0.5c-3.6,0.1-9.4-1.2-9.8-2.1c-0.2-0.5,0.2-0.8,1.1-0.8c0.7,0,1.4-0.2,1.4-0.5 c0-0.3,0.4-0.4,0.8-0.2c0.5,0.2,0.8,0,0.8-0.3c0-0.4,0.4-0.4,1.2,0.2c0.7,0.5,1.9,0.9,2.6,0.9l1.4,0l-1.3-1.1l-1.3-1.1l2.6-0.2 l2.7-0.2l-1.9-1l-1.9-1l1.7,0c1.1,0,2.2-0.5,3-1.4c0.7-0.8,1.5-1.4,1.9-1.4s0.9-0.5,1.3-1.2c1-1.7-0.3-2-3.4-0.9 c-3.4,1.2-4.1,1.2-3.8-0.2c0.3-1.4,0.3-1.4-3.2-0.2c-2.1,0.7-2.7,0.8-5,0.2c-0.4-0.1-0.9-0.2-1.5-0.4c-0.2-0.1-0.4-0.1-0.7-0.2 c-5.7-1.7-7.1-3.2-2.8-3c0.5,0,1-0.2,1.2-0.6c0.2-0.3,0.5-0.4,0.9-0.1c0.2,0.1,0.4,0.3,0.6,0.5c0.7,0.7,1.4,0.9,2.6,0.7 c0.2,0,0.4-0.1,0.7-0.1c2.5-0.4,2.7-0.7,1.3-1.8c-1-0.8-0.6-0.8,1.7,0.2c0.8,0.3,1,0.2,0.7-0.5c-0.3-0.7-0.1-0.9,0.8-0.9 c0.8,0,1-0.3,0.8-0.8c-0.2-0.4,0-0.9,0.3-1.1c0.2-0.1,0.2-0.2,0.3-0.3c0-0.1,0-0.3-0.2-0.5c-0.1-0.1-0.2-0.2-0.3-0.3 c-0.6-0.5-0.7-0.7-0.4-1.2c0.2-0.2,0.4-0.5,0.8-0.8c2-2,1.6-2.4-1.3-1.4c-0.2,0.1-0.5,0.1-0.7,0.2c-0.7,0.2-1.4,0.4-2,0.6 c-5,1.5-7.3,1.4-8.8-0.1c-0.1-0.1-0.1-0.1-0.2-0.2c-0.2-0.2-0.4-0.4-0.5-0.6c-0.5-0.6-0.4-0.9,0.1-1.1c0.5-0.2,1.6,0,2.5,0.3 c2.4,0.9,2.9,0,0.9-1.6c-1.4-1.1-1.5-1.4-0.6-1.3c1.9,0.2,3-0.1,3-0.6c0-0.3-0.4-0.6-1-0.6c-0.8,0-0.8-0.1,0.2-0.5 c0.6-0.3,1.3-0.9,1.5-1.4c0.3-0.8,0.2-0.8-0.9-0.2c-1.9,1.1-13.4,0.9-15.8-0.2c-1.7-0.8-1.8-0.9-0.6-1c1,0,1.3-0.3,1-1.2 c-0.3-1.1-0.2-1.1,0.6-0.4c1.2,1.1,2.9,1.7,2.9,1c0-0.3,0.5-0.4,1.1-0.2c0.6,0.2,1.1,0,1.1-0.3c0-0.3,0.6-0.6,1.4-0.6 c1.8,0,1.7-0.6-0.4-2.4l-1.8-1.5l2.9,0.5c3,0.5,4.1,0.3,3.6-0.7c-0.6-0.9,0.9-2.2,2.6-2.2c1.9,0,2.1-0.9,0.4-1.3 c-0.7-0.2-0.4-0.3,0.7-0.2c1.3,0,1.9-0.2,1.8-0.6c-0.1-0.4,0.1-0.7,0.5-0.7c0.4,0,0.4-0.3-0.1-0.9c-0.5-0.6-1.2-0.8-2.1-0.6 c-0.8,0.2-1.1,0.2-0.7,0c1.3-0.6,0.7-1.5-0.7-1.1c-1.1,0.3-1.3,0.2-1-0.6c0.3-0.7,0.1-0.8-0.4-0.5c-0.4,0.3-1.4,0.5-2.2,0.6 c-0.8,0.1-2,0.3-2.8,0.5l-1.4,0.4l1.5-1.3c1.8-1.5,2-2.5,0.4-1.6c-1.5,0.8-2.7,0.8-1.8-0.1c1.2-1.3,0.8-2.3-0.5-1.1 c-0.6,0.6-1.9,1.5-2.9,2c-3.4,1.6-12.5-0.6-12.5-3.1c0-0.5-0.3-1.2-0.7-1.6c-0.4-0.5-0.5-0.7-0.1-0.7c0.3,0,0.7,0.4,0.9,0.9 c0.2,0.5,1,0.8,2.1,0.8c1,0,2.4,0.1,3.1,0.4c1,0.3,1.2,0.2,1.2-0.8v-1.2l1.9,1.1c1.4,0.8,2,1,2.3,0.5c0.2-0.4,0.1-0.9-0.4-1.2 c-0.7-0.5,2.6-0.4,4.8,0.1c0.3,0.1,1.1-0.1,1.8-0.3c1.2-0.4,1.2-0.5,0.4-1.4c-0.8-0.9-0.8-1,0.5-1.3c1.6-0.4,1.9-1.5,0.4-1.5 c-0.6,0-0.4-0.3,0.7-0.8c0.9-0.4,2.4-1.4,3.3-2.2l1.6-1.4l-2-0.4c-1.1-0.2-2-0.6-2-0.9c0-0.3-0.6-0.4-1.5-0.2 c-1.3,0.3-1.4,0.3-0.8-0.5c1.1-1.3-0.5-1.7-2.2-0.5c-0.8,0.6-2.4,1-4,1c-2.2,0-2.5-0.1-1.5-0.5c1.1-0.5,1.2-1,0.7-3.1 c0-0.1-0.9,0.3-1.9,1c-1,0.7-2.7,1.2-3.7,1.2c-3.4,0-9.4-2.4-13.1-5.2c-1.4-1.1-1.1-1.3,0.5-0.4c0.9,0.5,1.1,0.4,1.1-0.4 c0-1,0-1,0.6,0c0.3,0.6,0.8,0.9,1.1,0.7c0.3-0.2,1.1,0.1,1.9,0.6c1.4,0.9,1.4,0.9,1.4-0.7c0-0.9,0.2-1.3,0.4-1 c0.5,0.7,2.6,1.9,3.4,1.9c0.3,0,0.6-0.6,0.7-1.3c0.1-1.2,0.1-1.2,0.4,0.1c0.2,0.8,0.5,1.3,0.6,1.2c0.1-0.1,0.8,0,1.4,0.4 c0.9,0.5,1.3,0.4,1.9-0.4c0.4-0.6,1-0.9,1.2-0.8c0.3,0.2,0.3-0.4,0.1-1.2c-0.3-1.4-0.3-1.5,1.2-0.9c1.8,0.7,2.4,0.4,1.4-0.9 c-0.6-0.7-0.5-0.9,0.3-0.9c0.9,0,0.9-0.1,0-1.1c-0.5-0.6-0.7-1.2-0.4-1.4s0.9,0.2,1.5,0.8c0.8,1,1.4,1,3.5,0.6 c0.1,0-0.1-0.4-0.4-0.8c-0.7-0.9-0.3-1.5,1.1-1.5c0.5,0,1.5-0.5,2.3-1.1l1.3-1.1l-1.7-0.1c-0.9-0.1-2.3-0.1-3,0 c-1.2,0.1-1.3,0-0.6-0.8c1.2-1.5,0.4-1.5-1.8,0c-2.3,1.6-3.7,1.9-2.6,0.5c0.6-0.7,0.6-0.8-0.2-0.5c-1.1,0.4-1.2-0.4-0.3-1.3 c1.4-1.5-0.1-1.2-1.8,0.3c-3.4,3-3.8,3.1-7.7,1.8c-4.1-1.3-6.8-2.8-7.6-4.4c-0.5-1-0.4-1.1,0.8-1c0.8,0,1.5,0.5,1.6,1 c0.1,0.5,0.8,0.9,1.4,1c0.9,0.1,1.1-0.2,0.8-1.1c-0.3-1.1-0.2-1,1,0.3c0.7,0.8,1.8,1.5,2.5,1.5c1.1,0,1.2-0.2,0.9-1.6 c-0.4-2.1,0.9-2.7,2.2-1c0.9,1.2,4,2,4,1.1c0-0.2-0.8-1.1-1.8-2c-1.4-1.2-1.6-1.5-0.8-1.6c0.5,0,1.1,0.3,1.3,0.8 c0.2,0.5,0.5,0.7,0.8,0.6c0.3-0.2,0.6,0,0.8,0.3c0.2,0.3,1,0.6,1.8,0.6c1.4,0,1.4,0,0.4-0.8c-1-0.8-1-0.8,0.5-1.4 c0.9-0.3,1.8-0.6,2.2-0.6c0.4,0,0-0.4-0.7-0.8c-1.3-0.8-1.3-0.8,0.8-0.6c1.4,0.1,2.4-0.1,2.9-0.6c1.2-1.2,0.4-2-2.4-2 c-1.5,0-2.3-0.2-2.1-0.6c0.7-1.2-1.3-1.2-3.6,0c-2.8,1.4-3.3,1.5-2.9,0.3c0.2-0.5,0-0.9-0.6-0.9c-0.5,0-0.8-0.3-0.6-0.9 c0.4-1,0.2-1-1.6-0.3c-1.2,0.5-1.3,0.4-1.1-0.6c0.3-1.1-0.6-1.5-1.2-0.5c-0.2,0.3-1.4,1.1-2.6,1.8c-2,1.1-2.5,1.1-4.5,0.5 c-1.8-0.6-2.1-0.8-1.3-1.2c0.5-0.3,0.9-0.9,0.9-1.4c0-0.7-0.6-0.8-2.5-0.7c-1.9,0.1-2.7-0.1-3.6-1c-1.2-1.3-2.4-5.8-1.6-6.2 c0.5-0.3,0.7,0.9,0.5,2.5c-0.1,0.4,0.4,1.5,1.1,2.4c0.9,1.4,1.3,1.6,2,1c0.4-0.4,0.8-1.3,0.8-2.1c0.1-1.2,0.1-1.3,0.3-0.4 c0.4,1.8,1.8,3.1,3.3,3.1c1.1,0,1.2-0.2,0.7-1.1c-0.7-1.4-0.7-1.9,0-1.5c0.3,0.2,0.6,0.1,0.6-0.2s0.2-0.6,0.6-0.6 c0.3,0,0.6,0.4,0.6,0.8c0,1,3.2,3.9,3.9,3.4c0.3-0.2,0.5-0.8,0.5-1.4c0-0.6,0.2-1.1,0.6-1.1s0.4-0.3,0.2-0.7 c-0.2-0.4,0.1-0.1,0.7,0.6c0.6,0.7,1.2,1.1,1.4,0.9c0.2-0.2,0.9-0.5,1.6-0.6c1.5-0.2,3.7-1.3,3.7-1.9c0-0.2-0.7-0.7-1.6-1.1 c-0.9-0.4-1.6-1-1.5-1.3c0.1-0.4-0.6-0.7-1.6-0.7c-1.9-0.1-4.7-1.4-3.7-1.8c0.4-0.1,0.7-0.6,0.7-1c0-0.9-2.8-1.1-3.6-0.3 c-0.8,0.8-3,1.3-3,0.7c0-0.3,0.6-0.7,1.4-0.9c1.2-0.3,1.3-0.5,0.8-1.2c-0.5-0.7-0.5-0.8,0.4-0.8c1.2,0,3.3-1.5,2.8-2 c-0.2-0.2-1.5-0.5-2.9-0.6c-2.8-0.3-2.7-0.3-1.9-1.9c0.5-1,0.7-1,1.9-0.2c1.2,0.8,1.3,0.8,1.7-0.3c0.2-0.6,0.6-1,0.9-0.9 c0.3,0.2,0.5,0.1,0.5-0.3s0.5-0.6,1.1-0.6c0.6,0,1.1-0.4,1.1-0.8c0-0.9-1.2-1.5-2.8-1.5c-1.3,0-1.4-1-0.2-1.5 c0.5-0.2,0.7-0.5,0.6-0.7c-0.1-0.2,0.4-0.8,1.1-1.2c1.9-1,1.4-2-1-2h-1.9l1.4-1.9c1.1-1.5,1.2-2,0.7-2.6c-0.5-0.5-1.1-0.2-2.5,1.3 c-1.7,1.9-1.9,2-2.4,1c-0.3-0.6-0.9-1-1.2-1c-0.7,0-2.4,3.2-2.8,5.1c-0.3,1.4-5.4,5.9-6.1,5.4c-0.2-0.1-0.3-1.7-0.3-3.4 c0.1-1.7-0.1-3.1-0.4-3.1c-0.3,0-0.4-0.9-0.3-2.1c0.1-1.7,0.4-2.2,1.7-2.5c1.3-0.4,1.5-0.3,1.2,0.6c-0.5,1.6,0.8,2,1.9,0.6 c0.6-0.8,1.1-1.1,1.3-0.7c0.4,0.6,2.6,0.3,2.6-0.4c0-0.5-2.7-3.2-3.2-3.1c-0.2,0-0.8-0.1-1.3-0.2c-1.6-0.4-0.5-1.2,1.1-0.9 c2.8,0.6,5.3,0.5,5.5-0.2c0,0,0-0.1,0-0.1c0.1-0.3-0.2-0.6-0.6-0.6c-0.4,0-1.1-0.4-1.5-0.9s-0.9-0.7-1.2-0.5 c-0.3,0.2-0.5,0.1-0.5-0.1c0-0.3,0.7-1,1.7-1.6c1.7-1.1,2.1-2,1.1-2c-1,0-4.6,1.7-5.1,2.4c-0.3,0.4-0.3,0.2-0.1-0.6 c0.2-0.7,0.1-1.4-0.2-1.6c-0.3-0.2-1.2,0.8-1.9,2c-0.5,0.9-1,2-1,2.6c0,0.5-0.2,0.8-0.4,0.5c-0.2-0.2-0.7,0.1-1.1,0.6 c-0.7,0.9-0.7,0.6-0.5-1.8c0.1-1.2,0.3-2,0.8-3c0.4-0.8,1-1.7,2-2.8c1.4-1.6,2.5-3.4,2.5-3.8c0-1.4-2.8-0.5-3.3,1.1 c-0.9,2.5-1.9,1.6-1.7-1.5c0.2-2.2,0-3.1-1-4.1l-1.2-1.3l-0.1,1.4c0,0.8-0.1,3.1-0.1,5.1l-0.1,3.7l-2-2.2c-2.4-2.5-2.7-2.6-2.7-0.9 c0,0.6,0.7,1.9,1.6,3.1c0.2,0.2,0.3,0.4,0.5,0.6c1.9,2.1,2.1,2.8,2.2,5.6c0.1,2.1-0.1,3.1-0.5,2.8c-0.3-0.2-0.6-0.7-0.6-1.2 c0-0.5-0.2-0.8-0.6-0.8c-0.3,0-0.6-1-0.6-2.2c0-2.5-1.4-4.3-2.3-2.9c-0.3,0.4-0.4,1.1-0.3,1.5c0.3,0.8-1.3,0.3-2.4-0.8 c-0.4-0.4-1-0.7-1.4-0.7c-1.5,0-1.2,1.6,0.6,3.7c2.2,2.5,2.3,3.1,0.8,3.4c-0.7,0.2-0.9,0.6-0.8,1.4c0.3,1.2,1.8,1.4,2.8,0.4 c0.8-0.8,0.8-0.7,0.9,1.4c0.1,1.8,0,1.8-1.9,0.7c-1.8-1.1-2.2-1.1-2.2,0.2c0,0.6,0.8,1.7,1.8,2.5c1.3,1.1,1.5,1.4,0.6,1.1 c-0.8-0.2-1.3,0-1.5,0.6c-0.5,1.3-0.9,1.2-4.5-1.3c-1.8-1.2-3.6-2.1-3.9-2c-1.1,0.5-0.4,2.6,1.2,3.5l1.6,0.9l-1.5,0.2 c-0.8,0.1-1.6,0.5-1.8,1c-0.3,0.8,1.1,1.6,1.9,1.1c0.3-0.2,0.5,0,0.5,0.3s0.4,0.6,1,0.6c0.7,0,0.8,0.1,0.2,0.4 c-0.6,0.2-0.5,0.6,0.5,1.3l1.3,1l-2.3,0.4c-2.4,0.4-2.9,1.3-1.5,2.5c0.5,0.5,1.1,0.5,1.7,0.1c1-0.6,3-0.3,3,0.5 c0,0.3,0.5,0.5,1.1,0.5c0.6,0,1.1-0.3,1.1-0.6c0-0.3,0.6-0.6,1.2-0.5l1.2,0l-1.4,1.2c-1.1,0.9-1.2,1.3-0.6,1.6 c0.8,0.5,2.3,0.1,3-0.8c0.3-0.3,0.3,0.1,0.1,1c-0.3,1.3-0.2,1.6,0.8,1.6c0.6,0,1.1-0.3,1.2-0.7c0-0.5,0.1-0.5,0.3,0.1 c0.2,0.6,0.5,0.4,1-0.6l0.7-1.4l0.7,1.6c0.4,0.9,0.5,1.7,0.3,2c-0.2,0.2-2.2,0.5-4.4,0.6c-3.7,0.2-4.2,0.1-6.6-1.5 c-2.4-1.6-4.2-1.8-4.2-0.6c0,0.3,0.7,0.9,1.5,1.4l1.5,0.9l-1.9-0.4c-1.9-0.4-5.1-2.1-6.5-3.5c-0.4-0.4-1.2-0.7-1.8-0.7 c-1.1,0-1.4,1.1-0.5,2c0.3,0.3-0.5,0.6-2.3,0.7c-1.6,0.1-3,0.3-3.3,0.5c-1.8,1.2,2.7,3.2,5.9,2.8l2.2-0.3l-1.6,0.9 c-0.9,0.5-1.5,1.3-1.4,1.9c0.3,1.4,2.7,0.9,4.2-0.8c0.7-0.8,1.7-1.3,2.2-1.2c0.8,0.2,0.7,0.4-0.5,0.9c-1.9,0.8-2.4,1.7-1.3,2.2 c0.5,0.2,0.8,0.7,0.6,1.1c-0.2,0.4,0.1,0.9,0.5,1c0.4,0.2,0.8,0.1,0.8-0.2c0-0.5,1.8-1.3,3.1-1.4c0.4,0,1.2-0.6,1.8-1.2 c0.6-0.6,1.2-0.9,1.2-0.7c0,0.6-1.2,1.7-2.6,2.5c-0.7,0.4-1.2,0.9-1.2,1.2c0,1.1,1.7,1.2,2.7,0.3c1-0.9,1-0.9,0.7,0.2 c-0.4,1.7,0.7,1.5,1.8-0.3c0.7-1.1,1-1.3,1.4-0.7c0.4,0.6,0.5,0.6,0.9,0c0.3-0.4,0.9-0.7,1.5-0.6c2.2,0.3,5.2-1.8,5.2-3.7 c0-1,0.1-1,0.4,0.2c0.3,1.2,0.1,1.7-1.6,3.2c-1.1,1-3.5,2.7-5.4,3.7l-3.4,1.8l-2.7-1.4c-1.5-0.8-3-1.4-3.3-1.5 c-1-0.2-0.9,0.9,0.3,2.3c0.9,1.1,0.9,1.1,0,0.4c-0.5-0.4-1.2-0.6-1.4-0.4c-0.3,0.2-1.2-0.1-2-0.5c-2-1.1-2.7-1-2.3,0.2 c0.2,0.8,0,1-1.3,0.9c-0.9,0-1.8-0.2-1.9-0.4c-0.7-0.7-2.4,0.3-2.4,1.4c0,0.9,0.3,1.1,1.2,0.8c1.1-0.3,1.1-0.3,0.2,0.8 c-1,1.1-0.8,1.3,1.3,1.1c1-0.1,1.2,0.1,0.9,0.9c-0.3,0.8-0.1,0.9,1,0.7s1.3-0.1,1.1,0.8c-0.3,1.2,0.1,1.3,1.4,0.5 c1.4-0.7,3.1,1.6,1.9,2.7c-0.6,0.6-0.8,0.6-1.1-0.1c-0.2-0.4-1.1-0.8-2.2-0.9c-1.1,0-1.8,0.2-1.6,0.4c0.2,0.3-0.2,0.4-0.8,0.2 c-1.4-0.4-1.4,0.5-0.1,1.4c0.7,0.5,0.9,1.1,0.8,2.1c-0.3,1.8-0.4,1.8-2.4,0.1c-0.9-0.8-2-1.4-2.4-1.4c-0.9,0-1,0.3-0.3,1.6 c0.6,1.1,0.2,1.1-4,0.3c-1.4-0.3-2.1-0.2-2.1,0.2c0,0.7,2.9,2.4,4.2,2.4c0.8,0,0.8,0.1,0.2,0.8c-0.5,0.7-0.5,0.9,0.1,1.2 c0.4,0.2,1,0.3,1.3,0.2c1.2-0.2,1.9,0.1,1.7,0.8c-0.1,0.4,0.4,0.7,1.4,0.7c1.2,0,1.5,0.2,1.5,1.1c0,1.1,0.1,1.1,1.1-0.2 c0.9-1.1,1.1-1.1,1.1-0.4c0,0.5,0.2,0.8,0.6,0.6c0.3-0.2,0.8,0.3,1.1,1.1c0.3,0.8,0.9,1.6,1.4,1.8c0.5,0.2,0.8,0.7,0.8,1.1 c0,0.4,0.4,0.8,0.9,0.8c0.5,0,1.2,0.4,1.6,1c0.7,0.9,0.8,0.9,2-0.1l1.3-1.1l-1,1.2c-0.6,0.7-2.4,1.6-4.8,2.1c-4.9,1.2-6,1.2-8-0.2 c-1.8-1.2-2.7-1-2.2,0.6c0.3,0.9,0.1,1.1-1.2,1.1c-0.9,0-1.8-0.3-2.1-0.6c-0.4-0.4-0.9-0.3-1.6,0.2c-1,0.8-1,0.8,0.7,1.8 c1.3,0.8,1.7,1.3,1.5,2.1c-0.2,0.7,0,1,0.4,0.9c1.6-0.2,2.2,0.1,1.9,0.9c-0.5,1.4,1.5,2.1,3,1c1-0.7,1.2-0.7,0.7-0.1 c-0.9,1.2,0,2.4,1.4,2c2.1-0.7,2.7,0.4,0.6,1.2c-2.6,1-5.3,1-6.2-0.1c-1.1-1.1-2.8-1.1-2.4,0c0.3,0.7-0.1,0.8-2.2,0.5 c-3-0.4-3.3,0.5-0.6,1.5c1.3,0.5,1.8,1,1.6,1.7c-0.3,1.2,1.4,1.8,2.8,1c0.7-0.4,0.9-0.3,0.9,0.9c0,1.2,0.2,1.3,1.2,1.1 c1-0.3,1.1-0.1,0.8,0.7c-0.3,0.8-0.1,1,0.7,0.7c0.6-0.2,1.1-0.1,1.1,0.2c0,1,1.2,0.5,2.6-1.1c1.8-1.9,2.8-2.4,4.1-1.7 c1.5,0.8,1.1,1.4-0.7,1.2c-1.9-0.3-2.2,0.6-0.8,2.6c0.8,1.2,0.8,1.3-0.2,1.3c-0.6,0-1.5,0.4-1.9,0.9c-0.5,0.5-1.2,0.9-1.7,0.9 c-0.5,0-1,0.2-1.2,0.5c-0.2,0.3-1.3,0.5-2.5,0.5c-1.2,0-2.5,0.2-2.9,0.4c-0.4,0.3-1.5,0.4-2.5,0.3c-1.5-0.1-1.8,0.1-1.9,1.2 c-0.1,0.9-0.6,1.3-1.6,1.3c-0.8,0-1.6,0.1-1.9,0.2c-0.3,0.1-1,0.1-1.5,0c-0.1,0-0.2,0-0.3,0c-0.4,0-0.7,0.2-0.7,0.4 c0,0.3,0.4,0.6,0.9,1c1,0.7,2.6,1.4,3.5,1.4c1.2,0,1.2,0,0.3,1.1c-1,1.1-1,1.1,0.4,1.1c1.1,0,1.4,0.2,1.1,0.9 c-0.3,0.7,0,0.8,1.1,0.5c0.1,0,0.1,0,0.2,0c0.9-0.2,1.7-0.4,1.9-0.4c0.1,0,0.1,0,0.2,0c1.5,0,1.9,0.3,1.7,0.9 c-0.6,1.5,0.9,1.5,1.7-0.1c0.8-1.5,0.8-1.5,0.8-0.3c0,0.7,0.2,1.3,0.4,1.3c3.4,0.5,3.9,0.3,4.6-1.3l0.7-1.7l0.5,1.3l0.5,1.4l1.1-1.4 c1.1-1.4,1.1-1.4,1.1-0.1c0,1.7,1,1.6,1.4-0.1c0.2-0.8,0.6-1.4,0.9-1.4s0.3,0.3,0.1,0.6c-0.3,0.4,0.2,0.5,1.4,0.2 c1.3-0.3,1.7-0.2,1.6,0.3c-0.3,1-3.8,2.8-5.5,2.8c-0.8,0-1.6,0.3-1.7,0.7c-0.1,0.2-0.4,0.4-0.9,0.5c-0.4,0.1-0.9,0.1-1.5,0.1 c-0.1,0-0.3,0-0.4,0c-1.4,0-2.6,0.2-2.6,0.4c0,0.8,1,1.6,2.2,2c0.4,0.1,0.9,0.2,1.3,0.1c0.9-0.1,1.7,0,1.7,0.3c0.1,0.6-1,1-3.6,1.3 c-1.3,0.2-3,0.3-5.1,0.4c-0.7,0-1.4,0.1-2.2,0.1c-8.9,0.4-12.4,0.8-12.4,1.4c0,0.2-0.6,0.3-1.4,0.2c-0.8-0.2-1.4,0-1.4,0.3 c0,0.8,1.8,1.8,3.3,1.8c0.6,0,1.2,0.3,1.2,0.6c0,0.3-0.3,0.6-0.6,0.6c-0.3,0-1.1,0.5-1.8,1.2l-1.2,1.2l1.8-0.2 c1.2-0.2,1.8,0,1.8,0.4c0,0.4,0.4,0.6,1.1,0.4c0.6-0.2,1.1,0,1.1,0.3c0,0.9,1.4,0.8,2.2-0.2c0.4-0.5,0.9-0.9,1.2-0.9s0.2,0.5-0.3,1 c-0.5,0.6-0.9,1.2-0.9,1.4c0,0.6,2.1,0.5,2.5-0.2c0.5-0.9,1.3-0.7,1.7,0.6c0.4,1.4,1.1,1.4,3.1,0l1.6-1.2l-0.3,1.7 c-0.4,2.1,0.6,2.3,2.8,0.5c1.5-1.2,1.5-1.2,0.9-0.1c-0.7,1.3-0.4,1.9,0.8,1.5c0.4-0.2,1.2,0,1.6,0.4c0.6,0.5,0.8,0.5,0.8,0.1 c0-0.4,0.4-0.6,0.8-0.6s0.8,0.4,0.8,0.8c0,0.6,0.5,0.8,1.5,0.6c5.7-0.7-1.7,2.8-8.4,3.9c-4.4,0.7-4.8,0.7-6.2-0.3 c-0.9-0.6-1.8-1-2.2-1c-1.1,0-0.8,1.1,0.6,1.7c0.9,0.4,0.6,0.4-1.2,0.2c-1.4-0.2-3.1-0.4-3.9-0.3c-0.8,0-2.6-0.3-4.1-0.7 c-1.5-0.4-2.8-0.7-2.9-0.6c-0.6,0.6,3,2.9,4.9,3.3l2.3,0.4l-2.1,0.1c-1.4,0-2.1,0.3-2.1,0.9c0,0.5,0.4,0.9,1,0.9 c0.5,0,1.2,0.1,1.5,0.2c0.3,0.1,0.9,0.2,1.3,0.2c0.6,0,0.5,0.3-0.3,0.9c-1.4,1-0.7,1.8,0.8,0.9c0.9-0.5,1.2-0.5,1.2,0.3 c0,0.7,0.4,0.9,1.8,0.7c1-0.1,2.3-0.4,2.9-0.7c1.1-0.4,1.1-0.4,0,0.5c-1.1,0.9-0.8,1.1,0.9,0.9c0.5-0.1,1,0.3,1,0.8 c0,1.2,0.4,1.1,1.8-0.4l1.1-1.3l-0.9,1.5c-0.5,0.8-0.9,1.8-0.9,2.1c0,0.9,2.7,0.2,4-1c1.1-1,1.1-1,0.7,0.4c-0.6,1.9-1.3,2.3-6.3,3.9 c-2.3,0.7-3.4,1-4.4,1c3.3,4,6.8,7.9,10.4,11.6c0.1,0,0.2,0,0.3,0c0.1,0,0.2,0,0.3,0c0.3,0.1,0.2,0.3-0.2,0.5 c17.1,17.7,37.5,32.2,60,42.8C586.3,606.1,586.2,605.7,585.6,604.9z M600.2,534.4c0,0,0.1,0,0.1,0c0.3,0,0.9,0.2,1.4,0.5 s0.6,0.5,0.3,0.5c-0.3,0-0.9-0.2-1.4-0.5C600.2,534.7,600,534.5,600.2,534.4z M599.6,520.4c0.1-0.1,0.3-0.1,0.4-0.1 c0.2,0,0.4,0,0.6,0.1c0.4,0.2,0.3,0.3-0.3,0.3C599.7,520.7,599.4,520.6,599.6,520.4z M586.2,486.1c0.3,0,0.6,0.3,0.6,0.6 c0,0.7-0.4,0.7-0.8,0C585.8,486.4,585.9,486.1,586.2,486.1z M569.4,436.7c0.5,0,0.7,0.3,0.5,0.6c-0.4,0.7-1.4,0.7-1.4,0 C568.6,437,568.9,436.7,569.4,436.7z M587.7,517.2c0.5,0,1,0,1.3,0.1c0.1,0,0.2,0,0.3,0.1c0.6,0.2,0.5,0.4-0.5,0.4 c-0.2,0-0.5,0-0.8,0c-1.3,0-2.3-0.1-2.3-0.2C585.7,517.4,586.7,517.2,587.7,517.2z M556.5,455.8c0-0.7,0-1.1,0.1-1.2 c0,0,0.1,0,0.1,0.1c0.2,0.4,0.2,1.2,0,1.7C556.7,457,556.6,456.7,556.5,455.8z M556.4,445.8L556.4,445.8c0.3,0,0.6,1.3,0.6,2.8 c0,2.9-0.1,3.1-0.7,2.4C555.7,450.5,555.8,445.8,556.4,445.8z M559.8,435c-0.3,0-0.9,0.1-1.3,0.3c-0.4,0.2-1.4-0.2-2.1-0.9l-1.3-1.2 l0,0l1.3,0.7c0.7,0.4,1.9,0.5,2.6,0.3c0.8-0.2,1.3-0.1,1.3,0.2C560.3,434.8,560.1,435,559.8,435z M562.5,435.1 c0-0.4,0.3-0.5,0.6-0.3c0.4,0.3,0.3,0.6-0.4,1.2c-1.4,1.1-1.9,1-1.9-0.4c0-0.6,0.1-0.9,0.3-0.9c0.1,0,0.3,0.2,0.6,0.4 C562.3,435.6,562.5,435.6,562.5,435.1z M554.9,429.2c0.2-1.1,0.5-1.3,2.3-1.1c1.6,0.1,2.1,0,2.1-0.7c0-0.5,0.4-0.9,0.8-0.9 c0.5,0,0.8-0.4,0.8-0.8c0-0.4,0.2-0.6,0.6-0.6v0c0.1,0,0.3,0,0.5,0.1c0.9,0.2,0.7,0.6-1.4,2.3c-1.4,1.1-3,2-3.6,2.1 c-0.6,0-1,0.3-1,0.5s-0.3,0.5-0.6,0.5C555,430.5,554.8,429.9,554.9,429.2z M549.5,424.3c-0.5-0.7-1.3-1.2-1.7-1.2 c-0.6,0-2.1-2.2-1.7-2.5c0.1-0.1,0.2-0.1,0.3-0.1v0c1,0.1,3.6,1.9,4,3C551.1,425.4,550.7,425.8,549.5,424.3z M550.7,419.1 c-0.3,0-1-1.8-1.3-3.1c-0.1-0.6-0.6-1.5-1-2c-0.4-0.5-0.8-1.3-0.8-1.7c0-0.1,0-0.1,0.1-0.1l0,0c0.3,0,0.9,0.5,1.5,1.3 c1.1,1.3,1.7,2.5,1.7,3.8C550.9,418.3,550.8,419.1,550.7,419.1z M552,453.5c0.1,0,0.1-0.1,0.2-0.1v0c0.2,0,0.3,0.1,0.3,0.3 c0,0.3-0.2,0.6-0.6,0.6C551.3,454.3,551.3,453.9,552,453.5z M549.8,454.9c0.3,0,0.6,0.1,0.6,0.2s-0.2,0.4-0.6,0.6 c-0.3,0.2-0.6,0.1-0.6-0.2S549.5,454.9,549.8,454.9z M547.1,456c0.3,0,0.6,0.1,0.6,0.2c0,0.1-0.2,0.4-0.6,0.6 c-0.3,0.2-0.6,0.1-0.6-0.2C546.5,456.3,546.8,456,547.1,456z M539.2,459.3c-2.7,0.3-3.2,0.2-3.7-0.9c-0.3-0.6-0.6-1.4-0.6-1.8 c0-0.4,0.3-0.6,0.7-0.6l0,0c0.4,0,0.8,0.3,1.2,0.8c1.1,1.5,3,1.6,4,0.4c0.9-1.1,2.2-1.1,1.6,0c-0.2,0.3,0.1,0.5,0.5,0.5 s1-0.3,1.2-0.6c0.4-0.7,1.4-0.7,1.4,0c0,0.3-0.7,0.9-1.5,1.2C543.1,458.7,541,459.1,539.2,459.3z M538.6,494.1 c-2,1.1-3.2,1.4-3.2,0.9c0-0.4,3.8-2,4.6-2C540.4,493,539.8,493.5,538.6,494.1z"/> <path class="st8" d="M866.6,361c-26.7-81.7-103.5-140.7-194.1-140.7c-100.3,0-183.7,72.3-200.9,167.6c-1.2,6.6-2.1,13.3-2.6,20 c-0.4,5.5-0.7,11-0.7,16.6c0,21.4,3.3,42,9.4,61.4c8,25.4,20.8,48.7,37.4,68.7c3.3,4,6.8,7.9,10.4,11.6c0.2,0.2,0.3,0.3,0.5,0.5 c17.1,17.7,37.5,32.2,60,42.8c26.3,12.3,55.6,19.2,86.5,19.2c76.4,0,143-42,178-104.1c1.3-2.3,2.5-4.6,3.7-6.9 c0.1-0.1,0.1-0.3,0.2-0.4c1.4-2.8,2.8-5.7,4.1-8.5c0.4-0.9,0.8-1.8,1.2-2.7c1.2-2.7,2.3-5.5,3.4-8.2c0.4-1.1,0.9-2.3,1.3-3.4 c0.1-0.2,0.1-0.3,0.2-0.5c0.1-0.1,0.1-0.3,0.2-0.4c0.2-0.5,0.4-1,0.5-1.5c0.2-0.6,0.4-1.2,0.6-1.8c0.7-1.9,1.3-3.9,1.9-5.8 c0.2-0.5,0.3-1.1,0.5-1.6c0.2-0.5,0.3-1,0.5-1.6c0.2-0.7,0.4-1.4,0.6-2.2c2.5-9.1,4.4-18.4,5.7-27.9c1.1-8.8,1.7-17.7,1.7-26.7 C876.7,402.4,873.2,381,866.6,361z"/> </svg>